<?xml version="1.0" encoding="UTF-8" standalone="no"?><svg xmlns="http://www.w3.org/2000/svg" xmlns:xlink="http://www.w3.org/1999/xlink" clip-rule="evenodd" stroke-miterlimit="4.00" viewBox="0 0 720 405"><desc>SVG generated by Keynote</desc><defs></defs><g transform="matrix(1.00, 0.00, -0.00, -1.00, 0.0, 405.0)"><path d="M 0.0 405.0 L 720.0 405.0 L 720.0 0.0 L 0.0 0.0 Z M 0.0 405.0 " fill="#3B3B3B"></path><image xlink:href="../../9EA3EA7E-376A-4B6F-86D4-F7DEFFC5E922/assets/9642FC9EA6ADF033B4D25C2A4D99E1C3.png" width="728.00" height="133.00" transform="matrix(1.00, 0.00, -0.00, -1.00, -4.0, 131.9)" opacity="0.35"></image><path d="M 0.0 24.4 L 0.0 -0.4 L 720.0 -0.4 L 720.0 124.4 C 402.5 11.3 281.2 16.9 0.0 24.4 Z M 0.0 24.4 " fill="#7A7A7A" fill-opacity="0.45"></path><image xlink:href="../../9EA3EA7E-376A-4B6F-86D4-F7DEFFC5E922/assets/50C0E26D66851E2E73A8BFFB502226A3.png" width="152.00" height="413.00" transform="matrix(1.00, 0.00, -0.00, -1.00, 568.0, 409.0)" opacity="0.45"></image><path d="M 720.0 404.2 L 720.0 0.0 L 591.3 0.2 C 672.9 70.6 732.6 242.8 576.0 405.0 L 720.0 404.2 Z M 720.0 404.2 " fill="#595959" fill-opacity="0.40"></path><text xml:space="preserve" font-family="HelveticaNeue" font-size="46.0" fill="#FFFFFF" transform="matrix(1.00, 0.00, -0.00, -1.00, 40.0, 337.0)">A</text><text xml:space="preserve" font-family="HelveticaNeue" font-size="46.0" fill="#FFFFFF" transform="matrix(1.00, 0.00, -0.00, -1.00, 69.8, 337.0)">n</text><text xml:space="preserve" font-family="HelveticaNeue" font-size="46.0" fill="#FFFFFF" transform="matrix(1.00, 0.00, -0.00, -1.00, 95.4, 337.0)">a</text><text xml:space="preserve" font-family="HelveticaNeue" font-size="46.0" fill="#FFFFFF" transform="matrix(1.00, 0.00, -0.00, -1.00, 120.1, 337.0)">l</text><text xml:space="preserve" font-family="HelveticaNeue" font-size="46.0" fill="#FFFFFF" transform="matrix(1.00, 0.00, -0.00, -1.00, 130.3, 337.0)">y</text><text xml:space="preserve" font-family="HelveticaNeue" font-size="46.0" fill="#FFFFFF" transform="matrix(1.00, 0.00, -0.00, -1.00, 153.3, 337.0)">z</text><text xml:space="preserve" font-family="HelveticaNeue" font-size="46.0" fill="#FFFFFF" transform="matrix(1.00, 0.00, -0.00, -1.00, 175.4, 337.0)">e</text><text xml:space="preserve" font-family="AppleSymbols" font-size="24.0" fill="#6EA0B0" transform="matrix(1.00, 0.00, -0.00, -1.00, 42.5, 285.4)">⦿</text><text xml:space="preserve" font-family="ArialMT" font-size="30.0" fill="#FFFFFF" transform="matrix(1.00, 0.00, -0.00, -1.00, 73.0, 280.0)">U</text><text xml:space="preserve" font-family="ArialMT" font-size="30.0" fill="#FFFFFF" transform="matrix(1.00, 0.00, -0.00, -1.00, 94.7, 280.0)">s</text><text xml:space="preserve" font-family="ArialMT" font-size="30.0" fill="#FFFFFF" transform="matrix(1.00, 0.00, -0.00, -1.00, 109.7, 280.0)">e</text><text xml:space="preserve" font-family="ArialMT" font-size="30.0" fill="#FFFFFF" transform="matrix(1.00, 0.00, -0.00, -1.00, 126.4, 280.0)"> </text><text xml:space="preserve" font-family="ArialMT" font-size="30.0" fill="#FFFFFF" transform="matrix(1.00, 0.00, -0.00, -1.00, 134.7, 280.0)">a</text><text xml:space="preserve" font-family="ArialMT" font-size="30.0" fill="#FFFFFF" transform="matrix(1.00, 0.00, -0.00, -1.00, 151.4, 280.0)"> </text><text xml:space="preserve" font-family="ArialMT" font-size="30.0" fill="#FFFFFF" transform="matrix(1.00, 0.00, -0.00, -1.00, 159.7, 280.0)">v</text><text xml:space="preserve" font-family="ArialMT" font-size="30.0" fill="#FFFFFF" transform="matrix(1.00, 0.00, -0.00, -1.00, 174.7, 280.0)">e</text><text xml:space="preserve" font-family="ArialMT" font-size="30.0" fill="#FFFFFF" transform="matrix(1.00, 0.00, -0.00, -1.00, 191.4, 280.0)">r</text><text xml:space="preserve" font-family="ArialMT" font-size="30.0" fill="#FFFFFF" transform="matrix(1.00, 0.00, -0.00, -1.00, 201.4, 280.0)">s</text><text xml:space="preserve" font-family="ArialMT" font-size="30.0" fill="#FFFFFF" transform="matrix(1.00, 0.00, -0.00, -1.00, 216.4, 280.0)">i</text><text xml:space="preserve" font-family="ArialMT" font-size="30.0" fill="#FFFFFF" transform="matrix(1.00, 0.00, -0.00, -1.00, 223.1, 280.0)">o</text><text xml:space="preserve" font-family="ArialMT" font-size="30.0" fill="#FFFFFF" transform="matrix(1.00, 0.00, -0.00, -1.00, 239.8, 280.0)">n</text><text xml:space="preserve" font-family="ArialMT" font-size="30.0" fill="#FFFFFF" transform="matrix(1.00, 0.00, -0.00, -1.00, 256.4, 280.0)"> </text><text xml:space="preserve" font-family="ArialMT" font-size="30.0" fill="#FFFFFF" transform="matrix(1.00, 0.00, -0.00, -1.00, 264.8, 280.0)">c</text><text xml:space="preserve" font-family="ArialMT" font-size="30.0" fill="#FFFFFF" transform="matrix(1.00, 0.00, -0.00, -1.00, 279.8, 280.0)">o</text><text xml:space="preserve" font-family="ArialMT" font-size="30.0" fill="#FFFFFF" transform="matrix(1.00, 0.00, -0.00, -1.00, 296.5, 280.0)">n</text><text xml:space="preserve" font-family="ArialMT" font-size="30.0" fill="#FFFFFF" transform="matrix(1.00, 0.00, -0.00, -1.00, 313.2, 280.0)">t</text><text xml:space="preserve" font-family="ArialMT" font-size="30.0" fill="#FFFFFF" transform="matrix(1.00, 0.00, -0.00, -1.00, 321.5, 280.0)">r</text><text xml:space="preserve" font-family="ArialMT" font-size="30.0" fill="#FFFFFF" transform="matrix(1.00, 0.00, -0.00, -1.00, 331.5, 280.0)">o</text><text xml:space="preserve" font-family="ArialMT" font-size="30.0" fill="#FFFFFF" transform="matrix(1.00, 0.00, -0.00, -1.00, 348.2, 280.0)">l</text><text xml:space="preserve" font-family="ArialMT" font-size="30.0" fill="#FFFFFF" transform="matrix(1.00, 0.00, -0.00, -1.00, 354.8, 280.0)"> </text><text xml:space="preserve" font-family="ArialMT" font-size="30.0" fill="#FFFFFF" transform="matrix(1.00, 0.00, -0.00, -1.00, 363.2, 280.0)">s</text><text xml:space="preserve" font-family="ArialMT" font-size="30.0" fill="#FFFFFF" transform="matrix(1.00, 0.00, -0.00, -1.00, 378.2, 280.0)">y</text><text xml:space="preserve" font-family="ArialMT" font-size="30.0" fill="#FFFFFF" transform="matrix(1.00, 0.00, -0.00, -1.00, 393.2, 280.0)">s</text><text xml:space="preserve" font-family="ArialMT" font-size="30.0" fill="#FFFFFF" transform="matrix(1.00, 0.00, -0.00, -1.00, 408.2, 280.0)">t</text><text xml:space="preserve" font-family="ArialMT" font-size="30.0" fill="#FFFFFF" transform="matrix(1.00, 0.00, -0.00, -1.00, 416.5, 280.0)">e</text><text xml:space="preserve" font-family="ArialMT" font-size="30.0" fill="#FFFFFF" transform="matrix(1.00, 0.00, -0.00, -1.00, 433.2, 280.0)">m</text><image xlink:href="../../42784275-3452-4368-9D62-89CF5E738AC5/assets/F2BE859CB4000B12A1F4B7579D67DE0F.png" width="128.00" height="57.00" transform="matrix(1.44, 0.00, -0.00, -1.44, 330.0, 235.0)"></image><image xlink:href="../../42784275-3452-4368-9D62-89CF5E738AC5/assets/BEA40D4E02A43E80DFFAE16E4170B6F1.png" width="304.00" height="67.00" transform="matrix(1.00, 0.00, -0.00, -1.01, 167.0, 90.0)"></image><image xlink:href="../../42784275-3452-4368-9D62-89CF5E738AC5/assets/377DBEBD52587A7298B2D05B0EE5A0B4.png" width="121.00" height="146.00" transform="matrix(1.00, 0.00, -0.00, -0.99, 106.0, 258.0)"></image><path d="M 160.0 2.7 C 133.0 6.7 151.4 4.2 85.1 2.7 C 82.0 2.6 78.8 1.9 75.7 1.5 C 65.1 2.3 54.5 2.8 44.0 3.9 C 42.6 4.0 41.3 4.5 40.0 5.1 C 38.3 5.8 36.7 6.5 35.3 7.5 C 28.0 12.4 26.2 13.7 21.8 19.6 C 17.9 24.7 12.5 29.3 10.3 35.3 C 7.8 41.9 4.6 50.1 2.9 57.0 C 2.0 60.8 1.5 64.7 0.9 68.5 C -0.4 88.3 -1.1 89.9 4.2 118.0 C 4.7 120.2 11.1 128.9 13.0 131.3 C 14.2 132.7 18.2 137.9 20.4 139.1 C 35.7 147.7 28.5 143.3 41.3 147.0 C 50.5 149.6 45.7 149.5 55.5 151.2 C 58.8 151.8 62.2 152.0 65.6 152.4 C 78.9 153.9 74.9 153.5 87.8 154.2 C 102.2 153.6 116.7 153.8 131.0 152.4 C 137.4 151.8 143.5 149.4 149.8 148.2 C 156.8 146.8 163.8 146.0 170.7 144.6 C 230.3 132.5 157.0 146.6 209.2 134.9 C 220.3 132.4 231.6 130.4 242.9 128.3 C 247.4 127.4 251.8 126.3 256.4 125.8 C 260.2 125.4 264.0 125.2 267.8 124.6 C 288.1 121.7 267.1 123.6 285.3 122.2 C 287.6 121.8 289.8 121.5 292.1 121.0 C 295.7 120.3 299.2 119.2 302.9 118.6 C 309.0 117.5 303.4 118.6 310.3 116.8 C 318.7 114.5 308.2 117.6 315.0 115.6 C 315.5 114.4 316.0 113.2 316.3 112.0 C 316.9 110.4 317.7 107.1 317.7 107.1 C 318.6 98.7 319.6 91.2 317.7 82.4 C 315.8 73.9 309.6 71.8 306.2 64.3 C 303.5 58.2 306.5 64.1 300.2 55.8 C 299.1 54.5 298.6 52.8 297.5 51.6 C 285.7 39.2 286.9 42.9 278.6 32.9 C 274.5 27.9 266.9 16.9 260.4 11.1 C 259.2 10.0 257.9 8.9 256.4 8.1 C 254.5 7.1 252.3 6.5 250.3 5.7 C 248.9 5.1 247.7 4.3 246.2 3.9 C 243.4 3.1 240.4 2.7 237.5 2.1 C 235.0 1.5 232.6 0.3 230.1 0.2 C 202.9 -0.3 175.7 0.2 148.5 0.2 " fill="none" stroke="#F6DE55" stroke-width="4.00" stroke-linejoin="round" transform="matrix(1.00, 0.00, 0.00, -1.00, 286.6, 264.8)"></path></g></svg>