<?xml version="1.0" encoding="UTF-8" standalone="no"?><svg xmlns="http://www.w3.org/2000/svg" xmlns:xlink="http://www.w3.org/1999/xlink" clip-rule="evenodd" stroke-miterlimit="4.00" viewBox="0 0 558 144"><desc>SVG generated by Keynote</desc><defs></defs><g transform="matrix(1.00, 0.00, -0.00, -1.00, 0.0, 144.0)"><text xml:space="preserve" font-family="AppleSymbols" font-size="24.0" fill="#6EA0B0" transform="matrix(1.00, 0.00, -0.00, -1.00, 0.5, 125.4)">⦿</text><text xml:space="preserve" font-family="ArialMT" font-size="30.0" fill="#FFFFFF" transform="matrix(1.00, 0.00, -0.00, -1.00, 31.0, 120.0)">B</text><text xml:space="preserve" font-family="ArialMT" font-size="30.0" fill="#FFFFFF" transform="matrix(1.00, 0.00, -0.00, -1.00, 51.0, 120.0)">u</text><text xml:space="preserve" font-family="ArialMT" font-size="30.0" fill="#FFFFFF" transform="matrix(1.00, 0.00, -0.00, -1.00, 67.7, 120.0)">t</text><text xml:space="preserve" font-family="ArialMT" font-size="30.0" fill="#FFFFFF" transform="matrix(1.00, 0.00, -0.00, -1.00, 76.0, 120.0)"> </text><text xml:space="preserve" font-family="ArialMT" font-size="30.0" fill="#FFFFFF" transform="matrix(1.00, 0.00, -0.00, -1.00, 84.4, 120.0)">w</text><text xml:space="preserve" font-family="ArialMT" font-size="30.0" fill="#FFFFFF" transform="matrix(1.00, 0.00, -0.00, -1.00, 106.0, 120.0)">a</text><text xml:space="preserve" font-family="ArialMT" font-size="30.0" fill="#FFFFFF" transform="matrix(1.00, 0.00, -0.00, -1.00, 122.7, 120.0)">i</text><text xml:space="preserve" font-family="ArialMT" font-size="30.0" fill="#FFFFFF" transform="matrix(1.00, 0.00, -0.00, -1.00, 129.4, 120.0)">t</text><text xml:space="preserve" font-family="ArialMT" font-size="30.0" fill="#FFFFFF" transform="matrix(1.00, 0.00, -0.00, -1.00, 137.7, 120.0)">,</text><text xml:space="preserve" font-family="ArialMT" font-size="30.0" fill="#FFFFFF" transform="matrix(1.00, 0.00, -0.00, -1.00, 146.0, 120.0)"> </text><text xml:space="preserve" font-family="ArialMT" font-size="30.0" fill="#FFFFFF" transform="matrix(1.00, 0.00, -0.00, -1.00, 154.4, 120.0)">t</text><text xml:space="preserve" font-family="ArialMT" font-size="30.0" fill="#FFFFFF" transform="matrix(1.00, 0.00, -0.00, -1.00, 162.7, 120.0)">h</text><text xml:space="preserve" font-family="ArialMT" font-size="30.0" fill="#FFFFFF" transform="matrix(1.00, 0.00, -0.00, -1.00, 179.4, 120.0)">e</text><text xml:space="preserve" font-family="ArialMT" font-size="30.0" fill="#FFFFFF" transform="matrix(1.00, 0.00, -0.00, -1.00, 196.1, 120.0)">r</text><text xml:space="preserve" font-family="ArialMT" font-size="30.0" fill="#FFFFFF" transform="matrix(1.00, 0.00, -0.00, -1.00, 206.1, 120.0)">e</text><text xml:space="preserve" font-family="ArialMT" font-size="30.0" fill="#FFFFFF" transform="matrix(1.00, 0.00, -0.00, -1.00, 222.8, 120.0)">’</text><text xml:space="preserve" font-family="ArialMT" font-size="30.0" fill="#FFFFFF" transform="matrix(1.00, 0.00, -0.00, -1.00, 228.9, 120.0)">s</text><text xml:space="preserve" font-family="ArialMT" font-size="30.0" fill="#FFFFFF" transform="matrix(1.00, 0.00, -0.00, -1.00, 243.9, 120.0)"> </text><text xml:space="preserve" font-family="ArialMT" font-size="30.0" fill="#FFFFFF" transform="matrix(1.00, 0.00, -0.00, -1.00, 252.2, 120.0)">m</text><text xml:space="preserve" font-family="ArialMT" font-size="30.0" fill="#FFFFFF" transform="matrix(1.00, 0.00, -0.00, -1.00, 277.2, 120.0)">o</text><text xml:space="preserve" font-family="ArialMT" font-size="30.0" fill="#FFFFFF" transform="matrix(1.00, 0.00, -0.00, -1.00, 293.9, 120.0)">r</text><text xml:space="preserve" font-family="ArialMT" font-size="30.0" fill="#FFFFFF" transform="matrix(1.00, 0.00, -0.00, -1.00, 303.9, 120.0)">e</text><text xml:space="preserve" font-family="ArialMT" font-size="30.0" fill="#FFFFFF" transform="matrix(1.00, 0.00, -0.00, -1.00, 320.6, 120.0)">…</text><text xml:space="preserve" font-family="ArialMT" font-size="30.0" fill="#FFFFFF" transform="matrix(1.00, 0.00, -0.00, -1.00, 350.6, 120.0)"> </text><text xml:space="preserve" font-family="LucidaGrande" font-size="23.4" fill="#6EA0B0" transform="matrix(1.00, 0.00, -0.00, -1.00, 32.9, 82.5)">●</text><text xml:space="preserve" font-family="ArialMT" font-size="26.0" fill="#FFFFFF" transform="matrix(1.00, 0.00, -0.00, -1.00, 54.0, 82.0)">V</text><text xml:space="preserve" font-family="ArialMT" font-size="26.0" fill="#FFFFFF" transform="matrix(1.00, 0.00, -0.00, -1.00, 69.4, 82.0)">a</text><text xml:space="preserve" font-family="ArialMT" font-size="26.0" fill="#FFFFFF" transform="matrix(1.00, 0.00, -0.00, -1.00, 83.9, 82.0)">r</text><text xml:space="preserve" font-family="ArialMT" font-size="26.0" fill="#FFFFFF" transform="matrix(1.00, 0.00, -0.00, -1.00, 92.5, 82.0)">i</text><text xml:space="preserve" font-family="ArialMT" font-size="26.0" fill="#FFFFFF" transform="matrix(1.00, 0.00, -0.00, -1.00, 98.3, 82.0)">a</text><text xml:space="preserve" font-family="ArialMT" font-size="26.0" fill="#FFFFFF" transform="matrix(1.00, 0.00, -0.00, -1.00, 112.8, 82.0)">b</text><text xml:space="preserve" font-family="ArialMT" font-size="26.0" fill="#FFFFFF" transform="matrix(1.00, 0.00, -0.00, -1.00, 127.2, 82.0)">i</text><text xml:space="preserve" font-family="ArialMT" font-size="26.0" fill="#FFFFFF" transform="matrix(1.00, 0.00, -0.00, -1.00, 133.0, 82.0)">l</text><text xml:space="preserve" font-family="ArialMT" font-size="26.0" fill="#FFFFFF" transform="matrix(1.00, 0.00, -0.00, -1.00, 138.8, 82.0)">i</text><text xml:space="preserve" font-family="ArialMT" font-size="26.0" fill="#FFFFFF" transform="matrix(1.00, 0.00, -0.00, -1.00, 144.6, 82.0)">t</text><text xml:space="preserve" font-family="ArialMT" font-size="26.0" fill="#FFFFFF" transform="matrix(1.00, 0.00, -0.00, -1.00, 151.8, 82.0)">y</text><text xml:space="preserve" font-family="ArialMT" font-size="26.0" fill="#FFFFFF" transform="matrix(1.00, 0.00, -0.00, -1.00, 164.8, 82.0)"> </text><text xml:space="preserve" font-family="ArialMT" font-size="26.0" fill="#FFFFFF" transform="matrix(1.00, 0.00, -0.00, -1.00, 172.0, 82.0)">–</text><text xml:space="preserve" font-family="ArialMT" font-size="26.0" fill="#FFFFFF" transform="matrix(1.00, 0.00, -0.00, -1.00, 186.5, 82.0)"> </text><text xml:space="preserve" font-family="ArialMT" font-size="26.0" fill="#FFFFFF" transform="matrix(1.00, 0.00, -0.00, -1.00, 193.7, 82.0)">I</text><text xml:space="preserve" font-family="ArialMT" font-size="26.0" fill="#FFFFFF" transform="matrix(1.00, 0.00, -0.00, -1.00, 200.9, 82.0)">n</text><text xml:space="preserve" font-family="ArialMT" font-size="26.0" fill="#FFFFFF" transform="matrix(1.00, 0.00, -0.00, -1.00, 215.4, 82.0)">c</text><text xml:space="preserve" font-family="ArialMT" font-size="26.0" fill="#FFFFFF" transform="matrix(1.00, 0.00, -0.00, -1.00, 228.4, 82.0)">o</text><text xml:space="preserve" font-family="ArialMT" font-size="26.0" fill="#FFFFFF" transform="matrix(1.00, 0.00, -0.00, -1.00, 242.9, 82.0)">n</text><text xml:space="preserve" font-family="ArialMT" font-size="26.0" fill="#FFFFFF" transform="matrix(1.00, 0.00, -0.00, -1.00, 257.3, 82.0)">s</text><text xml:space="preserve" font-family="ArialMT" font-size="26.0" fill="#FFFFFF" transform="matrix(1.00, 0.00, -0.00, -1.00, 270.3, 82.0)">i</text><text xml:space="preserve" font-family="ArialMT" font-size="26.0" fill="#FFFFFF" transform="matrix(1.00, 0.00, -0.00, -1.00, 276.1, 82.0)">s</text><text xml:space="preserve" font-family="ArialMT" font-size="26.0" fill="#FFFFFF" transform="matrix(1.00, 0.00, -0.00, -1.00, 289.1, 82.0)">t</text><text xml:space="preserve" font-family="ArialMT" font-size="26.0" fill="#FFFFFF" transform="matrix(1.00, 0.00, -0.00, -1.00, 296.3, 82.0)">e</text><text xml:space="preserve" font-family="ArialMT" font-size="26.0" fill="#FFFFFF" transform="matrix(1.00, 0.00, -0.00, -1.00, 310.8, 82.0)">n</text><text xml:space="preserve" font-family="ArialMT" font-size="26.0" fill="#FFFFFF" transform="matrix(1.00, 0.00, -0.00, -1.00, 325.3, 82.0)">c</text><text xml:space="preserve" font-family="ArialMT" font-size="26.0" fill="#FFFFFF" transform="matrix(1.00, 0.00, -0.00, -1.00, 338.3, 82.0)">i</text><text xml:space="preserve" font-family="ArialMT" font-size="26.0" fill="#FFFFFF" transform="matrix(1.00, 0.00, -0.00, -1.00, 344.0, 82.0)">e</text><text xml:space="preserve" font-family="ArialMT" font-size="26.0" fill="#FFFFFF" transform="matrix(1.00, 0.00, -0.00, -1.00, 358.5, 82.0)">s</text><text xml:space="preserve" font-family="ArialMT" font-size="26.0" fill="#FFFFFF" transform="matrix(1.00, 0.00, -0.00, -1.00, 371.5, 82.0)"> </text><text xml:space="preserve" font-family="ArialMT" font-size="26.0" fill="#FFFFFF" transform="matrix(1.00, 0.00, -0.00, -1.00, 378.7, 82.0)">i</text><text xml:space="preserve" font-family="ArialMT" font-size="26.0" fill="#FFFFFF" transform="matrix(1.00, 0.00, -0.00, -1.00, 384.5, 82.0)">n</text><text xml:space="preserve" font-family="ArialMT" font-size="26.0" fill="#FFFFFF" transform="matrix(1.00, 0.00, -0.00, -1.00, 399.0, 82.0)"> </text><text xml:space="preserve" font-family="ArialMT" font-size="26.0" fill="#FFFFFF" transform="matrix(1.00, 0.00, -0.00, -1.00, 406.2, 82.0)">t</text><text xml:space="preserve" font-family="ArialMT" font-size="26.0" fill="#FFFFFF" transform="matrix(1.00, 0.00, -0.00, -1.00, 413.4, 82.0)">h</text><text xml:space="preserve" font-family="ArialMT" font-size="26.0" fill="#FFFFFF" transform="matrix(1.00, 0.00, -0.00, -1.00, 427.9, 82.0)">e</text><text xml:space="preserve" font-family="ArialMT" font-size="26.0" fill="#FFFFFF" transform="matrix(1.00, 0.00, -0.00, -1.00, 442.3, 82.0)"> </text><text xml:space="preserve" font-family="ArialMT" font-size="26.0" fill="#FFFFFF" transform="matrix(1.00, 0.00, -0.00, -1.00, 449.6, 82.0)">d</text><text xml:space="preserve" font-family="ArialMT" font-size="26.0" fill="#FFFFFF" transform="matrix(1.00, 0.00, -0.00, -1.00, 464.0, 82.0)">a</text><text xml:space="preserve" font-family="ArialMT" font-size="26.0" fill="#FFFFFF" transform="matrix(1.00, 0.00, -0.00, -1.00, 478.5, 82.0)">t</text><text xml:space="preserve" font-family="ArialMT" font-size="26.0" fill="#FFFFFF" transform="matrix(1.00, 0.00, -0.00, -1.00, 485.7, 82.0)">a</text><text xml:space="preserve" font-family="ArialMT" font-size="26.0" fill="#FFFFFF" transform="matrix(1.00, 0.00, -0.00, -1.00, 500.1, 82.0)"> </text><text xml:space="preserve" font-family="LucidaGrande" font-size="23.4" fill="#6EA0B0" transform="matrix(1.00, 0.00, -0.00, -1.00, 32.9, 45.3)">●</text><text xml:space="preserve" font-family="ArialMT" font-size="26.0" fill="#FFFFFF" transform="matrix(1.00, 0.00, -0.00, -1.00, 54.0, 45.0)">V</text><text xml:space="preserve" font-family="ArialMT" font-size="26.0" fill="#FFFFFF" transform="matrix(1.00, 0.00, -0.00, -1.00, 69.9, 45.0)">e</text><text xml:space="preserve" font-family="ArialMT" font-size="26.0" fill="#FFFFFF" transform="matrix(1.00, 0.00, -0.00, -1.00, 84.4, 45.0)">r</text><text xml:space="preserve" font-family="ArialMT" font-size="26.0" fill="#FFFFFF" transform="matrix(1.00, 0.00, -0.00, -1.00, 93.0, 45.0)">a</text><text xml:space="preserve" font-family="ArialMT" font-size="26.0" fill="#FFFFFF" transform="matrix(1.00, 0.00, -0.00, -1.00, 107.5, 45.0)">c</text><text xml:space="preserve" font-family="ArialMT" font-size="26.0" fill="#FFFFFF" transform="matrix(1.00, 0.00, -0.00, -1.00, 120.5, 45.0)">i</text><text xml:space="preserve" font-family="ArialMT" font-size="26.0" fill="#FFFFFF" transform="matrix(1.00, 0.00, -0.00, -1.00, 126.3, 45.0)">t</text><text xml:space="preserve" font-family="ArialMT" font-size="26.0" fill="#FFFFFF" transform="matrix(1.00, 0.00, -0.00, -1.00, 133.5, 45.0)">y</text><text xml:space="preserve" font-family="ArialMT" font-size="26.0" fill="#FFFFFF" transform="matrix(1.00, 0.00, -0.00, -1.00, 146.5, 45.0)"> </text><text xml:space="preserve" font-family="ArialMT" font-size="26.0" fill="#FFFFFF" transform="matrix(1.00, 0.00, -0.00, -1.00, 153.7, 45.0)">–</text><text xml:space="preserve" font-family="ArialMT" font-size="26.0" fill="#FFFFFF" transform="matrix(1.00, 0.00, -0.00, -1.00, 168.2, 45.0)"> </text><text xml:space="preserve" font-family="ArialMT" font-size="26.0" fill="#FFFFFF" transform="matrix(1.00, 0.00, -0.00, -1.00, 175.4, 45.0)">P</text><text xml:space="preserve" font-family="ArialMT" font-size="26.0" fill="#FFFFFF" transform="matrix(1.00, 0.00, -0.00, -1.00, 192.7, 45.0)">o</text><text xml:space="preserve" font-family="ArialMT" font-size="26.0" fill="#FFFFFF" transform="matrix(1.00, 0.00, -0.00, -1.00, 207.2, 45.0)">o</text><text xml:space="preserve" font-family="ArialMT" font-size="26.0" fill="#FFFFFF" transform="matrix(1.00, 0.00, -0.00, -1.00, 221.7, 45.0)">r</text><text xml:space="preserve" font-family="ArialMT" font-size="26.0" fill="#FFFFFF" transform="matrix(1.00, 0.00, -0.00, -1.00, 230.3, 45.0)"> </text><text xml:space="preserve" font-family="ArialMT" font-size="26.0" fill="#FFFFFF" transform="matrix(1.00, 0.00, -0.00, -1.00, 237.5, 45.0)">d</text><text xml:space="preserve" font-family="ArialMT" font-size="26.0" fill="#FFFFFF" transform="matrix(1.00, 0.00, -0.00, -1.00, 252.0, 45.0)">a</text><text xml:space="preserve" font-family="ArialMT" font-size="26.0" fill="#FFFFFF" transform="matrix(1.00, 0.00, -0.00, -1.00, 266.5, 45.0)">t</text><text xml:space="preserve" font-family="ArialMT" font-size="26.0" fill="#FFFFFF" transform="matrix(1.00, 0.00, -0.00, -1.00, 273.7, 45.0)">a</text><text xml:space="preserve" font-family="ArialMT" font-size="26.0" fill="#FFFFFF" transform="matrix(1.00, 0.00, -0.00, -1.00, 288.2, 45.0)"> </text><text xml:space="preserve" font-family="ArialMT" font-size="26.0" fill="#FFFFFF" transform="matrix(1.00, 0.00, -0.00, -1.00, 295.4, 45.0)">q</text><text xml:space="preserve" font-family="ArialMT" font-size="26.0" fill="#FFFFFF" transform="matrix(1.00, 0.00, -0.00, -1.00, 309.8, 45.0)">u</text><text xml:space="preserve" font-family="ArialMT" font-size="26.0" fill="#FFFFFF" transform="matrix(1.00, 0.00, -0.00, -1.00, 324.3, 45.0)">a</text><text xml:space="preserve" font-family="ArialMT" font-size="26.0" fill="#FFFFFF" transform="matrix(1.00, 0.00, -0.00, -1.00, 338.8, 45.0)">l</text><text xml:space="preserve" font-family="ArialMT" font-size="26.0" fill="#FFFFFF" transform="matrix(1.00, 0.00, -0.00, -1.00, 344.6, 45.0)">i</text><text xml:space="preserve" font-family="ArialMT" font-size="26.0" fill="#FFFFFF" transform="matrix(1.00, 0.00, -0.00, -1.00, 350.3, 45.0)">t</text><text xml:space="preserve" font-family="ArialMT" font-size="26.0" fill="#FFFFFF" transform="matrix(1.00, 0.00, -0.00, -1.00, 357.6, 45.0)">y</text><text xml:space="preserve" font-family="ArialMT" font-size="26.0" fill="#FFFFFF" transform="matrix(1.00, 0.00, -0.00, -1.00, 370.5, 45.0)"> </text><text xml:space="preserve" font-family="LucidaGrande" font-size="23.4" fill="#6EA0B0" transform="matrix(1.00, 0.00, -0.00, -1.00, 32.9, 8.0)">●</text><text xml:space="preserve" font-family="ArialMT" font-size="26.0" fill="#FFFFFF" transform="matrix(1.00, 0.00, -0.00, -1.00, 54.0, 8.0)">C</text><text xml:space="preserve" font-family="ArialMT" font-size="26.0" fill="#FFFFFF" transform="matrix(1.00, 0.00, -0.00, -1.00, 72.8, 8.0)">o</text><text xml:space="preserve" font-family="ArialMT" font-size="26.0" fill="#FFFFFF" transform="matrix(1.00, 0.00, -0.00, -1.00, 87.2, 8.0)">m</text><text xml:space="preserve" font-family="ArialMT" font-size="26.0" fill="#FFFFFF" transform="matrix(1.00, 0.00, -0.00, -1.00, 108.9, 8.0)">p</text><text xml:space="preserve" font-family="ArialMT" font-size="26.0" fill="#FFFFFF" transform="matrix(1.00, 0.00, -0.00, -1.00, 123.4, 8.0)">l</text><text xml:space="preserve" font-family="ArialMT" font-size="26.0" fill="#FFFFFF" transform="matrix(1.00, 0.00, -0.00, -1.00, 129.2, 8.0)">e</text><text xml:space="preserve" font-family="ArialMT" font-size="26.0" fill="#FFFFFF" transform="matrix(1.00, 0.00, -0.00, -1.00, 143.6, 8.0)">x</text><text xml:space="preserve" font-family="ArialMT" font-size="26.0" fill="#FFFFFF" transform="matrix(1.00, 0.00, -0.00, -1.00, 156.6, 8.0)">i</text><text xml:space="preserve" font-family="ArialMT" font-size="26.0" fill="#FFFFFF" transform="matrix(1.00, 0.00, -0.00, -1.00, 162.4, 8.0)">t</text><text xml:space="preserve" font-family="ArialMT" font-size="26.0" fill="#FFFFFF" transform="matrix(1.00, 0.00, -0.00, -1.00, 169.6, 8.0)">y</text><text xml:space="preserve" font-family="ArialMT" font-size="26.0" fill="#FFFFFF" transform="matrix(1.00, 0.00, -0.00, -1.00, 182.6, 8.0)"> </text><text xml:space="preserve" font-family="ArialMT" font-size="26.0" fill="#FFFFFF" transform="matrix(1.00, 0.00, -0.00, -1.00, 189.8, 8.0)">–</text><text xml:space="preserve" font-family="ArialMT" font-size="26.0" fill="#FFFFFF" transform="matrix(1.00, 0.00, -0.00, -1.00, 204.3, 8.0)"> </text><text xml:space="preserve" font-family="ArialMT" font-size="26.0" fill="#FFFFFF" transform="matrix(1.00, 0.00, -0.00, -1.00, 211.5, 8.0)">D</text><text xml:space="preserve" font-family="ArialMT" font-size="26.0" fill="#FFFFFF" transform="matrix(1.00, 0.00, -0.00, -1.00, 230.3, 8.0)">a</text><text xml:space="preserve" font-family="ArialMT" font-size="26.0" fill="#FFFFFF" transform="matrix(1.00, 0.00, -0.00, -1.00, 244.8, 8.0)">t</text><text xml:space="preserve" font-family="ArialMT" font-size="26.0" fill="#FFFFFF" transform="matrix(1.00, 0.00, -0.00, -1.00, 252.0, 8.0)">a</text><text xml:space="preserve" font-family="ArialMT" font-size="26.0" fill="#FFFFFF" transform="matrix(1.00, 0.00, -0.00, -1.00, 266.4, 8.0)"> </text><text xml:space="preserve" font-family="ArialMT" font-size="26.0" fill="#FFFFFF" transform="matrix(1.00, 0.00, -0.00, -1.00, 273.7, 8.0)">m</text><text xml:space="preserve" font-family="ArialMT" font-size="26.0" fill="#FFFFFF" transform="matrix(1.00, 0.00, -0.00, -1.00, 295.3, 8.0)">a</text><text xml:space="preserve" font-family="ArialMT" font-size="26.0" fill="#FFFFFF" transform="matrix(1.00, 0.00, -0.00, -1.00, 309.8, 8.0)">n</text><text xml:space="preserve" font-family="ArialMT" font-size="26.0" fill="#FFFFFF" transform="matrix(1.00, 0.00, -0.00, -1.00, 324.3, 8.0)">a</text><text xml:space="preserve" font-family="ArialMT" font-size="26.0" fill="#FFFFFF" transform="matrix(1.00, 0.00, -0.00, -1.00, 338.7, 8.0)">g</text><text xml:space="preserve" font-family="ArialMT" font-size="26.0" fill="#FFFFFF" transform="matrix(1.00, 0.00, -0.00, -1.00, 353.2, 8.0)">e</text><text xml:space="preserve" font-family="ArialMT" font-size="26.0" fill="#FFFFFF" transform="matrix(1.00, 0.00, -0.00, -1.00, 367.7, 8.0)">m</text><text xml:space="preserve" font-family="ArialMT" font-size="26.0" fill="#FFFFFF" transform="matrix(1.00, 0.00, -0.00, -1.00, 389.3, 8.0)">e</text><text xml:space="preserve" font-family="ArialMT" font-size="26.0" fill="#FFFFFF" transform="matrix(1.00, 0.00, -0.00, -1.00, 403.8, 8.0)">n</text><text xml:space="preserve" font-family="ArialMT" font-size="26.0" fill="#FFFFFF" transform="matrix(1.00, 0.00, -0.00, -1.00, 418.2, 8.0)">t</text><text xml:space="preserve" font-family="ArialMT" font-size="26.0" fill="#FFFFFF" transform="matrix(1.00, 0.00, -0.00, -1.00, 425.5, 8.0)"> </text><text xml:space="preserve" font-family="ArialMT" font-size="26.0" fill="#FFFFFF" transform="matrix(1.00, 0.00, -0.00, -1.00, 432.7, 8.0)">c</text><text xml:space="preserve" font-family="ArialMT" font-size="26.0" fill="#FFFFFF" transform="matrix(1.00, 0.00, -0.00, -1.00, 445.7, 8.0)">h</text><text xml:space="preserve" font-family="ArialMT" font-size="26.0" fill="#FFFFFF" transform="matrix(1.00, 0.00, -0.00, -1.00, 460.1, 8.0)">a</text><text xml:space="preserve" font-family="ArialMT" font-size="26.0" fill="#FFFFFF" transform="matrix(1.00, 0.00, -0.00, -1.00, 474.6, 8.0)">l</text><text xml:space="preserve" font-family="ArialMT" font-size="26.0" fill="#FFFFFF" transform="matrix(1.00, 0.00, -0.00, -1.00, 480.4, 8.0)">l</text><text xml:space="preserve" font-family="ArialMT" font-size="26.0" fill="#FFFFFF" transform="matrix(1.00, 0.00, -0.00, -1.00, 486.2, 8.0)">e</text><text xml:space="preserve" font-family="ArialMT" font-size="26.0" fill="#FFFFFF" transform="matrix(1.00, 0.00, -0.00, -1.00, 500.6, 8.0)">n</text><text xml:space="preserve" font-family="ArialMT" font-size="26.0" fill="#FFFFFF" transform="matrix(1.00, 0.00, -0.00, -1.00, 515.1, 8.0)">g</text><text xml:space="preserve" font-family="ArialMT" font-size="26.0" fill="#FFFFFF" transform="matrix(1.00, 0.00, -0.00, -1.00, 529.6, 8.0)">e</text><text xml:space="preserve" font-family="ArialMT" font-size="26.0" fill="#FFFFFF" transform="matrix(1.00, 0.00, -0.00, -1.00, 544.0, 8.0)">s</text></g></svg>