<?xml version="1.0" encoding="UTF-8" standalone="no"?><svg xmlns="http://www.w3.org/2000/svg" xmlns:xlink="http://www.w3.org/1999/xlink" clip-rule="evenodd" stroke-miterlimit="4.00" viewBox="0 0 720 405"><desc>SVG generated by Keynote</desc><defs></defs><g transform="matrix(1.00, 0.00, -0.00, -1.00, 0.0, 405.0)"><path d="M 0.0 405.0 L 720.0 405.0 L 720.0 0.0 L 0.0 0.0 Z M 0.0 405.0 " fill="#3B3B3B"></path><image xlink:href="../../9EA3EA7E-376A-4B6F-86D4-F7DEFFC5E922/assets/9642FC9EA6ADF033B4D25C2A4D99E1C3.png" width="728.00" height="133.00" transform="matrix(1.00, 0.00, -0.00, -1.00, -4.0, 131.9)" opacity="0.35"></image><path d="M 0.0 24.4 L 0.0 -0.4 L 720.0 -0.4 L 720.0 124.4 C 402.5 11.3 281.2 16.9 0.0 24.4 Z M 0.0 24.4 " fill="#7A7A7A" fill-opacity="0.45"></path><image xlink:href="../../9EA3EA7E-376A-4B6F-86D4-F7DEFFC5E922/assets/50C0E26D66851E2E73A8BFFB502226A3.png" width="152.00" height="413.00" transform="matrix(1.00, 0.00, -0.00, -1.00, 568.0, 409.0)" opacity="0.45"></image><path d="M 720.0 404.2 L 720.0 0.0 L 591.3 0.2 C 672.9 70.6 732.6 242.8 576.0 405.0 L 720.0 404.2 Z M 720.0 404.2 " fill="#595959" fill-opacity="0.40"></path><text xml:space="preserve" font-family="HelveticaNeue" font-size="46.0" fill="#FFFFFF" transform="matrix(1.00, 0.00, -0.00, -1.00, 40.0, 337.0)">W</text><text xml:space="preserve" font-family="HelveticaNeue" font-size="46.0" fill="#FFFFFF" transform="matrix(1.00, 0.00, -0.00, -1.00, 82.6, 337.0)">h</text><text xml:space="preserve" font-family="HelveticaNeue" font-size="46.0" fill="#FFFFFF" transform="matrix(1.00, 0.00, -0.00, -1.00, 108.2, 337.0)">a</text><text xml:space="preserve" font-family="HelveticaNeue" font-size="46.0" fill="#FFFFFF" transform="matrix(1.00, 0.00, -0.00, -1.00, 132.9, 337.0)">t</text><text xml:space="preserve" font-family="HelveticaNeue" font-size="46.0" fill="#FFFFFF" transform="matrix(1.00, 0.00, -0.00, -1.00, 147.4, 337.0)">’</text><text xml:space="preserve" font-family="HelveticaNeue" font-size="46.0" fill="#FFFFFF" transform="matrix(1.00, 0.00, -0.00, -1.00, 156.7, 337.0)">s</text><text xml:space="preserve" font-family="HelveticaNeue" font-size="46.0" fill="#FFFFFF" transform="matrix(1.00, 0.00, -0.00, -1.00, 179.7, 337.0)"> </text><text xml:space="preserve" font-family="HelveticaNeue" font-size="46.0" fill="#FFFFFF" transform="matrix(1.00, 0.00, -0.00, -1.00, 192.5, 337.0)">c</text><text xml:space="preserve" font-family="HelveticaNeue" font-size="46.0" fill="#FFFFFF" transform="matrix(1.00, 0.00, -0.00, -1.00, 217.2, 337.0)">o</text><text xml:space="preserve" font-family="HelveticaNeue" font-size="46.0" fill="#FFFFFF" transform="matrix(1.00, 0.00, -0.00, -1.00, 243.6, 337.0)">n</text><text xml:space="preserve" font-family="HelveticaNeue" font-size="46.0" fill="#FFFFFF" transform="matrix(1.00, 0.00, -0.00, -1.00, 269.2, 337.0)">t</text><text xml:space="preserve" font-family="HelveticaNeue" font-size="46.0" fill="#FFFFFF" transform="matrix(1.00, 0.00, -0.00, -1.00, 283.7, 337.0)">r</text><text xml:space="preserve" font-family="HelveticaNeue" font-size="46.0" fill="#FFFFFF" transform="matrix(1.00, 0.00, -0.00, -1.00, 299.0, 337.0)">i</text><text xml:space="preserve" font-family="HelveticaNeue" font-size="46.0" fill="#FFFFFF" transform="matrix(1.00, 0.00, -0.00, -1.00, 309.2, 337.0)">b</text><text xml:space="preserve" font-family="HelveticaNeue" font-size="46.0" fill="#FFFFFF" transform="matrix(1.00, 0.00, -0.00, -1.00, 336.5, 337.0)">u</text><text xml:space="preserve" font-family="HelveticaNeue" font-size="46.0" fill="#FFFFFF" transform="matrix(1.00, 0.00, -0.00, -1.00, 362.1, 337.0)">t</text><text xml:space="preserve" font-family="HelveticaNeue" font-size="46.0" fill="#FFFFFF" transform="matrix(1.00, 0.00, -0.00, -1.00, 376.6, 337.0)">i</text><text xml:space="preserve" font-family="HelveticaNeue" font-size="46.0" fill="#FFFFFF" transform="matrix(1.00, 0.00, -0.00, -1.00, 386.8, 337.0)">n</text><text xml:space="preserve" font-family="HelveticaNeue" font-size="46.0" fill="#FFFFFF" transform="matrix(1.00, 0.00, -0.00, -1.00, 412.4, 337.0)">g</text><text xml:space="preserve" font-family="HelveticaNeue" font-size="46.0" fill="#FFFFFF" transform="matrix(1.00, 0.00, -0.00, -1.00, 438.8, 337.0)"> </text><text xml:space="preserve" font-family="HelveticaNeue" font-size="46.0" fill="#FFFFFF" transform="matrix(1.00, 0.00, -0.00, -1.00, 451.6, 337.0)">t</text><text xml:space="preserve" font-family="HelveticaNeue" font-size="46.0" fill="#FFFFFF" transform="matrix(1.00, 0.00, -0.00, -1.00, 466.1, 337.0)">o</text><text xml:space="preserve" font-family="HelveticaNeue" font-size="46.0" fill="#FFFFFF" transform="matrix(1.00, 0.00, -0.00, -1.00, 492.5, 337.0)"> </text><text xml:space="preserve" font-family="HelveticaNeue" font-size="46.0" fill="#FFFFFF" transform="matrix(1.00, 0.00, -0.00, -1.00, 505.2, 337.0)">t</text><text xml:space="preserve" font-family="HelveticaNeue" font-size="46.0" fill="#FFFFFF" transform="matrix(1.00, 0.00, -0.00, -1.00, 519.7, 337.0)">h</text><text xml:space="preserve" font-family="HelveticaNeue" font-size="46.0" fill="#FFFFFF" transform="matrix(1.00, 0.00, -0.00, -1.00, 545.3, 337.0)">i</text><text xml:space="preserve" font-family="HelveticaNeue" font-size="46.0" fill="#FFFFFF" transform="matrix(1.00, 0.00, -0.00, -1.00, 555.5, 337.0)">s</text><text xml:space="preserve" font-family="HelveticaNeue" font-size="46.0" fill="#FFFFFF" transform="matrix(1.00, 0.00, -0.00, -1.00, 578.5, 337.0)">?</text><text xml:space="preserve" font-family="AppleSymbols" font-size="24.0" fill="#6EA0B0" transform="matrix(1.00, 0.00, -0.00, -1.00, 42.5, 285.4)">⦿</text><text xml:space="preserve" font-family="ArialMT" font-size="30.0" fill="#FFFFFF" transform="matrix(1.00, 0.00, -0.00, -1.00, 73.0, 280.0)">P</text><text xml:space="preserve" font-family="ArialMT" font-size="30.0" fill="#FFFFFF" transform="matrix(1.00, 0.00, -0.00, -1.00, 93.0, 280.0)">o</text><text xml:space="preserve" font-family="ArialMT" font-size="30.0" fill="#FFFFFF" transform="matrix(1.00, 0.00, -0.00, -1.00, 109.7, 280.0)">o</text><text xml:space="preserve" font-family="ArialMT" font-size="30.0" fill="#FFFFFF" transform="matrix(1.00, 0.00, -0.00, -1.00, 126.4, 280.0)">r</text><text xml:space="preserve" font-family="ArialMT" font-size="30.0" fill="#FFFFFF" transform="matrix(1.00, 0.00, -0.00, -1.00, 136.4, 280.0)"> </text><text xml:space="preserve" font-family="ArialMT" font-size="30.0" fill="#FFFFFF" transform="matrix(1.00, 0.00, -0.00, -1.00, 144.7, 280.0)">d</text><text xml:space="preserve" font-family="ArialMT" font-size="30.0" fill="#FFFFFF" transform="matrix(1.00, 0.00, -0.00, -1.00, 161.4, 280.0)">a</text><text xml:space="preserve" font-family="ArialMT" font-size="30.0" fill="#FFFFFF" transform="matrix(1.00, 0.00, -0.00, -1.00, 178.1, 280.0)">t</text><text xml:space="preserve" font-family="ArialMT" font-size="30.0" fill="#FFFFFF" transform="matrix(1.00, 0.00, -0.00, -1.00, 186.4, 280.0)">a</text><text xml:space="preserve" font-family="ArialMT" font-size="30.0" fill="#FFFFFF" transform="matrix(1.00, 0.00, -0.00, -1.00, 203.1, 280.0)"> </text><text xml:space="preserve" font-family="ArialMT" font-size="30.0" fill="#FFFFFF" transform="matrix(1.00, 0.00, -0.00, -1.00, 211.4, 280.0)">m</text><text xml:space="preserve" font-family="ArialMT" font-size="30.0" fill="#FFFFFF" transform="matrix(1.00, 0.00, -0.00, -1.00, 236.4, 280.0)">a</text><text xml:space="preserve" font-family="ArialMT" font-size="30.0" fill="#FFFFFF" transform="matrix(1.00, 0.00, -0.00, -1.00, 253.1, 280.0)">n</text><text xml:space="preserve" font-family="ArialMT" font-size="30.0" fill="#FFFFFF" transform="matrix(1.00, 0.00, -0.00, -1.00, 269.8, 280.0)">a</text><text xml:space="preserve" font-family="ArialMT" font-size="30.0" fill="#FFFFFF" transform="matrix(1.00, 0.00, -0.00, -1.00, 286.5, 280.0)">g</text><text xml:space="preserve" font-family="ArialMT" font-size="30.0" fill="#FFFFFF" transform="matrix(1.00, 0.00, -0.00, -1.00, 303.2, 280.0)">e</text><text xml:space="preserve" font-family="ArialMT" font-size="30.0" fill="#FFFFFF" transform="matrix(1.00, 0.00, -0.00, -1.00, 319.9, 280.0)">m</text><text xml:space="preserve" font-family="ArialMT" font-size="30.0" fill="#FFFFFF" transform="matrix(1.00, 0.00, -0.00, -1.00, 344.9, 280.0)">e</text><text xml:space="preserve" font-family="ArialMT" font-size="30.0" fill="#FFFFFF" transform="matrix(1.00, 0.00, -0.00, -1.00, 361.6, 280.0)">n</text><text xml:space="preserve" font-family="ArialMT" font-size="30.0" fill="#FFFFFF" transform="matrix(1.00, 0.00, -0.00, -1.00, 378.3, 280.0)">t</text><text xml:space="preserve" font-family="ArialMT" font-size="30.0" fill="#FFFFFF" transform="matrix(1.00, 0.00, -0.00, -1.00, 386.6, 280.0)"> </text><text xml:space="preserve" font-family="AppleSymbols" font-size="24.0" fill="#6EA0B0" transform="matrix(1.00, 0.00, -0.00, -1.00, 42.5, 244.2)">⦿</text><text xml:space="preserve" font-family="ArialMT" font-size="30.0" fill="#FFFFFF" transform="matrix(1.00, 0.00, -0.00, -1.00, 73.0, 239.0)">L</text><text xml:space="preserve" font-family="ArialMT" font-size="30.0" fill="#FFFFFF" transform="matrix(1.00, 0.00, -0.00, -1.00, 89.7, 239.0)">a</text><text xml:space="preserve" font-family="ArialMT" font-size="30.0" fill="#FFFFFF" transform="matrix(1.00, 0.00, -0.00, -1.00, 106.4, 239.0)">c</text><text xml:space="preserve" font-family="ArialMT" font-size="30.0" fill="#FFFFFF" transform="matrix(1.00, 0.00, -0.00, -1.00, 121.4, 239.0)">k</text><text xml:space="preserve" font-family="ArialMT" font-size="30.0" fill="#FFFFFF" transform="matrix(1.00, 0.00, -0.00, -1.00, 136.4, 239.0)"> </text><text xml:space="preserve" font-family="ArialMT" font-size="30.0" fill="#FFFFFF" transform="matrix(1.00, 0.00, -0.00, -1.00, 144.7, 239.0)">o</text><text xml:space="preserve" font-family="ArialMT" font-size="30.0" fill="#FFFFFF" transform="matrix(1.00, 0.00, -0.00, -1.00, 161.4, 239.0)">f</text><text xml:space="preserve" font-family="ArialMT" font-size="30.0" fill="#FFFFFF" transform="matrix(1.00, 0.00, -0.00, -1.00, 169.7, 239.0)"> </text><text xml:space="preserve" font-family="ArialMT" font-size="30.0" fill="#FFFFFF" transform="matrix(1.00, 0.00, -0.00, -1.00, 178.1, 239.0)">v</text><text xml:space="preserve" font-family="ArialMT" font-size="30.0" fill="#FFFFFF" transform="matrix(1.00, 0.00, -0.00, -1.00, 193.1, 239.0)">a</text><text xml:space="preserve" font-family="ArialMT" font-size="30.0" fill="#FFFFFF" transform="matrix(1.00, 0.00, -0.00, -1.00, 209.7, 239.0)">l</text><text xml:space="preserve" font-family="ArialMT" font-size="30.0" fill="#FFFFFF" transform="matrix(1.00, 0.00, -0.00, -1.00, 216.4, 239.0)">i</text><text xml:space="preserve" font-family="ArialMT" font-size="30.0" fill="#FFFFFF" transform="matrix(1.00, 0.00, -0.00, -1.00, 223.1, 239.0)">d</text><text xml:space="preserve" font-family="ArialMT" font-size="30.0" fill="#FFFFFF" transform="matrix(1.00, 0.00, -0.00, -1.00, 239.8, 239.0)">a</text><text xml:space="preserve" font-family="ArialMT" font-size="30.0" fill="#FFFFFF" transform="matrix(1.00, 0.00, -0.00, -1.00, 256.5, 239.0)">t</text><text xml:space="preserve" font-family="ArialMT" font-size="30.0" fill="#FFFFFF" transform="matrix(1.00, 0.00, -0.00, -1.00, 264.8, 239.0)">i</text><text xml:space="preserve" font-family="ArialMT" font-size="30.0" fill="#FFFFFF" transform="matrix(1.00, 0.00, -0.00, -1.00, 271.5, 239.0)">o</text><text xml:space="preserve" font-family="ArialMT" font-size="30.0" fill="#FFFFFF" transform="matrix(1.00, 0.00, -0.00, -1.00, 288.2, 239.0)">n</text><text xml:space="preserve" font-family="ArialMT" font-size="30.0" fill="#FFFFFF" transform="matrix(1.00, 0.00, -0.00, -1.00, 304.9, 239.0)"> </text><text xml:space="preserve" font-family="ArialMT" font-size="30.0" fill="#FFFFFF" transform="matrix(1.00, 0.00, -0.00, -1.00, 313.2, 239.0)">e</text><text xml:space="preserve" font-family="ArialMT" font-size="30.0" fill="#FFFFFF" transform="matrix(1.00, 0.00, -0.00, -1.00, 329.9, 239.0)">x</text><text xml:space="preserve" font-family="ArialMT" font-size="30.0" fill="#FFFFFF" transform="matrix(1.00, 0.00, -0.00, -1.00, 344.9, 239.0)">p</text><text xml:space="preserve" font-family="ArialMT" font-size="30.0" fill="#FFFFFF" transform="matrix(1.00, 0.00, -0.00, -1.00, 361.6, 239.0)">e</text><text xml:space="preserve" font-family="ArialMT" font-size="30.0" fill="#FFFFFF" transform="matrix(1.00, 0.00, -0.00, -1.00, 378.3, 239.0)">r</text><text xml:space="preserve" font-family="ArialMT" font-size="30.0" fill="#FFFFFF" transform="matrix(1.00, 0.00, -0.00, -1.00, 388.2, 239.0)">i</text><text xml:space="preserve" font-family="ArialMT" font-size="30.0" fill="#FFFFFF" transform="matrix(1.00, 0.00, -0.00, -1.00, 394.9, 239.0)">m</text><text xml:space="preserve" font-family="ArialMT" font-size="30.0" fill="#FFFFFF" transform="matrix(1.00, 0.00, -0.00, -1.00, 419.9, 239.0)">e</text><text xml:space="preserve" font-family="ArialMT" font-size="30.0" fill="#FFFFFF" transform="matrix(1.00, 0.00, -0.00, -1.00, 436.6, 239.0)">n</text><text xml:space="preserve" font-family="ArialMT" font-size="30.0" fill="#FFFFFF" transform="matrix(1.00, 0.00, -0.00, -1.00, 453.3, 239.0)">t</text><text xml:space="preserve" font-family="ArialMT" font-size="30.0" fill="#FFFFFF" transform="matrix(1.00, 0.00, -0.00, -1.00, 461.6, 239.0)">s</text><text xml:space="preserve" font-family="ArialMT" font-size="30.0" fill="#FFFFFF" transform="matrix(1.00, 0.00, -0.00, -1.00, 476.6, 239.0)"> </text><text xml:space="preserve" font-family="AppleSymbols" font-size="24.0" fill="#6EA0B0" transform="matrix(1.00, 0.00, -0.00, -1.00, 42.5, 203.0)">⦿</text><text xml:space="preserve" font-family="ArialMT" font-size="30.0" fill="#FFFFFF" transform="matrix(1.00, 0.00, -0.00, -1.00, 73.0, 198.0)">G</text><text xml:space="preserve" font-family="ArialMT" font-size="30.0" fill="#FFFFFF" transform="matrix(1.00, 0.00, -0.00, -1.00, 96.3, 198.0)">o</text><text xml:space="preserve" font-family="ArialMT" font-size="30.0" fill="#FFFFFF" transform="matrix(1.00, 0.00, -0.00, -1.00, 113.0, 198.0)">o</text><text xml:space="preserve" font-family="ArialMT" font-size="30.0" fill="#FFFFFF" transform="matrix(1.00, 0.00, -0.00, -1.00, 129.7, 198.0)">d</text><text xml:space="preserve" font-family="ArialMT" font-size="30.0" fill="#FFFFFF" transform="matrix(1.00, 0.00, -0.00, -1.00, 146.4, 198.0)"> </text><text xml:space="preserve" font-family="ArialMT" font-size="30.0" fill="#FFFFFF" transform="matrix(1.00, 0.00, -0.00, -1.00, 154.7, 198.0)">l</text><text xml:space="preserve" font-family="ArialMT" font-size="30.0" fill="#FFFFFF" transform="matrix(1.00, 0.00, -0.00, -1.00, 161.4, 198.0)">u</text><text xml:space="preserve" font-family="ArialMT" font-size="30.0" fill="#FFFFFF" transform="matrix(1.00, 0.00, -0.00, -1.00, 178.1, 198.0)">c</text><text xml:space="preserve" font-family="ArialMT" font-size="30.0" fill="#FFFFFF" transform="matrix(1.00, 0.00, -0.00, -1.00, 193.1, 198.0)">k</text><text xml:space="preserve" font-family="ArialMT" font-size="30.0" fill="#FFFFFF" transform="matrix(1.00, 0.00, -0.00, -1.00, 208.1, 198.0)">,</text><text xml:space="preserve" font-family="ArialMT" font-size="30.0" fill="#FFFFFF" transform="matrix(1.00, 0.00, -0.00, -1.00, 216.4, 198.0)"> </text><text xml:space="preserve" font-family="ArialMT" font-size="30.0" fill="#FFFFFF" transform="matrix(1.00, 0.00, -0.00, -1.00, 224.7, 198.0)">p</text><text xml:space="preserve" font-family="ArialMT" font-size="30.0" fill="#FFFFFF" transform="matrix(1.00, 0.00, -0.00, -1.00, 241.4, 198.0)">o</text><text xml:space="preserve" font-family="ArialMT" font-size="30.0" fill="#FFFFFF" transform="matrix(1.00, 0.00, -0.00, -1.00, 258.1, 198.0)">o</text><text xml:space="preserve" font-family="ArialMT" font-size="30.0" fill="#FFFFFF" transform="matrix(1.00, 0.00, -0.00, -1.00, 274.8, 198.0)">r</text><text xml:space="preserve" font-family="ArialMT" font-size="30.0" fill="#FFFFFF" transform="matrix(1.00, 0.00, -0.00, -1.00, 284.8, 198.0)"> </text><text xml:space="preserve" font-family="ArialMT" font-size="30.0" fill="#FFFFFF" transform="matrix(1.00, 0.00, -0.00, -1.00, 293.1, 198.0)">f</text><text xml:space="preserve" font-family="ArialMT" font-size="30.0" fill="#FFFFFF" transform="matrix(1.00, 0.00, -0.00, -1.00, 301.5, 198.0)">o</text><text xml:space="preserve" font-family="ArialMT" font-size="30.0" fill="#FFFFFF" transform="matrix(1.00, 0.00, -0.00, -1.00, 318.2, 198.0)">l</text><text xml:space="preserve" font-family="ArialMT" font-size="30.0" fill="#FFFFFF" transform="matrix(1.00, 0.00, -0.00, -1.00, 324.8, 198.0)">l</text><text xml:space="preserve" font-family="ArialMT" font-size="30.0" fill="#FFFFFF" transform="matrix(1.00, 0.00, -0.00, -1.00, 331.5, 198.0)">o</text><text xml:space="preserve" font-family="ArialMT" font-size="30.0" fill="#FFFFFF" transform="matrix(1.00, 0.00, -0.00, -1.00, 348.2, 198.0)">w</text><text xml:space="preserve" font-family="ArialMT" font-size="30.0" fill="#FFFFFF" transform="matrix(1.00, 0.00, -0.00, -1.00, 369.9, 198.0)">-</text><text xml:space="preserve" font-family="ArialMT" font-size="30.0" fill="#FFFFFF" transform="matrix(1.00, 0.00, -0.00, -1.00, 379.9, 198.0)">u</text><text xml:space="preserve" font-family="ArialMT" font-size="30.0" fill="#FFFFFF" transform="matrix(1.00, 0.00, -0.00, -1.00, 396.5, 198.0)">p</text><text xml:space="preserve" font-family="ArialMT" font-size="30.0" fill="#FFFFFF" transform="matrix(1.00, 0.00, -0.00, -1.00, 413.2, 198.0)"> </text><text xml:space="preserve" font-family="AppleSymbols" font-size="24.0" fill="#6EA0B0" transform="matrix(1.00, 0.00, -0.00, -1.00, 42.5, 161.8)">⦿</text><text xml:space="preserve" font-family="ArialMT" font-size="30.0" fill="#FFFFFF" transform="matrix(1.00, 0.00, -0.00, -1.00, 73.0, 157.0)">I</text><text xml:space="preserve" font-family="ArialMT" font-size="30.0" fill="#FFFFFF" transform="matrix(1.00, 0.00, -0.00, -1.00, 81.3, 157.0)">n</text><text xml:space="preserve" font-family="ArialMT" font-size="30.0" fill="#FFFFFF" transform="matrix(1.00, 0.00, -0.00, -1.00, 98.0, 157.0)">s</text><text xml:space="preserve" font-family="ArialMT" font-size="30.0" fill="#FFFFFF" transform="matrix(1.00, 0.00, -0.00, -1.00, 113.0, 157.0)">u</text><text xml:space="preserve" font-family="ArialMT" font-size="30.0" fill="#FFFFFF" transform="matrix(1.00, 0.00, -0.00, -1.00, 129.7, 157.0)">l</text><text xml:space="preserve" font-family="ArialMT" font-size="30.0" fill="#FFFFFF" transform="matrix(1.00, 0.00, -0.00, -1.00, 136.4, 157.0)">a</text><text xml:space="preserve" font-family="ArialMT" font-size="30.0" fill="#FFFFFF" transform="matrix(1.00, 0.00, -0.00, -1.00, 153.1, 157.0)">r</text><text xml:space="preserve" font-family="ArialMT" font-size="30.0" fill="#FFFFFF" transform="matrix(1.00, 0.00, -0.00, -1.00, 163.1, 157.0)">i</text><text xml:space="preserve" font-family="ArialMT" font-size="30.0" fill="#FFFFFF" transform="matrix(1.00, 0.00, -0.00, -1.00, 169.7, 157.0)">t</text><text xml:space="preserve" font-family="ArialMT" font-size="30.0" fill="#FFFFFF" transform="matrix(1.00, 0.00, -0.00, -1.00, 178.1, 157.0)">y</text><text xml:space="preserve" font-family="ArialMT" font-size="30.0" fill="#FFFFFF" transform="matrix(1.00, 0.00, -0.00, -1.00, 193.1, 157.0)"> </text><text xml:space="preserve" font-family="ArialMT" font-size="30.0" fill="#FFFFFF" transform="matrix(1.00, 0.00, -0.00, -1.00, 201.4, 157.0)">i</text><text xml:space="preserve" font-family="ArialMT" font-size="30.0" fill="#FFFFFF" transform="matrix(1.00, 0.00, -0.00, -1.00, 208.1, 157.0)">n</text><text xml:space="preserve" font-family="ArialMT" font-size="30.0" fill="#FFFFFF" transform="matrix(1.00, 0.00, -0.00, -1.00, 224.8, 157.0)"> </text><text xml:space="preserve" font-family="ArialMT" font-size="30.0" fill="#FFFFFF" transform="matrix(1.00, 0.00, -0.00, -1.00, 233.1, 157.0)">t</text><text xml:space="preserve" font-family="ArialMT" font-size="30.0" fill="#FFFFFF" transform="matrix(1.00, 0.00, -0.00, -1.00, 241.4, 157.0)">h</text><text xml:space="preserve" font-family="ArialMT" font-size="30.0" fill="#FFFFFF" transform="matrix(1.00, 0.00, -0.00, -1.00, 258.1, 157.0)">e</text><text xml:space="preserve" font-family="ArialMT" font-size="30.0" fill="#FFFFFF" transform="matrix(1.00, 0.00, -0.00, -1.00, 274.8, 157.0)"> </text><text xml:space="preserve" font-family="ArialMT" font-size="30.0" fill="#FFFFFF" transform="matrix(1.00, 0.00, -0.00, -1.00, 283.1, 157.0)">i</text><text xml:space="preserve" font-family="ArialMT" font-size="30.0" fill="#FFFFFF" transform="matrix(1.00, 0.00, -0.00, -1.00, 289.8, 157.0)">v</text><text xml:space="preserve" font-family="ArialMT" font-size="30.0" fill="#FFFFFF" transform="matrix(1.00, 0.00, -0.00, -1.00, 304.8, 157.0)">o</text><text xml:space="preserve" font-family="ArialMT" font-size="30.0" fill="#FFFFFF" transform="matrix(1.00, 0.00, -0.00, -1.00, 321.5, 157.0)">r</text><text xml:space="preserve" font-family="ArialMT" font-size="30.0" fill="#FFFFFF" transform="matrix(1.00, 0.00, -0.00, -1.00, 331.5, 157.0)">y</text><text xml:space="preserve" font-family="ArialMT" font-size="30.0" fill="#FFFFFF" transform="matrix(1.00, 0.00, -0.00, -1.00, 346.5, 157.0)"> </text><text xml:space="preserve" font-family="ArialMT" font-size="30.0" fill="#FFFFFF" transform="matrix(1.00, 0.00, -0.00, -1.00, 354.8, 157.0)">t</text><text xml:space="preserve" font-family="ArialMT" font-size="30.0" fill="#FFFFFF" transform="matrix(1.00, 0.00, -0.00, -1.00, 363.1, 157.0)">o</text><text xml:space="preserve" font-family="ArialMT" font-size="30.0" fill="#FFFFFF" transform="matrix(1.00, 0.00, -0.00, -1.00, 379.8, 157.0)">w</text><text xml:space="preserve" font-family="ArialMT" font-size="30.0" fill="#FFFFFF" transform="matrix(1.00, 0.00, -0.00, -1.00, 401.5, 157.0)">e</text><text xml:space="preserve" font-family="ArialMT" font-size="30.0" fill="#FFFFFF" transform="matrix(1.00, 0.00, -0.00, -1.00, 418.2, 157.0)">r</text><text xml:space="preserve" font-family="ArialMT" font-size="30.0" fill="#FFFFFF" transform="matrix(1.00, 0.00, -0.00, -1.00, 428.2, 157.0)"> </text><text xml:space="preserve" font-family="AppleSymbols" font-size="24.0" fill="#6EA0B0" transform="matrix(1.00, 0.00, -0.00, -1.00, 42.5, 120.6)">⦿</text><text xml:space="preserve" font-family="ArialMT" font-size="30.0" fill="#FFFFFF" transform="matrix(1.00, 0.00, -0.00, -1.00, 73.0, 115.0)">P</text><text xml:space="preserve" font-family="ArialMT" font-size="30.0" fill="#FFFFFF" transform="matrix(1.00, 0.00, -0.00, -1.00, 93.0, 115.0)">o</text><text xml:space="preserve" font-family="ArialMT" font-size="30.0" fill="#FFFFFF" transform="matrix(1.00, 0.00, -0.00, -1.00, 109.7, 115.0)">o</text><text xml:space="preserve" font-family="ArialMT" font-size="30.0" fill="#FFFFFF" transform="matrix(1.00, 0.00, -0.00, -1.00, 126.4, 115.0)">r</text><text xml:space="preserve" font-family="ArialMT" font-size="30.0" fill="#FFFFFF" transform="matrix(1.00, 0.00, -0.00, -1.00, 136.4, 115.0)"> </text><text xml:space="preserve" font-family="ArialMT" font-size="30.0" fill="#FFFFFF" transform="matrix(1.00, 0.00, -0.00, -1.00, 144.7, 115.0)">i</text><text xml:space="preserve" font-family="ArialMT" font-size="30.0" fill="#FFFFFF" transform="matrix(1.00, 0.00, -0.00, -1.00, 151.4, 115.0)">n</text><text xml:space="preserve" font-family="ArialMT" font-size="30.0" fill="#FFFFFF" transform="matrix(1.00, 0.00, -0.00, -1.00, 168.1, 115.0)">c</text><text xml:space="preserve" font-family="ArialMT" font-size="30.0" fill="#FFFFFF" transform="matrix(1.00, 0.00, -0.00, -1.00, 183.1, 115.0)">e</text><text xml:space="preserve" font-family="ArialMT" font-size="30.0" fill="#FFFFFF" transform="matrix(1.00, 0.00, -0.00, -1.00, 199.8, 115.0)">n</text><text xml:space="preserve" font-family="ArialMT" font-size="30.0" fill="#FFFFFF" transform="matrix(1.00, 0.00, -0.00, -1.00, 216.5, 115.0)">t</text><text xml:space="preserve" font-family="ArialMT" font-size="30.0" fill="#FFFFFF" transform="matrix(1.00, 0.00, -0.00, -1.00, 224.8, 115.0)">i</text><text xml:space="preserve" font-family="ArialMT" font-size="30.0" fill="#FFFFFF" transform="matrix(1.00, 0.00, -0.00, -1.00, 231.5, 115.0)">v</text><text xml:space="preserve" font-family="ArialMT" font-size="30.0" fill="#FFFFFF" transform="matrix(1.00, 0.00, -0.00, -1.00, 246.5, 115.0)">e</text><text xml:space="preserve" font-family="ArialMT" font-size="30.0" fill="#FFFFFF" transform="matrix(1.00, 0.00, -0.00, -1.00, 263.1, 115.0)"> </text><text xml:space="preserve" font-family="ArialMT" font-size="30.0" fill="#FFFFFF" transform="matrix(1.00, 0.00, -0.00, -1.00, 271.5, 115.0)">s</text><text xml:space="preserve" font-family="ArialMT" font-size="30.0" fill="#FFFFFF" transform="matrix(1.00, 0.00, -0.00, -1.00, 286.5, 115.0)">y</text><text xml:space="preserve" font-family="ArialMT" font-size="30.0" fill="#FFFFFF" transform="matrix(1.00, 0.00, -0.00, -1.00, 301.5, 115.0)">s</text><text xml:space="preserve" font-family="ArialMT" font-size="30.0" fill="#FFFFFF" transform="matrix(1.00, 0.00, -0.00, -1.00, 316.5, 115.0)">t</text><text xml:space="preserve" font-family="ArialMT" font-size="30.0" fill="#FFFFFF" transform="matrix(1.00, 0.00, -0.00, -1.00, 324.8, 115.0)">e</text><text xml:space="preserve" font-family="ArialMT" font-size="30.0" fill="#FFFFFF" transform="matrix(1.00, 0.00, -0.00, -1.00, 341.5, 115.0)">m</text><text xml:space="preserve" font-family="ArialMT" font-size="30.0" fill="#FFFFFF" transform="matrix(1.00, 0.00, -0.00, -1.00, 366.5, 115.0)"> </text></g></svg>