<?xml version="1.0" encoding="UTF-8" standalone="no"?><svg xmlns="http://www.w3.org/2000/svg" xmlns:xlink="http://www.w3.org/1999/xlink" clip-rule="evenodd" stroke-miterlimit="4.00" viewBox="0 0 720 405"><desc>SVG generated by Keynote</desc><defs><linearGradient id="gradSh1.23" x1="0.0" y1="0.0" x2="100.0" y2="0.0" gradientUnits="userSpaceOnUse" gradientTransform="matrix(-6.59, 4.91, 4.52, 6.08, 689.7, -43.0)"><stop offset="0.00000" stop-color="#272727"></stop><stop offset="0.02346" stop-color="#282828"></stop><stop offset="1.00000" stop-color="#7C7C7C"></stop></linearGradient></defs><g transform="matrix(1.00, 0.00, -0.00, -1.00, 0.0, 405.0)"><g><clipPath id="clip-51"><path d="M 0.0 405.0 L 720.0 405.0 L 720.0 0.0 L 0.0 0.0 Z M 0.0 405.0 "></path></clipPath><g clip-path="url(#clip-51)"><path d="M 0.0 405.0 L 720.0 405.0 L 720.0 0.0 L 0.0 0.0 Z M 0.0 405.0 " fill="url(#gradSh1.23)"></path></g></g><image xlink:href="../../9EA3EA7E-376A-4B6F-86D4-F7DEFFC5E922/assets/9642FC9EA6ADF033B4D25C2A4D99E1C3.png" width="728.00" height="133.00" transform="matrix(1.00, 0.00, -0.00, -1.00, -4.0, 131.9)" opacity="0.35"></image><path d="M 0.0 24.4 L 0.0 -0.4 L 720.0 -0.4 L 720.0 124.4 C 402.5 11.3 281.2 16.9 0.0 24.4 Z M 0.0 24.4 " fill="#7A7A7A" fill-opacity="0.45"></path><image xlink:href="../../9EA3EA7E-376A-4B6F-86D4-F7DEFFC5E922/assets/672670EED4BE6F41B1505B0D49B7E5F7.png" width="247.00" height="413.00" transform="matrix(1.00, 0.00, -0.00, -1.00, 472.8, 409.0)" opacity="0.45"></image><path d="M 720.0 404.2 L 720.0 0.0 L 506.3 0.2 C 641.8 70.6 681.8 256.2 480.8 405.0 L 720.0 404.2 Z M 720.0 404.2 " fill="#595959" fill-opacity="0.40"></path><image xlink:href="73E54ECDFF7A7176D059E91C0DE95150.png" width="425.00" height="47.00" transform="matrix(1.00, 0.00, -0.00, -1.00, 52.0, 184.0)"></image><text xml:space="preserve" font-family="HelveticaNeue-Bold" font-weight="bold" font-size="42.0" fill="#9ED3E7" transform="matrix(1.00, 0.00, -0.00, -1.00, 54.0, 153.0)">L</text><text xml:space="preserve" font-family="HelveticaNeue-Bold" font-weight="bold" font-size="42.0" fill="#9ED3E7" transform="matrix(1.00, 0.00, -0.00, -1.00, 78.9, 153.0)">o</text><text xml:space="preserve" font-family="HelveticaNeue-Bold" font-weight="bold" font-size="42.0" fill="#9ED3E7" transform="matrix(1.00, 0.00, -0.00, -1.00, 104.6, 153.0)">o</text><text xml:space="preserve" font-family="HelveticaNeue-Bold" font-weight="bold" font-size="42.0" fill="#9ED3E7" transform="matrix(1.00, 0.00, -0.00, -1.00, 130.2, 153.0)">k</text><text xml:space="preserve" font-family="HelveticaNeue-Bold" font-weight="bold" font-size="42.0" fill="#9ED3E7" transform="matrix(1.00, 0.00, -0.00, -1.00, 154.3, 153.0)">i</text><text xml:space="preserve" font-family="HelveticaNeue-Bold" font-weight="bold" font-size="42.0" fill="#9ED3E7" transform="matrix(1.00, 0.00, -0.00, -1.00, 165.2, 153.0)">n</text><text xml:space="preserve" font-family="HelveticaNeue-Bold" font-weight="bold" font-size="42.0" fill="#9ED3E7" transform="matrix(1.00, 0.00, -0.00, -1.00, 190.1, 153.0)">g</text><text xml:space="preserve" font-family="HelveticaNeue-Bold" font-weight="bold" font-size="42.0" fill="#9ED3E7" transform="matrix(1.00, 0.00, -0.00, -1.00, 215.7, 153.0)"> </text><text xml:space="preserve" font-family="HelveticaNeue-Bold" font-weight="bold" font-size="42.0" fill="#9ED3E7" transform="matrix(1.00, 0.00, -0.00, -1.00, 227.4, 153.0)">t</text><text xml:space="preserve" font-family="HelveticaNeue-Bold" font-weight="bold" font-size="42.0" fill="#9ED3E7" transform="matrix(1.00, 0.00, -0.00, -1.00, 242.2, 153.0)">o</text><text xml:space="preserve" font-family="HelveticaNeue-Bold" font-weight="bold" font-size="42.0" fill="#9ED3E7" transform="matrix(1.00, 0.00, -0.00, -1.00, 267.9, 153.0)"> </text><text xml:space="preserve" font-family="HelveticaNeue-Bold" font-weight="bold" font-size="42.0" fill="#9ED3E7" transform="matrix(1.00, 0.00, -0.00, -1.00, 279.5, 153.0)">t</text><text xml:space="preserve" font-family="HelveticaNeue-Bold" font-weight="bold" font-size="42.0" fill="#9ED3E7" transform="matrix(1.00, 0.00, -0.00, -1.00, 294.3, 153.0)">h</text><text xml:space="preserve" font-family="HelveticaNeue-Bold" font-weight="bold" font-size="42.0" fill="#9ED3E7" transform="matrix(1.00, 0.00, -0.00, -1.00, 319.2, 153.0)">e</text><text xml:space="preserve" font-family="HelveticaNeue-Bold" font-weight="bold" font-size="42.0" fill="#9ED3E7" transform="matrix(1.00, 0.00, -0.00, -1.00, 343.3, 153.0)"> </text><text xml:space="preserve" font-family="HelveticaNeue-Bold" font-weight="bold" font-size="42.0" fill="#9ED3E7" transform="matrix(1.00, 0.00, -0.00, -1.00, 355.0, 153.0)">f</text><text xml:space="preserve" font-family="HelveticaNeue-Bold" font-weight="bold" font-size="42.0" fill="#9ED3E7" transform="matrix(1.00, 0.00, -0.00, -1.00, 369.0, 153.0)">u</text><text xml:space="preserve" font-family="HelveticaNeue-Bold" font-weight="bold" font-size="42.0" fill="#9ED3E7" transform="matrix(1.00, 0.00, -0.00, -1.00, 393.9, 153.0)">t</text><text xml:space="preserve" font-family="HelveticaNeue-Bold" font-weight="bold" font-size="42.0" fill="#9ED3E7" transform="matrix(1.00, 0.00, -0.00, -1.00, 408.7, 153.0)">u</text><text xml:space="preserve" font-family="HelveticaNeue-Bold" font-weight="bold" font-size="42.0" fill="#9ED3E7" transform="matrix(1.00, 0.00, -0.00, -1.00, 433.6, 153.0)">r</text><text xml:space="preserve" font-family="HelveticaNeue-Bold" font-weight="bold" font-size="42.0" fill="#9ED3E7" transform="matrix(1.00, 0.00, -0.00, -1.00, 449.2, 153.0)">e</text></g></svg>