<?xml version="1.0" encoding="UTF-8" standalone="no"?><svg xmlns="http://www.w3.org/2000/svg" xmlns:xlink="http://www.w3.org/1999/xlink" clip-rule="evenodd" stroke-miterlimit="4.00" viewBox="0 0 490 39"><desc>SVG generated by Keynote</desc><defs></defs><g transform="matrix(1.00, 0.00, -0.00, -1.00, 0.0, 39.0)"><text xml:space="preserve" font-family="HelveticaNeue" font-size="46.0" fill="#FFFFFF" transform="matrix(1.00, 0.00, -0.00, -1.00, -2.0, 3.0)">D</text><text xml:space="preserve" font-family="HelveticaNeue" font-size="46.0" fill="#FFFFFF" transform="matrix(1.00, 0.00, -0.00, -1.00, 30.4, 3.0)">a</text><text xml:space="preserve" font-family="HelveticaNeue" font-size="46.0" fill="#FFFFFF" transform="matrix(1.00, 0.00, -0.00, -1.00, 55.1, 3.0)">t</text><text xml:space="preserve" font-family="HelveticaNeue" font-size="46.0" fill="#FFFFFF" transform="matrix(1.00, 0.00, -0.00, -1.00, 69.6, 3.0)">a</text><text xml:space="preserve" font-family="HelveticaNeue" font-size="46.0" fill="#FFFFFF" transform="matrix(1.00, 0.00, -0.00, -1.00, 94.3, 3.0)"> </text><text xml:space="preserve" font-family="HelveticaNeue" font-size="46.0" fill="#FFFFFF" transform="matrix(1.00, 0.00, -0.00, -1.00, 107.1, 3.0)">i</text><text xml:space="preserve" font-family="HelveticaNeue" font-size="46.0" fill="#FFFFFF" transform="matrix(1.00, 0.00, -0.00, -1.00, 117.3, 3.0)">s</text><text xml:space="preserve" font-family="HelveticaNeue" font-size="46.0" fill="#FFFFFF" transform="matrix(1.00, 0.00, -0.00, -1.00, 140.3, 3.0)"> </text><text xml:space="preserve" font-family="HelveticaNeue" font-size="46.0" fill="#FFFFFF" transform="matrix(1.00, 0.00, -0.00, -1.00, 153.1, 3.0)">N</text><text xml:space="preserve" font-family="HelveticaNeue" font-size="46.0" fill="#FFFFFF" transform="matrix(1.00, 0.00, -0.00, -1.00, 186.3, 3.0)">O</text><text xml:space="preserve" font-family="HelveticaNeue" font-size="46.0" fill="#FFFFFF" transform="matrix(1.00, 0.00, -0.00, -1.00, 221.2, 3.0)">T</text><text xml:space="preserve" font-family="HelveticaNeue" font-size="46.0" fill="#FFFFFF" transform="matrix(1.00, 0.00, -0.00, -1.00, 247.6, 3.0)"> </text><text xml:space="preserve" font-family="HelveticaNeue" font-size="46.0" fill="#FFFFFF" transform="matrix(1.00, 0.00, -0.00, -1.00, 260.4, 3.0)">i</text><text xml:space="preserve" font-family="HelveticaNeue" font-size="46.0" fill="#FFFFFF" transform="matrix(1.00, 0.00, -0.00, -1.00, 270.6, 3.0)">n</text><text xml:space="preserve" font-family="HelveticaNeue" font-size="46.0" fill="#FFFFFF" transform="matrix(1.00, 0.00, -0.00, -1.00, 296.2, 3.0)">f</text><text xml:space="preserve" font-family="HelveticaNeue" font-size="46.0" fill="#FFFFFF" transform="matrix(1.00, 0.00, -0.00, -1.00, 309.8, 3.0)">o</text><text xml:space="preserve" font-family="HelveticaNeue" font-size="46.0" fill="#FFFFFF" transform="matrix(1.00, 0.00, -0.00, -1.00, 336.2, 3.0)">r</text><text xml:space="preserve" font-family="HelveticaNeue" font-size="46.0" fill="#FFFFFF" transform="matrix(1.00, 0.00, -0.00, -1.00, 351.6, 3.0)">m</text><text xml:space="preserve" font-family="HelveticaNeue" font-size="46.0" fill="#FFFFFF" transform="matrix(1.00, 0.00, -0.00, -1.00, 390.8, 3.0)">a</text><text xml:space="preserve" font-family="HelveticaNeue" font-size="46.0" fill="#FFFFFF" transform="matrix(1.00, 0.00, -0.00, -1.00, 415.5, 3.0)">t</text><text xml:space="preserve" font-family="HelveticaNeue" font-size="46.0" fill="#FFFFFF" transform="matrix(1.00, 0.00, -0.00, -1.00, 430.0, 3.0)">i</text><text xml:space="preserve" font-family="HelveticaNeue" font-size="46.0" fill="#FFFFFF" transform="matrix(1.00, 0.00, -0.00, -1.00, 440.2, 3.0)">o</text><text xml:space="preserve" font-family="HelveticaNeue" font-size="46.0" fill="#FFFFFF" transform="matrix(1.00, 0.00, -0.00, -1.00, 466.6, 3.0)">n</text></g></svg>