<?xml version="1.0" encoding="UTF-8" standalone="no"?><svg xmlns="http://www.w3.org/2000/svg" xmlns:xlink="http://www.w3.org/1999/xlink" clip-rule="evenodd" stroke-miterlimit="4.00" viewBox="0 0 720 405"><desc>SVG generated by Keynote</desc><defs></defs><g transform="matrix(1.00, 0.00, -0.00, -1.00, 0.0, 405.0)"><path d="M 0.0 405.0 L 720.0 405.0 L 720.0 0.0 L 0.0 0.0 Z M 0.0 405.0 " fill="#3B3B3B"></path><image xlink:href="../../9EA3EA7E-376A-4B6F-86D4-F7DEFFC5E922/assets/9642FC9EA6ADF033B4D25C2A4D99E1C3.png" width="728.00" height="133.00" transform="matrix(1.00, 0.00, -0.00, -1.00, -4.0, 131.9)" opacity="0.35"></image><path d="M 0.0 24.4 L 0.0 -0.4 L 720.0 -0.4 L 720.0 124.4 C 402.5 11.3 281.2 16.9 0.0 24.4 Z M 0.0 24.4 " fill="#7A7A7A" fill-opacity="0.45"></path><image xlink:href="../../9EA3EA7E-376A-4B6F-86D4-F7DEFFC5E922/assets/50C0E26D66851E2E73A8BFFB502226A3.png" width="152.00" height="413.00" transform="matrix(1.00, 0.00, -0.00, -1.00, 568.0, 409.0)" opacity="0.45"></image><path d="M 720.0 404.2 L 720.0 0.0 L 591.3 0.2 C 672.9 70.6 732.6 242.8 576.0 405.0 L 720.0 404.2 Z M 720.0 404.2 " fill="#595959" fill-opacity="0.40"></path><text xml:space="preserve" font-family="HelveticaNeue" font-size="46.0" fill="#FFFFFF" transform="matrix(1.00, 0.00, -0.00, -1.00, 40.0, 337.0)">A</text><text xml:space="preserve" font-family="HelveticaNeue" font-size="46.0" fill="#FFFFFF" transform="matrix(1.00, 0.00, -0.00, -1.00, 69.8, 337.0)">n</text><text xml:space="preserve" font-family="HelveticaNeue" font-size="46.0" fill="#FFFFFF" transform="matrix(1.00, 0.00, -0.00, -1.00, 95.4, 337.0)">a</text><text xml:space="preserve" font-family="HelveticaNeue" font-size="46.0" fill="#FFFFFF" transform="matrix(1.00, 0.00, -0.00, -1.00, 120.1, 337.0)">l</text><text xml:space="preserve" font-family="HelveticaNeue" font-size="46.0" fill="#FFFFFF" transform="matrix(1.00, 0.00, -0.00, -1.00, 130.3, 337.0)">y</text><text xml:space="preserve" font-family="HelveticaNeue" font-size="46.0" fill="#FFFFFF" transform="matrix(1.00, 0.00, -0.00, -1.00, 153.3, 337.0)">s</text><text xml:space="preserve" font-family="HelveticaNeue" font-size="46.0" fill="#FFFFFF" transform="matrix(1.00, 0.00, -0.00, -1.00, 176.3, 337.0)">e</text><text xml:space="preserve" font-family="HelveticaNeue" font-size="46.0" fill="#FFFFFF" transform="matrix(1.00, 0.00, -0.00, -1.00, 201.0, 337.0)">s</text><text xml:space="preserve" font-family="AppleSymbols" font-size="24.0" fill="#6EA0B0" transform="matrix(1.00, 0.00, -0.00, -1.00, 42.5, 285.4)">⦿</text><text xml:space="preserve" font-family="ArialMT" font-size="30.0" fill="#FFFFFF" transform="matrix(1.00, 0.00, -0.00, -1.00, 73.0, 280.0)">M</text><text xml:space="preserve" font-family="ArialMT" font-size="30.0" fill="#FFFFFF" transform="matrix(1.00, 0.00, -0.00, -1.00, 98.0, 280.0)">a</text><text xml:space="preserve" font-family="ArialMT" font-size="30.0" fill="#FFFFFF" transform="matrix(1.00, 0.00, -0.00, -1.00, 114.7, 280.0)">k</text><text xml:space="preserve" font-family="ArialMT" font-size="30.0" fill="#FFFFFF" transform="matrix(1.00, 0.00, -0.00, -1.00, 129.7, 280.0)">e</text><text xml:space="preserve" font-family="ArialMT" font-size="30.0" fill="#FFFFFF" transform="matrix(1.00, 0.00, -0.00, -1.00, 146.4, 280.0)"> </text><text xml:space="preserve" font-family="ArialMT" font-size="30.0" fill="#FFFFFF" transform="matrix(1.00, 0.00, -0.00, -1.00, 154.7, 280.0)">s</text><text xml:space="preserve" font-family="ArialMT" font-size="30.0" fill="#FFFFFF" transform="matrix(1.00, 0.00, -0.00, -1.00, 169.7, 280.0)">u</text><text xml:space="preserve" font-family="ArialMT" font-size="30.0" fill="#FFFFFF" transform="matrix(1.00, 0.00, -0.00, -1.00, 186.4, 280.0)">r</text><text xml:space="preserve" font-family="ArialMT" font-size="30.0" fill="#FFFFFF" transform="matrix(1.00, 0.00, -0.00, -1.00, 196.4, 280.0)">e</text><text xml:space="preserve" font-family="ArialMT" font-size="30.0" fill="#FFFFFF" transform="matrix(1.00, 0.00, -0.00, -1.00, 213.1, 280.0)"> </text><text xml:space="preserve" font-family="ArialMT" font-size="30.0" fill="#FFFFFF" transform="matrix(1.00, 0.00, -0.00, -1.00, 221.4, 280.0)">a</text><text xml:space="preserve" font-family="ArialMT" font-size="30.0" fill="#FFFFFF" transform="matrix(1.00, 0.00, -0.00, -1.00, 238.1, 280.0)">n</text><text xml:space="preserve" font-family="ArialMT" font-size="30.0" fill="#FFFFFF" transform="matrix(1.00, 0.00, -0.00, -1.00, 254.8, 280.0)">a</text><text xml:space="preserve" font-family="ArialMT" font-size="30.0" fill="#FFFFFF" transform="matrix(1.00, 0.00, -0.00, -1.00, 271.5, 280.0)">l</text><text xml:space="preserve" font-family="ArialMT" font-size="30.0" fill="#FFFFFF" transform="matrix(1.00, 0.00, -0.00, -1.00, 278.1, 280.0)">y</text><text xml:space="preserve" font-family="ArialMT" font-size="30.0" fill="#FFFFFF" transform="matrix(1.00, 0.00, -0.00, -1.00, 293.1, 280.0)">s</text><text xml:space="preserve" font-family="ArialMT" font-size="30.0" fill="#FFFFFF" transform="matrix(1.00, 0.00, -0.00, -1.00, 308.1, 280.0)">i</text><text xml:space="preserve" font-family="ArialMT" font-size="30.0" fill="#FFFFFF" transform="matrix(1.00, 0.00, -0.00, -1.00, 314.8, 280.0)">s</text><text xml:space="preserve" font-family="ArialMT" font-size="30.0" fill="#FFFFFF" transform="matrix(1.00, 0.00, -0.00, -1.00, 329.8, 280.0)"> </text><text xml:space="preserve" font-family="ArialMT" font-size="30.0" fill="#FFFFFF" transform="matrix(1.00, 0.00, -0.00, -1.00, 338.1, 280.0)">i</text><text xml:space="preserve" font-family="ArialMT" font-size="30.0" fill="#FFFFFF" transform="matrix(1.00, 0.00, -0.00, -1.00, 344.8, 280.0)">s</text><text xml:space="preserve" font-family="ArialMT" font-size="30.0" fill="#FFFFFF" transform="matrix(1.00, 0.00, -0.00, -1.00, 359.8, 280.0)"> </text><text xml:space="preserve" font-family="ArialMT" font-size="30.0" fill="#FFFFFF" transform="matrix(1.00, 0.00, -0.00, -1.00, 368.1, 280.0)">r</text><text xml:space="preserve" font-family="ArialMT" font-size="30.0" fill="#FFFFFF" transform="matrix(1.00, 0.00, -0.00, -1.00, 378.1, 280.0)">e</text><text xml:space="preserve" font-family="ArialMT" font-size="30.0" fill="#FFFFFF" transform="matrix(1.00, 0.00, -0.00, -1.00, 394.8, 280.0)">p</text><text xml:space="preserve" font-family="ArialMT" font-size="30.0" fill="#FFFFFF" transform="matrix(1.00, 0.00, -0.00, -1.00, 411.5, 280.0)">r</text><text xml:space="preserve" font-family="ArialMT" font-size="30.0" fill="#FFFFFF" transform="matrix(1.00, 0.00, -0.00, -1.00, 421.5, 280.0)">o</text><text xml:space="preserve" font-family="ArialMT" font-size="30.0" fill="#FFFFFF" transform="matrix(1.00, 0.00, -0.00, -1.00, 438.2, 280.0)">d</text><text xml:space="preserve" font-family="ArialMT" font-size="30.0" fill="#FFFFFF" transform="matrix(1.00, 0.00, -0.00, -1.00, 454.9, 280.0)">u</text><text xml:space="preserve" font-family="ArialMT" font-size="30.0" fill="#FFFFFF" transform="matrix(1.00, 0.00, -0.00, -1.00, 471.6, 280.0)">c</text><text xml:space="preserve" font-family="ArialMT" font-size="30.0" fill="#FFFFFF" transform="matrix(1.00, 0.00, -0.00, -1.00, 486.6, 280.0)">i</text><text xml:space="preserve" font-family="ArialMT" font-size="30.0" fill="#FFFFFF" transform="matrix(1.00, 0.00, -0.00, -1.00, 493.2, 280.0)">b</text><text xml:space="preserve" font-family="ArialMT" font-size="30.0" fill="#FFFFFF" transform="matrix(1.00, 0.00, -0.00, -1.00, 509.9, 280.0)">l</text><text xml:space="preserve" font-family="ArialMT" font-size="30.0" fill="#FFFFFF" transform="matrix(1.00, 0.00, -0.00, -1.00, 516.6, 280.0)">e</text><text xml:space="preserve" font-family="ArialMT" font-size="30.0" fill="#FFFFFF" transform="matrix(1.00, 0.00, -0.00, -1.00, 533.3, 280.0)"> </text><text xml:space="preserve" font-family="LucidaGrande" font-size="23.4" fill="#6EA0B0" transform="matrix(1.00, 0.00, -0.00, -1.00, 74.9, 242.5)">●</text><text xml:space="preserve" font-family="ArialMT" font-size="26.0" fill="#FFFFFF" transform="matrix(1.00, 0.00, -0.00, -1.00, 96.0, 242.0)">C</text><text xml:space="preserve" font-family="ArialMT" font-size="26.0" fill="#FFFFFF" transform="matrix(1.00, 0.00, -0.00, -1.00, 114.8, 242.0)">r</text><text xml:space="preserve" font-family="ArialMT" font-size="26.0" fill="#FFFFFF" transform="matrix(1.00, 0.00, -0.00, -1.00, 123.4, 242.0)">o</text><text xml:space="preserve" font-family="ArialMT" font-size="26.0" fill="#FFFFFF" transform="matrix(1.00, 0.00, -0.00, -1.00, 137.9, 242.0)">s</text><text xml:space="preserve" font-family="ArialMT" font-size="26.0" fill="#FFFFFF" transform="matrix(1.00, 0.00, -0.00, -1.00, 150.9, 242.0)">s</text><text xml:space="preserve" font-family="ArialMT" font-size="26.0" fill="#FFFFFF" transform="matrix(1.00, 0.00, -0.00, -1.00, 163.9, 242.0)">-</text><text xml:space="preserve" font-family="ArialMT" font-size="26.0" fill="#FFFFFF" transform="matrix(1.00, 0.00, -0.00, -1.00, 172.6, 242.0)">v</text><text xml:space="preserve" font-family="ArialMT" font-size="26.0" fill="#FFFFFF" transform="matrix(1.00, 0.00, -0.00, -1.00, 185.6, 242.0)">a</text><text xml:space="preserve" font-family="ArialMT" font-size="26.0" fill="#FFFFFF" transform="matrix(1.00, 0.00, -0.00, -1.00, 200.0, 242.0)">l</text><text xml:space="preserve" font-family="ArialMT" font-size="26.0" fill="#FFFFFF" transform="matrix(1.00, 0.00, -0.00, -1.00, 205.8, 242.0)">i</text><text xml:space="preserve" font-family="ArialMT" font-size="26.0" fill="#FFFFFF" transform="matrix(1.00, 0.00, -0.00, -1.00, 211.6, 242.0)">d</text><text xml:space="preserve" font-family="ArialMT" font-size="26.0" fill="#FFFFFF" transform="matrix(1.00, 0.00, -0.00, -1.00, 226.1, 242.0)">a</text><text xml:space="preserve" font-family="ArialMT" font-size="26.0" fill="#FFFFFF" transform="matrix(1.00, 0.00, -0.00, -1.00, 240.5, 242.0)">t</text><text xml:space="preserve" font-family="ArialMT" font-size="26.0" fill="#FFFFFF" transform="matrix(1.00, 0.00, -0.00, -1.00, 247.7, 242.0)">i</text><text xml:space="preserve" font-family="ArialMT" font-size="26.0" fill="#FFFFFF" transform="matrix(1.00, 0.00, -0.00, -1.00, 253.5, 242.0)">o</text><text xml:space="preserve" font-family="ArialMT" font-size="26.0" fill="#FFFFFF" transform="matrix(1.00, 0.00, -0.00, -1.00, 268.0, 242.0)">n</text><text xml:space="preserve" font-family="ArialMT" font-size="26.0" fill="#FFFFFF" transform="matrix(1.00, 0.00, -0.00, -1.00, 282.4, 242.0)"> </text><text xml:space="preserve" font-family="LucidaGrande" font-size="23.4" fill="#6EA0B0" transform="matrix(1.00, 0.00, -0.00, -1.00, 74.9, 205.3)">●</text><text xml:space="preserve" font-family="ArialMT" font-size="26.0" fill="#FFFFFF" transform="matrix(1.00, 0.00, -0.00, -1.00, 96.0, 205.0)">E</text><text xml:space="preserve" font-family="ArialMT" font-size="26.0" fill="#FFFFFF" transform="matrix(1.00, 0.00, -0.00, -1.00, 113.3, 205.0)">x</text><text xml:space="preserve" font-family="ArialMT" font-size="26.0" fill="#FFFFFF" transform="matrix(1.00, 0.00, -0.00, -1.00, 126.3, 205.0)">t</text><text xml:space="preserve" font-family="ArialMT" font-size="26.0" fill="#FFFFFF" transform="matrix(1.00, 0.00, -0.00, -1.00, 133.6, 205.0)">e</text><text xml:space="preserve" font-family="ArialMT" font-size="26.0" fill="#FFFFFF" transform="matrix(1.00, 0.00, -0.00, -1.00, 148.0, 205.0)">r</text><text xml:space="preserve" font-family="ArialMT" font-size="26.0" fill="#FFFFFF" transform="matrix(1.00, 0.00, -0.00, -1.00, 156.7, 205.0)">n</text><text xml:space="preserve" font-family="ArialMT" font-size="26.0" fill="#FFFFFF" transform="matrix(1.00, 0.00, -0.00, -1.00, 171.1, 205.0)">a</text><text xml:space="preserve" font-family="ArialMT" font-size="26.0" fill="#FFFFFF" transform="matrix(1.00, 0.00, -0.00, -1.00, 185.6, 205.0)">l</text><text xml:space="preserve" font-family="ArialMT" font-size="26.0" fill="#FFFFFF" transform="matrix(1.00, 0.00, -0.00, -1.00, 191.4, 205.0)"> </text><text xml:space="preserve" font-family="ArialMT" font-size="26.0" fill="#FFFFFF" transform="matrix(1.00, 0.00, -0.00, -1.00, 198.6, 205.0)">v</text><text xml:space="preserve" font-family="ArialMT" font-size="26.0" fill="#FFFFFF" transform="matrix(1.00, 0.00, -0.00, -1.00, 211.6, 205.0)">a</text><text xml:space="preserve" font-family="ArialMT" font-size="26.0" fill="#FFFFFF" transform="matrix(1.00, 0.00, -0.00, -1.00, 226.1, 205.0)">l</text><text xml:space="preserve" font-family="ArialMT" font-size="26.0" fill="#FFFFFF" transform="matrix(1.00, 0.00, -0.00, -1.00, 231.9, 205.0)">i</text><text xml:space="preserve" font-family="ArialMT" font-size="26.0" fill="#FFFFFF" transform="matrix(1.00, 0.00, -0.00, -1.00, 237.6, 205.0)">d</text><text xml:space="preserve" font-family="ArialMT" font-size="26.0" fill="#FFFFFF" transform="matrix(1.00, 0.00, -0.00, -1.00, 252.1, 205.0)">a</text><text xml:space="preserve" font-family="ArialMT" font-size="26.0" fill="#FFFFFF" transform="matrix(1.00, 0.00, -0.00, -1.00, 266.6, 205.0)">t</text><text xml:space="preserve" font-family="ArialMT" font-size="26.0" fill="#FFFFFF" transform="matrix(1.00, 0.00, -0.00, -1.00, 273.8, 205.0)">i</text><text xml:space="preserve" font-family="ArialMT" font-size="26.0" fill="#FFFFFF" transform="matrix(1.00, 0.00, -0.00, -1.00, 279.6, 205.0)">o</text><text xml:space="preserve" font-family="ArialMT" font-size="26.0" fill="#FFFFFF" transform="matrix(1.00, 0.00, -0.00, -1.00, 294.0, 205.0)">n</text><text xml:space="preserve" font-family="ArialMT" font-size="26.0" fill="#FFFFFF" transform="matrix(1.00, 0.00, -0.00, -1.00, 308.5, 205.0)"> </text><text xml:space="preserve" font-family="AppleSymbols" font-size="24.0" fill="#6EA0B0" transform="matrix(1.00, 0.00, -0.00, -1.00, 42.5, 169.7)">⦿</text><text xml:space="preserve" font-family="ArialMT" font-size="30.0" fill="#FFFFFF" transform="matrix(1.00, 0.00, -0.00, -1.00, 73.0, 165.0)">D</text><text xml:space="preserve" font-family="ArialMT" font-size="30.0" fill="#FFFFFF" transform="matrix(1.00, 0.00, -0.00, -1.00, 94.7, 165.0)">o</text><text xml:space="preserve" font-family="ArialMT" font-size="30.0" fill="#FFFFFF" transform="matrix(1.00, 0.00, -0.00, -1.00, 111.4, 165.0)">c</text><text xml:space="preserve" font-family="ArialMT" font-size="30.0" fill="#FFFFFF" transform="matrix(1.00, 0.00, -0.00, -1.00, 126.4, 165.0)">u</text><text xml:space="preserve" font-family="ArialMT" font-size="30.0" fill="#FFFFFF" transform="matrix(1.00, 0.00, -0.00, -1.00, 143.1, 165.0)">m</text><text xml:space="preserve" font-family="ArialMT" font-size="30.0" fill="#FFFFFF" transform="matrix(1.00, 0.00, -0.00, -1.00, 168.0, 165.0)">e</text><text xml:space="preserve" font-family="ArialMT" font-size="30.0" fill="#FFFFFF" transform="matrix(1.00, 0.00, -0.00, -1.00, 184.7, 165.0)">n</text><text xml:space="preserve" font-family="ArialMT" font-size="30.0" fill="#FFFFFF" transform="matrix(1.00, 0.00, -0.00, -1.00, 201.4, 165.0)">t</text><text xml:space="preserve" font-family="ArialMT" font-size="30.0" fill="#FFFFFF" transform="matrix(1.00, 0.00, -0.00, -1.00, 209.8, 165.0)"> </text><text xml:space="preserve" font-family="ArialMT" font-size="30.0" fill="#FFFFFF" transform="matrix(1.00, 0.00, -0.00, -1.00, 218.1, 165.0)">y</text><text xml:space="preserve" font-family="ArialMT" font-size="30.0" fill="#FFFFFF" transform="matrix(1.00, 0.00, -0.00, -1.00, 233.1, 165.0)">o</text><text xml:space="preserve" font-family="ArialMT" font-size="30.0" fill="#FFFFFF" transform="matrix(1.00, 0.00, -0.00, -1.00, 249.8, 165.0)">u</text><text xml:space="preserve" font-family="ArialMT" font-size="30.0" fill="#FFFFFF" transform="matrix(1.00, 0.00, -0.00, -1.00, 266.5, 165.0)">r</text><text xml:space="preserve" font-family="ArialMT" font-size="30.0" fill="#FFFFFF" transform="matrix(1.00, 0.00, -0.00, -1.00, 276.5, 165.0)"> </text><text xml:space="preserve" font-family="ArialMT" font-size="30.0" fill="#FFFFFF" transform="matrix(1.00, 0.00, -0.00, -1.00, 284.8, 165.0)">p</text><text xml:space="preserve" font-family="ArialMT" font-size="30.0" fill="#FFFFFF" transform="matrix(1.00, 0.00, -0.00, -1.00, 301.5, 165.0)">r</text><text xml:space="preserve" font-family="ArialMT" font-size="30.0" fill="#FFFFFF" transform="matrix(1.00, 0.00, -0.00, -1.00, 311.5, 165.0)">o</text><text xml:space="preserve" font-family="ArialMT" font-size="30.0" fill="#FFFFFF" transform="matrix(1.00, 0.00, -0.00, -1.00, 328.2, 165.0)">c</text><text xml:space="preserve" font-family="ArialMT" font-size="30.0" fill="#FFFFFF" transform="matrix(1.00, 0.00, -0.00, -1.00, 343.2, 165.0)">e</text><text xml:space="preserve" font-family="ArialMT" font-size="30.0" fill="#FFFFFF" transform="matrix(1.00, 0.00, -0.00, -1.00, 359.8, 165.0)">s</text><text xml:space="preserve" font-family="ArialMT" font-size="30.0" fill="#FFFFFF" transform="matrix(1.00, 0.00, -0.00, -1.00, 374.8, 165.0)">s</text><text xml:space="preserve" font-family="ArialMT" font-size="30.0" fill="#FFFFFF" transform="matrix(1.00, 0.00, -0.00, -1.00, 389.8, 165.0)"> </text><text xml:space="preserve" font-family="AppleSymbols" font-size="24.0" fill="#6EA0B0" transform="matrix(1.00, 0.00, -0.00, -1.00, 42.5, 128.5)">⦿</text><text xml:space="preserve" font-family="ArialMT" font-size="30.0" fill="#FFFFFF" transform="matrix(1.00, 0.00, -0.00, -1.00, 73.0, 123.0)">R</text><text xml:space="preserve" font-family="ArialMT" font-size="30.0" fill="#FFFFFF" transform="matrix(1.00, 0.00, -0.00, -1.00, 94.7, 123.0)">e</text><text xml:space="preserve" font-family="ArialMT" font-size="30.0" fill="#FFFFFF" transform="matrix(1.00, 0.00, -0.00, -1.00, 111.4, 123.0)">p</text><text xml:space="preserve" font-family="ArialMT" font-size="30.0" fill="#FFFFFF" transform="matrix(1.00, 0.00, -0.00, -1.00, 128.1, 123.0)">o</text><text xml:space="preserve" font-family="ArialMT" font-size="30.0" fill="#FFFFFF" transform="matrix(1.00, 0.00, -0.00, -1.00, 144.7, 123.0)">r</text><text xml:space="preserve" font-family="ArialMT" font-size="30.0" fill="#FFFFFF" transform="matrix(1.00, 0.00, -0.00, -1.00, 154.7, 123.0)">t</text><text xml:space="preserve" font-family="ArialMT" font-size="30.0" fill="#FFFFFF" transform="matrix(1.00, 0.00, -0.00, -1.00, 163.1, 123.0)"> </text><text xml:space="preserve" font-family="ArialMT" font-size="30.0" fill="#FFFFFF" transform="matrix(1.00, 0.00, -0.00, -1.00, 171.4, 123.0)">y</text><text xml:space="preserve" font-family="ArialMT" font-size="30.0" fill="#FFFFFF" transform="matrix(1.00, 0.00, -0.00, -1.00, 186.4, 123.0)">o</text><text xml:space="preserve" font-family="ArialMT" font-size="30.0" fill="#FFFFFF" transform="matrix(1.00, 0.00, -0.00, -1.00, 203.1, 123.0)">u</text><text xml:space="preserve" font-family="ArialMT" font-size="30.0" fill="#FFFFFF" transform="matrix(1.00, 0.00, -0.00, -1.00, 219.8, 123.0)">r</text><text xml:space="preserve" font-family="ArialMT" font-size="30.0" fill="#FFFFFF" transform="matrix(1.00, 0.00, -0.00, -1.00, 229.8, 123.0)"> </text><text xml:space="preserve" font-family="ArialMT" font-size="30.0" fill="#FFFFFF" transform="matrix(1.00, 0.00, -0.00, -1.00, 238.1, 123.0)">m</text><text xml:space="preserve" font-family="ArialMT" font-size="30.0" fill="#FFFFFF" transform="matrix(1.00, 0.00, -0.00, -1.00, 263.1, 123.0)">e</text><text xml:space="preserve" font-family="ArialMT" font-size="30.0" fill="#FFFFFF" transform="matrix(1.00, 0.00, -0.00, -1.00, 279.8, 123.0)">t</text><text xml:space="preserve" font-family="ArialMT" font-size="30.0" fill="#FFFFFF" transform="matrix(1.00, 0.00, -0.00, -1.00, 288.1, 123.0)">h</text><text xml:space="preserve" font-family="ArialMT" font-size="30.0" fill="#FFFFFF" transform="matrix(1.00, 0.00, -0.00, -1.00, 304.8, 123.0)">o</text><text xml:space="preserve" font-family="ArialMT" font-size="30.0" fill="#FFFFFF" transform="matrix(1.00, 0.00, -0.00, -1.00, 321.5, 123.0)">d</text><text xml:space="preserve" font-family="ArialMT" font-size="30.0" fill="#FFFFFF" transform="matrix(1.00, 0.00, -0.00, -1.00, 338.2, 123.0)">s</text></g></svg>