<?xml version="1.0" encoding="UTF-8" standalone="no"?><svg xmlns="http://www.w3.org/2000/svg" xmlns:xlink="http://www.w3.org/1999/xlink" clip-rule="evenodd" stroke-miterlimit="4.00" viewBox="0 0 158 32"><desc>SVG generated by Keynote</desc><defs></defs><g transform="matrix(1.00, 0.00, -0.00, -1.00, 0.0, 32.0)"><text xml:space="preserve" font-family="ArialMT" font-size="30.0" fill="#FF6600" transform="matrix(1.00, 0.00, -0.00, -1.00, 1.0, 8.0)">e</text><text xml:space="preserve" font-family="ArialMT" font-size="30.0" fill="#FF6600" transform="matrix(1.00, 0.00, -0.00, -1.00, 17.7, 8.0)">v</text><text xml:space="preserve" font-family="ArialMT" font-size="30.0" fill="#FF6600" transform="matrix(1.00, 0.00, -0.00, -1.00, 32.7, 8.0)">e</text><text xml:space="preserve" font-family="ArialMT" font-size="30.0" fill="#FF6600" transform="matrix(1.00, 0.00, -0.00, -1.00, 49.4, 8.0)">r</text><text xml:space="preserve" font-family="ArialMT" font-size="30.0" fill="#FF6600" transform="matrix(1.00, 0.00, -0.00, -1.00, 59.4, 8.0)">y</text><text xml:space="preserve" font-family="ArialMT" font-size="30.0" fill="#FF6600" transform="matrix(1.00, 0.00, -0.00, -1.00, 74.4, 8.0)">w</text><text xml:space="preserve" font-family="ArialMT" font-size="30.0" fill="#FF6600" transform="matrix(1.00, 0.00, -0.00, -1.00, 96.0, 8.0)">h</text><text xml:space="preserve" font-family="ArialMT" font-size="30.0" fill="#FF6600" transform="matrix(1.00, 0.00, -0.00, -1.00, 112.7, 8.0)">e</text><text xml:space="preserve" font-family="ArialMT" font-size="30.0" fill="#FF6600" transform="matrix(1.00, 0.00, -0.00, -1.00, 129.4, 8.0)">r</text><text xml:space="preserve" font-family="ArialMT" font-size="30.0" fill="#FF6600" transform="matrix(1.00, 0.00, -0.00, -1.00, 139.4, 8.0)">e</text></g></svg>