<?xml version="1.0" encoding="UTF-8" standalone="no"?><svg xmlns="http://www.w3.org/2000/svg" xmlns:xlink="http://www.w3.org/1999/xlink" clip-rule="evenodd" stroke-miterlimit="4.00" viewBox="0 0 541 94"><desc>SVG generated by Keynote</desc><defs></defs><g transform="matrix(1.00, 0.00, -0.00, -1.00, 0.0, 94.0)"><text xml:space="preserve" font-family="AppleSymbols" font-size="24.0" fill="#6EA0B0" transform="matrix(1.00, 0.00, -0.00, -1.00, 0.5, 75.4)">⦿</text><text xml:space="preserve" font-family="ArialMT" font-size="30.0" fill="#FFFFFF" transform="matrix(1.00, 0.00, -0.00, -1.00, 31.0, 70.0)">I</text><text xml:space="preserve" font-family="ArialMT" font-size="30.0" fill="#FFFFFF" transform="matrix(1.00, 0.00, -0.00, -1.00, 39.3, 70.0)">f</text><text xml:space="preserve" font-family="ArialMT" font-size="30.0" fill="#FFFFFF" transform="matrix(1.00, 0.00, -0.00, -1.00, 47.7, 70.0)"> </text><text xml:space="preserve" font-family="ArialMT" font-size="30.0" fill="#FFFFFF" transform="matrix(1.00, 0.00, -0.00, -1.00, 56.0, 70.0)">w</text><text xml:space="preserve" font-family="ArialMT" font-size="30.0" fill="#FFFFFF" transform="matrix(1.00, 0.00, -0.00, -1.00, 77.7, 70.0)">e</text><text xml:space="preserve" font-family="ArialMT" font-size="30.0" fill="#FFFFFF" transform="matrix(1.00, 0.00, -0.00, -1.00, 94.3, 70.0)"> </text><text xml:space="preserve" font-family="ArialMT" font-size="30.0" fill="#FFFFFF" transform="matrix(1.00, 0.00, -0.00, -1.00, 102.7, 70.0)">g</text><text xml:space="preserve" font-family="ArialMT" font-size="30.0" fill="#FFFFFF" transform="matrix(1.00, 0.00, -0.00, -1.00, 119.4, 70.0)">a</text><text xml:space="preserve" font-family="ArialMT" font-size="30.0" fill="#FFFFFF" transform="matrix(1.00, 0.00, -0.00, -1.00, 136.1, 70.0)">t</text><text xml:space="preserve" font-family="ArialMT" font-size="30.0" fill="#FFFFFF" transform="matrix(1.00, 0.00, -0.00, -1.00, 144.4, 70.0)">h</text><text xml:space="preserve" font-family="ArialMT" font-size="30.0" fill="#FFFFFF" transform="matrix(1.00, 0.00, -0.00, -1.00, 161.1, 70.0)">e</text><text xml:space="preserve" font-family="ArialMT" font-size="30.0" fill="#FFFFFF" transform="matrix(1.00, 0.00, -0.00, -1.00, 177.8, 70.0)">r</text><text xml:space="preserve" font-family="ArialMT" font-size="30.0" fill="#FFFFFF" transform="matrix(1.00, 0.00, -0.00, -1.00, 187.8, 70.0)"> </text><text xml:space="preserve" font-family="ArialMT" font-size="30.0" fill="#FFFFFF" transform="matrix(1.00, 0.00, -0.00, -1.00, 196.1, 70.0)">e</text><text xml:space="preserve" font-family="ArialMT" font-size="30.0" fill="#FFFFFF" transform="matrix(1.00, 0.00, -0.00, -1.00, 212.8, 70.0)">n</text><text xml:space="preserve" font-family="ArialMT" font-size="30.0" fill="#FFFFFF" transform="matrix(1.00, 0.00, -0.00, -1.00, 229.5, 70.0)">o</text><text xml:space="preserve" font-family="ArialMT" font-size="30.0" fill="#FFFFFF" transform="matrix(1.00, 0.00, -0.00, -1.00, 246.2, 70.0)">u</text><text xml:space="preserve" font-family="ArialMT" font-size="30.0" fill="#FFFFFF" transform="matrix(1.00, 0.00, -0.00, -1.00, 262.9, 70.0)">g</text><text xml:space="preserve" font-family="ArialMT" font-size="30.0" fill="#FFFFFF" transform="matrix(1.00, 0.00, -0.00, -1.00, 279.5, 70.0)">h</text><text xml:space="preserve" font-family="ArialMT" font-size="30.0" fill="#FFFFFF" transform="matrix(1.00, 0.00, -0.00, -1.00, 296.2, 70.0)"> </text><text xml:space="preserve" font-family="Arial-ItalicMT" font-style="italic" font-size="30.0" fill="#FFFFFF" transform="matrix(1.00, 0.00, -0.00, -1.00, 304.5, 70.0)">i</text><text xml:space="preserve" font-family="Arial-ItalicMT" font-style="italic" font-size="30.0" fill="#FFFFFF" transform="matrix(1.00, 0.00, -0.00, -1.00, 311.2, 70.0)">n</text><text xml:space="preserve" font-family="Arial-ItalicMT" font-style="italic" font-size="30.0" fill="#FFFFFF" transform="matrix(1.00, 0.00, -0.00, -1.00, 327.9, 70.0)">f</text><text xml:space="preserve" font-family="Arial-ItalicMT" font-style="italic" font-size="30.0" fill="#FFFFFF" transform="matrix(1.00, 0.00, -0.00, -1.00, 336.2, 70.0)">o</text><text xml:space="preserve" font-family="Arial-ItalicMT" font-style="italic" font-size="30.0" fill="#FFFFFF" transform="matrix(1.00, 0.00, -0.00, -1.00, 352.9, 70.0)">r</text><text xml:space="preserve" font-family="Arial-ItalicMT" font-style="italic" font-size="30.0" fill="#FFFFFF" transform="matrix(1.00, 0.00, -0.00, -1.00, 362.9, 70.0)">m</text><text xml:space="preserve" font-family="Arial-ItalicMT" font-style="italic" font-size="30.0" fill="#FFFFFF" transform="matrix(1.00, 0.00, -0.00, -1.00, 387.9, 70.0)">a</text><text xml:space="preserve" font-family="Arial-ItalicMT" font-style="italic" font-size="30.0" fill="#FFFFFF" transform="matrix(1.00, 0.00, -0.00, -1.00, 404.6, 70.0)">t</text><text xml:space="preserve" font-family="Arial-ItalicMT" font-style="italic" font-size="30.0" fill="#FFFFFF" transform="matrix(1.00, 0.00, -0.00, -1.00, 412.9, 70.0)">i</text><text xml:space="preserve" font-family="Arial-ItalicMT" font-style="italic" font-size="30.0" fill="#FFFFFF" transform="matrix(1.00, 0.00, -0.00, -1.00, 419.6, 70.0)">o</text><text xml:space="preserve" font-family="Arial-ItalicMT" font-style="italic" font-size="30.0" fill="#FFFFFF" transform="matrix(1.00, 0.00, -0.00, -1.00, 436.3, 70.0)">n</text><text xml:space="preserve" font-family="ArialMT" font-size="30.0" fill="#FFFFFF" transform="matrix(1.00, 0.00, -0.00, -1.00, 452.9, 70.0)"> </text><text xml:space="preserve" font-family="ArialMT" font-size="30.0" fill="#FFFFFF" transform="matrix(1.00, 0.00, -0.00, -1.00, 461.3, 70.0)">a</text><text xml:space="preserve" font-family="ArialMT" font-size="30.0" fill="#FFFFFF" transform="matrix(1.00, 0.00, -0.00, -1.00, 477.9, 70.0)">b</text><text xml:space="preserve" font-family="ArialMT" font-size="30.0" fill="#FFFFFF" transform="matrix(1.00, 0.00, -0.00, -1.00, 494.6, 70.0)">o</text><text xml:space="preserve" font-family="ArialMT" font-size="30.0" fill="#FFFFFF" transform="matrix(1.00, 0.00, -0.00, -1.00, 511.3, 70.0)">u</text><text xml:space="preserve" font-family="ArialMT" font-size="30.0" fill="#FFFFFF" transform="matrix(1.00, 0.00, -0.00, -1.00, 528.0, 70.0)">t</text><text xml:space="preserve" font-family="ArialMT" font-size="30.0" fill="#FFFFFF" transform="matrix(1.00, 0.00, -0.00, -1.00, 536.3, 70.0)"> </text><text xml:space="preserve" font-family="ArialMT" font-size="30.0" fill="#FFFFFF" transform="matrix(1.00, 0.00, -0.00, -1.00, 31.0, 36.0)">w</text><text xml:space="preserve" font-family="ArialMT" font-size="30.0" fill="#FFFFFF" transform="matrix(1.00, 0.00, -0.00, -1.00, 52.7, 36.0)">h</text><text xml:space="preserve" font-family="ArialMT" font-size="30.0" fill="#FFFFFF" transform="matrix(1.00, 0.00, -0.00, -1.00, 69.4, 36.0)">a</text><text xml:space="preserve" font-family="ArialMT" font-size="30.0" fill="#FFFFFF" transform="matrix(1.00, 0.00, -0.00, -1.00, 86.1, 36.0)">t</text><text xml:space="preserve" font-family="ArialMT" font-size="30.0" fill="#FFFFFF" transform="matrix(1.00, 0.00, -0.00, -1.00, 94.4, 36.0)"> </text><text xml:space="preserve" font-family="ArialMT" font-size="30.0" fill="#FFFFFF" transform="matrix(1.00, 0.00, -0.00, -1.00, 102.7, 36.0)">w</text><text xml:space="preserve" font-family="ArialMT" font-size="30.0" fill="#FFFFFF" transform="matrix(1.00, 0.00, -0.00, -1.00, 124.4, 36.0)">e</text><text xml:space="preserve" font-family="ArialMT" font-size="30.0" fill="#FFFFFF" transform="matrix(1.00, 0.00, -0.00, -1.00, 141.1, 36.0)">’</text><text xml:space="preserve" font-family="ArialMT" font-size="30.0" fill="#FFFFFF" transform="matrix(1.00, 0.00, -0.00, -1.00, 147.7, 36.0)">r</text><text xml:space="preserve" font-family="ArialMT" font-size="30.0" fill="#FFFFFF" transform="matrix(1.00, 0.00, -0.00, -1.00, 157.7, 36.0)">e</text><text xml:space="preserve" font-family="ArialMT" font-size="30.0" fill="#FFFFFF" transform="matrix(1.00, 0.00, -0.00, -1.00, 174.4, 36.0)"> </text><text xml:space="preserve" font-family="ArialMT" font-size="30.0" fill="#FFFFFF" transform="matrix(1.00, 0.00, -0.00, -1.00, 182.8, 36.0)">i</text><text xml:space="preserve" font-family="ArialMT" font-size="30.0" fill="#FFFFFF" transform="matrix(1.00, 0.00, -0.00, -1.00, 189.4, 36.0)">n</text><text xml:space="preserve" font-family="ArialMT" font-size="30.0" fill="#FFFFFF" transform="matrix(1.00, 0.00, -0.00, -1.00, 206.1, 36.0)">t</text><text xml:space="preserve" font-family="ArialMT" font-size="30.0" fill="#FFFFFF" transform="matrix(1.00, 0.00, -0.00, -1.00, 214.4, 36.0)">e</text><text xml:space="preserve" font-family="ArialMT" font-size="30.0" fill="#FFFFFF" transform="matrix(1.00, 0.00, -0.00, -1.00, 231.1, 36.0)">r</text><text xml:space="preserve" font-family="ArialMT" font-size="30.0" fill="#FFFFFF" transform="matrix(1.00, 0.00, -0.00, -1.00, 241.1, 36.0)">e</text><text xml:space="preserve" font-family="ArialMT" font-size="30.0" fill="#FFFFFF" transform="matrix(1.00, 0.00, -0.00, -1.00, 257.8, 36.0)">s</text><text xml:space="preserve" font-family="ArialMT" font-size="30.0" fill="#FFFFFF" transform="matrix(1.00, 0.00, -0.00, -1.00, 272.8, 36.0)">t</text><text xml:space="preserve" font-family="ArialMT" font-size="30.0" fill="#FFFFFF" transform="matrix(1.00, 0.00, -0.00, -1.00, 281.1, 36.0)">e</text><text xml:space="preserve" font-family="ArialMT" font-size="30.0" fill="#FFFFFF" transform="matrix(1.00, 0.00, -0.00, -1.00, 297.8, 36.0)">d</text><text xml:space="preserve" font-family="ArialMT" font-size="30.0" fill="#FFFFFF" transform="matrix(1.00, 0.00, -0.00, -1.00, 314.5, 36.0)"> </text><text xml:space="preserve" font-family="ArialMT" font-size="30.0" fill="#FFFFFF" transform="matrix(1.00, 0.00, -0.00, -1.00, 322.9, 36.0)">i</text><text xml:space="preserve" font-family="ArialMT" font-size="30.0" fill="#FFFFFF" transform="matrix(1.00, 0.00, -0.00, -1.00, 329.5, 36.0)">n</text><text xml:space="preserve" font-family="ArialMT" font-size="30.0" fill="#FFFFFF" transform="matrix(1.00, 0.00, -0.00, -1.00, 346.2, 36.0)">,</text><text xml:space="preserve" font-family="ArialMT" font-size="30.0" fill="#FFFFFF" transform="matrix(1.00, 0.00, -0.00, -1.00, 354.5, 36.0)"> </text><text xml:space="preserve" font-family="ArialMT" font-size="30.0" fill="#FFFFFF" transform="matrix(1.00, 0.00, -0.00, -1.00, 362.9, 36.0)">w</text><text xml:space="preserve" font-family="ArialMT" font-size="30.0" fill="#FFFFFF" transform="matrix(1.00, 0.00, -0.00, -1.00, 384.5, 36.0)">e</text><text xml:space="preserve" font-family="ArialMT" font-size="30.0" fill="#FFFFFF" transform="matrix(1.00, 0.00, -0.00, -1.00, 401.2, 36.0)"> </text><text xml:space="preserve" font-family="ArialMT" font-size="30.0" fill="#FFFFFF" transform="matrix(1.00, 0.00, -0.00, -1.00, 409.6, 36.0)">s</text><text xml:space="preserve" font-family="ArialMT" font-size="30.0" fill="#FFFFFF" transform="matrix(1.00, 0.00, -0.00, -1.00, 424.6, 36.0)">h</text><text xml:space="preserve" font-family="ArialMT" font-size="30.0" fill="#FFFFFF" transform="matrix(1.00, 0.00, -0.00, -1.00, 441.3, 36.0)">o</text><text xml:space="preserve" font-family="ArialMT" font-size="30.0" fill="#FFFFFF" transform="matrix(1.00, 0.00, -0.00, -1.00, 457.9, 36.0)">u</text><text xml:space="preserve" font-family="ArialMT" font-size="30.0" fill="#FFFFFF" transform="matrix(1.00, 0.00, -0.00, -1.00, 474.6, 36.0)">l</text><text xml:space="preserve" font-family="ArialMT" font-size="30.0" fill="#FFFFFF" transform="matrix(1.00, 0.00, -0.00, -1.00, 481.3, 36.0)">d</text><text xml:space="preserve" font-family="ArialMT" font-size="30.0" fill="#FFFFFF" transform="matrix(1.00, 0.00, -0.00, -1.00, 498.0, 36.0)"> </text><text xml:space="preserve" font-family="ArialMT" font-size="30.0" fill="#FFFFFF" transform="matrix(1.00, 0.00, -0.00, -1.00, 506.3, 36.0)">b</text><text xml:space="preserve" font-family="ArialMT" font-size="30.0" fill="#FFFFFF" transform="matrix(1.00, 0.00, -0.00, -1.00, 523.0, 36.0)">e</text><text xml:space="preserve" font-family="ArialMT" font-size="30.0" fill="#FFFFFF" transform="matrix(1.00, 0.00, -0.00, -1.00, 539.7, 36.0)"> </text><text xml:space="preserve" font-family="ArialMT" font-size="30.0" fill="#FFFFFF" transform="matrix(1.00, 0.00, -0.00, -1.00, 31.0, 2.0)">a</text><text xml:space="preserve" font-family="ArialMT" font-size="30.0" fill="#FFFFFF" transform="matrix(1.00, 0.00, -0.00, -1.00, 47.7, 2.0)">b</text><text xml:space="preserve" font-family="ArialMT" font-size="30.0" fill="#FFFFFF" transform="matrix(1.00, 0.00, -0.00, -1.00, 64.4, 2.0)">l</text><text xml:space="preserve" font-family="ArialMT" font-size="30.0" fill="#FFFFFF" transform="matrix(1.00, 0.00, -0.00, -1.00, 71.1, 2.0)">e</text><text xml:space="preserve" font-family="ArialMT" font-size="30.0" fill="#FFFFFF" transform="matrix(1.00, 0.00, -0.00, -1.00, 87.7, 2.0)"> </text><text xml:space="preserve" font-family="ArialMT" font-size="30.0" fill="#FFFFFF" transform="matrix(1.00, 0.00, -0.00, -1.00, 96.1, 2.0)">t</text><text xml:space="preserve" font-family="ArialMT" font-size="30.0" fill="#FFFFFF" transform="matrix(1.00, 0.00, -0.00, -1.00, 104.4, 2.0)">o</text><text xml:space="preserve" font-family="ArialMT" font-size="30.0" fill="#FFFFFF" transform="matrix(1.00, 0.00, -0.00, -1.00, 121.1, 2.0)"> </text></g></svg>