<?xml version="1.0" encoding="UTF-8" standalone="no"?><svg xmlns="http://www.w3.org/2000/svg" xmlns:xlink="http://www.w3.org/1999/xlink" clip-rule="evenodd" stroke-miterlimit="4.00" viewBox="0 0 720 405"><desc>SVG generated by Keynote</desc><defs></defs><g transform="matrix(1.00, 0.00, -0.00, -1.00, 0.0, 405.0)"><path d="M 0.0 405.0 L 720.0 405.0 L 720.0 0.0 L 0.0 0.0 Z M 0.0 405.0 " fill="#3B3B3B"></path><image xlink:href="../../9EA3EA7E-376A-4B6F-86D4-F7DEFFC5E922/assets/9642FC9EA6ADF033B4D25C2A4D99E1C3.png" width="728.00" height="133.00" transform="matrix(1.00, 0.00, -0.00, -1.00, -4.0, 131.9)" opacity="0.35"></image><path d="M 0.0 24.4 L 0.0 -0.4 L 720.0 -0.4 L 720.0 124.4 C 402.5 11.3 281.2 16.9 0.0 24.4 Z M 0.0 24.4 " fill="#7A7A7A" fill-opacity="0.45"></path><image xlink:href="../../9EA3EA7E-376A-4B6F-86D4-F7DEFFC5E922/assets/50C0E26D66851E2E73A8BFFB502226A3.png" width="152.00" height="413.00" transform="matrix(1.00, 0.00, -0.00, -1.00, 568.0, 409.0)" opacity="0.45"></image><path d="M 720.0 404.2 L 720.0 0.0 L 591.3 0.2 C 672.9 70.6 732.6 242.8 576.0 405.0 L 720.0 404.2 Z M 720.0 404.2 " fill="#595959" fill-opacity="0.40"></path><text xml:space="preserve" font-family="HelveticaNeue" font-size="46.0" fill="#FFFFFF" transform="matrix(1.00, 0.00, -0.00, -1.00, 40.0, 337.0)">T</text><text xml:space="preserve" font-family="HelveticaNeue" font-size="46.0" fill="#FFFFFF" transform="matrix(1.00, 0.00, -0.00, -1.00, 66.4, 337.0)">h</text><text xml:space="preserve" font-family="HelveticaNeue" font-size="46.0" fill="#FFFFFF" transform="matrix(1.00, 0.00, -0.00, -1.00, 92.0, 337.0)">e</text><text xml:space="preserve" font-family="HelveticaNeue" font-size="46.0" fill="#FFFFFF" transform="matrix(1.00, 0.00, -0.00, -1.00, 116.7, 337.0)"> </text><text xml:space="preserve" font-family="HelveticaNeue" font-size="46.0" fill="#FFFFFF" transform="matrix(1.00, 0.00, -0.00, -1.00, 129.5, 337.0)">p</text><text xml:space="preserve" font-family="HelveticaNeue" font-size="46.0" fill="#FFFFFF" transform="matrix(1.00, 0.00, -0.00, -1.00, 156.7, 337.0)">r</text><text xml:space="preserve" font-family="HelveticaNeue" font-size="46.0" fill="#FFFFFF" transform="matrix(1.00, 0.00, -0.00, -1.00, 171.2, 337.0)">o</text><text xml:space="preserve" font-family="HelveticaNeue" font-size="46.0" fill="#FFFFFF" transform="matrix(1.00, 0.00, -0.00, -1.00, 197.6, 337.0)">m</text><text xml:space="preserve" font-family="HelveticaNeue" font-size="46.0" fill="#FFFFFF" transform="matrix(1.00, 0.00, -0.00, -1.00, 236.9, 337.0)">i</text><text xml:space="preserve" font-family="HelveticaNeue" font-size="46.0" fill="#FFFFFF" transform="matrix(1.00, 0.00, -0.00, -1.00, 247.1, 337.0)">s</text><text xml:space="preserve" font-family="HelveticaNeue" font-size="46.0" fill="#FFFFFF" transform="matrix(1.00, 0.00, -0.00, -1.00, 270.1, 337.0)">e</text><text xml:space="preserve" font-family="HelveticaNeue" font-size="46.0" fill="#FFFFFF" transform="matrix(1.00, 0.00, -0.00, -1.00, 294.8, 337.0)"> </text><text xml:space="preserve" font-family="HelveticaNeue" font-size="46.0" fill="#FFFFFF" transform="matrix(1.00, 0.00, -0.00, -1.00, 307.6, 337.0)">o</text><text xml:space="preserve" font-family="HelveticaNeue" font-size="46.0" fill="#FFFFFF" transform="matrix(1.00, 0.00, -0.00, -1.00, 334.0, 337.0)">f</text><text xml:space="preserve" font-family="HelveticaNeue" font-size="46.0" fill="#FFFFFF" transform="matrix(1.00, 0.00, -0.00, -1.00, 347.6, 337.0)"> </text><text xml:space="preserve" font-family="HelveticaNeue" font-size="46.0" fill="#FFFFFF" transform="matrix(1.00, 0.00, -0.00, -1.00, 360.4, 337.0)">B</text><text xml:space="preserve" font-family="HelveticaNeue" font-size="46.0" fill="#FFFFFF" transform="matrix(1.00, 0.00, -0.00, -1.00, 391.9, 337.0)">i</text><text xml:space="preserve" font-family="HelveticaNeue" font-size="46.0" fill="#FFFFFF" transform="matrix(1.00, 0.00, -0.00, -1.00, 402.1, 337.0)">g</text><text xml:space="preserve" font-family="HelveticaNeue" font-size="46.0" fill="#FFFFFF" transform="matrix(1.00, 0.00, -0.00, -1.00, 428.5, 337.0)"> </text><text xml:space="preserve" font-family="HelveticaNeue" font-size="46.0" fill="#FFFFFF" transform="matrix(1.00, 0.00, -0.00, -1.00, 441.3, 337.0)">D</text><text xml:space="preserve" font-family="HelveticaNeue" font-size="46.0" fill="#FFFFFF" transform="matrix(1.00, 0.00, -0.00, -1.00, 473.7, 337.0)">a</text><text xml:space="preserve" font-family="HelveticaNeue" font-size="46.0" fill="#FFFFFF" transform="matrix(1.00, 0.00, -0.00, -1.00, 498.4, 337.0)">t</text><text xml:space="preserve" font-family="HelveticaNeue" font-size="46.0" fill="#FFFFFF" transform="matrix(1.00, 0.00, -0.00, -1.00, 512.9, 337.0)">a</text><text xml:space="preserve" font-family="AppleSymbols" font-size="24.0" fill="#6EA0B0" transform="matrix(1.00, 0.00, -0.00, -1.00, 42.5, 285.4)">⦿</text><text xml:space="preserve" font-family="ArialMT" font-size="30.0" fill="#FFFFFF" transform="matrix(1.00, 0.00, -0.00, -1.00, 73.0, 280.0)">I</text><text xml:space="preserve" font-family="ArialMT" font-size="30.0" fill="#FFFFFF" transform="matrix(1.00, 0.00, -0.00, -1.00, 81.3, 280.0)">f</text><text xml:space="preserve" font-family="ArialMT" font-size="30.0" fill="#FFFFFF" transform="matrix(1.00, 0.00, -0.00, -1.00, 89.7, 280.0)"> </text><text xml:space="preserve" font-family="ArialMT" font-size="30.0" fill="#FFFFFF" transform="matrix(1.00, 0.00, -0.00, -1.00, 98.0, 280.0)">w</text><text xml:space="preserve" font-family="ArialMT" font-size="30.0" fill="#FFFFFF" transform="matrix(1.00, 0.00, -0.00, -1.00, 119.7, 280.0)">e</text><text xml:space="preserve" font-family="ArialMT" font-size="30.0" fill="#FFFFFF" transform="matrix(1.00, 0.00, -0.00, -1.00, 136.3, 280.0)"> </text><text xml:space="preserve" font-family="ArialMT" font-size="30.0" fill="#FFFFFF" transform="matrix(1.00, 0.00, -0.00, -1.00, 144.7, 280.0)">g</text><text xml:space="preserve" font-family="ArialMT" font-size="30.0" fill="#FFFFFF" transform="matrix(1.00, 0.00, -0.00, -1.00, 161.4, 280.0)">a</text><text xml:space="preserve" font-family="ArialMT" font-size="30.0" fill="#FFFFFF" transform="matrix(1.00, 0.00, -0.00, -1.00, 178.1, 280.0)">t</text><text xml:space="preserve" font-family="ArialMT" font-size="30.0" fill="#FFFFFF" transform="matrix(1.00, 0.00, -0.00, -1.00, 186.4, 280.0)">h</text><text xml:space="preserve" font-family="ArialMT" font-size="30.0" fill="#FFFFFF" transform="matrix(1.00, 0.00, -0.00, -1.00, 203.1, 280.0)">e</text><text xml:space="preserve" font-family="ArialMT" font-size="30.0" fill="#FFFFFF" transform="matrix(1.00, 0.00, -0.00, -1.00, 219.8, 280.0)">r</text><text xml:space="preserve" font-family="ArialMT" font-size="30.0" fill="#FFFFFF" transform="matrix(1.00, 0.00, -0.00, -1.00, 229.8, 280.0)"> </text><text xml:space="preserve" font-family="ArialMT" font-size="30.0" fill="#FFFFFF" transform="matrix(1.00, 0.00, -0.00, -1.00, 238.1, 280.0)">e</text><text xml:space="preserve" font-family="ArialMT" font-size="30.0" fill="#FFFFFF" transform="matrix(1.00, 0.00, -0.00, -1.00, 254.8, 280.0)">n</text><text xml:space="preserve" font-family="ArialMT" font-size="30.0" fill="#FFFFFF" transform="matrix(1.00, 0.00, -0.00, -1.00, 271.5, 280.0)">o</text><text xml:space="preserve" font-family="ArialMT" font-size="30.0" fill="#FFFFFF" transform="matrix(1.00, 0.00, -0.00, -1.00, 288.2, 280.0)">u</text><text xml:space="preserve" font-family="ArialMT" font-size="30.0" fill="#FFFFFF" transform="matrix(1.00, 0.00, -0.00, -1.00, 304.9, 280.0)">g</text><text xml:space="preserve" font-family="ArialMT" font-size="30.0" fill="#FFFFFF" transform="matrix(1.00, 0.00, -0.00, -1.00, 321.5, 280.0)">h</text><text xml:space="preserve" font-family="ArialMT" font-size="30.0" fill="#FFFFFF" transform="matrix(1.00, 0.00, -0.00, -1.00, 338.2, 280.0)"> </text><text xml:space="preserve" font-family="Arial-ItalicMT" font-style="italic" font-size="30.0" fill="#FFFFFF" transform="matrix(1.00, 0.00, -0.00, -1.00, 346.5, 280.0)">i</text><text xml:space="preserve" font-family="Arial-ItalicMT" font-style="italic" font-size="30.0" fill="#FFFFFF" transform="matrix(1.00, 0.00, -0.00, -1.00, 353.2, 280.0)">n</text><text xml:space="preserve" font-family="Arial-ItalicMT" font-style="italic" font-size="30.0" fill="#FFFFFF" transform="matrix(1.00, 0.00, -0.00, -1.00, 369.9, 280.0)">f</text><text xml:space="preserve" font-family="Arial-ItalicMT" font-style="italic" font-size="30.0" fill="#FFFFFF" transform="matrix(1.00, 0.00, -0.00, -1.00, 378.2, 280.0)">o</text><text xml:space="preserve" font-family="Arial-ItalicMT" font-style="italic" font-size="30.0" fill="#FFFFFF" transform="matrix(1.00, 0.00, -0.00, -1.00, 394.9, 280.0)">r</text><text xml:space="preserve" font-family="Arial-ItalicMT" font-style="italic" font-size="30.0" fill="#FFFFFF" transform="matrix(1.00, 0.00, -0.00, -1.00, 404.9, 280.0)">m</text><text xml:space="preserve" font-family="Arial-ItalicMT" font-style="italic" font-size="30.0" fill="#FFFFFF" transform="matrix(1.00, 0.00, -0.00, -1.00, 429.9, 280.0)">a</text><text xml:space="preserve" font-family="Arial-ItalicMT" font-style="italic" font-size="30.0" fill="#FFFFFF" transform="matrix(1.00, 0.00, -0.00, -1.00, 446.6, 280.0)">t</text><text xml:space="preserve" font-family="Arial-ItalicMT" font-style="italic" font-size="30.0" fill="#FFFFFF" transform="matrix(1.00, 0.00, -0.00, -1.00, 454.9, 280.0)">i</text><text xml:space="preserve" font-family="Arial-ItalicMT" font-style="italic" font-size="30.0" fill="#FFFFFF" transform="matrix(1.00, 0.00, -0.00, -1.00, 461.6, 280.0)">o</text><text xml:space="preserve" font-family="Arial-ItalicMT" font-style="italic" font-size="30.0" fill="#FFFFFF" transform="matrix(1.00, 0.00, -0.00, -1.00, 478.3, 280.0)">n</text><text xml:space="preserve" font-family="ArialMT" font-size="30.0" fill="#FFFFFF" transform="matrix(1.00, 0.00, -0.00, -1.00, 494.9, 280.0)"> </text><text xml:space="preserve" font-family="ArialMT" font-size="30.0" fill="#FFFFFF" transform="matrix(1.00, 0.00, -0.00, -1.00, 503.3, 280.0)">a</text><text xml:space="preserve" font-family="ArialMT" font-size="30.0" fill="#FFFFFF" transform="matrix(1.00, 0.00, -0.00, -1.00, 519.9, 280.0)">b</text><text xml:space="preserve" font-family="ArialMT" font-size="30.0" fill="#FFFFFF" transform="matrix(1.00, 0.00, -0.00, -1.00, 536.6, 280.0)">o</text><text xml:space="preserve" font-family="ArialMT" font-size="30.0" fill="#FFFFFF" transform="matrix(1.00, 0.00, -0.00, -1.00, 553.3, 280.0)">u</text><text xml:space="preserve" font-family="ArialMT" font-size="30.0" fill="#FFFFFF" transform="matrix(1.00, 0.00, -0.00, -1.00, 570.0, 280.0)">t</text><text xml:space="preserve" font-family="ArialMT" font-size="30.0" fill="#FFFFFF" transform="matrix(1.00, 0.00, -0.00, -1.00, 578.3, 280.0)"> </text><text xml:space="preserve" font-family="ArialMT" font-size="30.0" fill="#FFFFFF" transform="matrix(1.00, 0.00, -0.00, -1.00, 73.0, 246.0)">w</text><text xml:space="preserve" font-family="ArialMT" font-size="30.0" fill="#FFFFFF" transform="matrix(1.00, 0.00, -0.00, -1.00, 94.7, 246.0)">h</text><text xml:space="preserve" font-family="ArialMT" font-size="30.0" fill="#FFFFFF" transform="matrix(1.00, 0.00, -0.00, -1.00, 111.4, 246.0)">a</text><text xml:space="preserve" font-family="ArialMT" font-size="30.0" fill="#FFFFFF" transform="matrix(1.00, 0.00, -0.00, -1.00, 128.1, 246.0)">t</text><text xml:space="preserve" font-family="ArialMT" font-size="30.0" fill="#FFFFFF" transform="matrix(1.00, 0.00, -0.00, -1.00, 136.4, 246.0)"> </text><text xml:space="preserve" font-family="ArialMT" font-size="30.0" fill="#FFFFFF" transform="matrix(1.00, 0.00, -0.00, -1.00, 144.7, 246.0)">w</text><text xml:space="preserve" font-family="ArialMT" font-size="30.0" fill="#FFFFFF" transform="matrix(1.00, 0.00, -0.00, -1.00, 166.4, 246.0)">e</text><text xml:space="preserve" font-family="ArialMT" font-size="30.0" fill="#FFFFFF" transform="matrix(1.00, 0.00, -0.00, -1.00, 183.1, 246.0)">’</text><text xml:space="preserve" font-family="ArialMT" font-size="30.0" fill="#FFFFFF" transform="matrix(1.00, 0.00, -0.00, -1.00, 189.7, 246.0)">r</text><text xml:space="preserve" font-family="ArialMT" font-size="30.0" fill="#FFFFFF" transform="matrix(1.00, 0.00, -0.00, -1.00, 199.7, 246.0)">e</text><text xml:space="preserve" font-family="ArialMT" font-size="30.0" fill="#FFFFFF" transform="matrix(1.00, 0.00, -0.00, -1.00, 216.4, 246.0)"> </text><text xml:space="preserve" font-family="ArialMT" font-size="30.0" fill="#FFFFFF" transform="matrix(1.00, 0.00, -0.00, -1.00, 224.8, 246.0)">i</text><text xml:space="preserve" font-family="ArialMT" font-size="30.0" fill="#FFFFFF" transform="matrix(1.00, 0.00, -0.00, -1.00, 231.4, 246.0)">n</text><text xml:space="preserve" font-family="ArialMT" font-size="30.0" fill="#FFFFFF" transform="matrix(1.00, 0.00, -0.00, -1.00, 248.1, 246.0)">t</text><text xml:space="preserve" font-family="ArialMT" font-size="30.0" fill="#FFFFFF" transform="matrix(1.00, 0.00, -0.00, -1.00, 256.4, 246.0)">e</text><text xml:space="preserve" font-family="ArialMT" font-size="30.0" fill="#FFFFFF" transform="matrix(1.00, 0.00, -0.00, -1.00, 273.1, 246.0)">r</text><text xml:space="preserve" font-family="ArialMT" font-size="30.0" fill="#FFFFFF" transform="matrix(1.00, 0.00, -0.00, -1.00, 283.1, 246.0)">e</text><text xml:space="preserve" font-family="ArialMT" font-size="30.0" fill="#FFFFFF" transform="matrix(1.00, 0.00, -0.00, -1.00, 299.8, 246.0)">s</text><text xml:space="preserve" font-family="ArialMT" font-size="30.0" fill="#FFFFFF" transform="matrix(1.00, 0.00, -0.00, -1.00, 314.8, 246.0)">t</text><text xml:space="preserve" font-family="ArialMT" font-size="30.0" fill="#FFFFFF" transform="matrix(1.00, 0.00, -0.00, -1.00, 323.1, 246.0)">e</text><text xml:space="preserve" font-family="ArialMT" font-size="30.0" fill="#FFFFFF" transform="matrix(1.00, 0.00, -0.00, -1.00, 339.8, 246.0)">d</text><text xml:space="preserve" font-family="ArialMT" font-size="30.0" fill="#FFFFFF" transform="matrix(1.00, 0.00, -0.00, -1.00, 356.5, 246.0)"> </text><text xml:space="preserve" font-family="ArialMT" font-size="30.0" fill="#FFFFFF" transform="matrix(1.00, 0.00, -0.00, -1.00, 364.9, 246.0)">i</text><text xml:space="preserve" font-family="ArialMT" font-size="30.0" fill="#FFFFFF" transform="matrix(1.00, 0.00, -0.00, -1.00, 371.5, 246.0)">n</text><text xml:space="preserve" font-family="ArialMT" font-size="30.0" fill="#FFFFFF" transform="matrix(1.00, 0.00, -0.00, -1.00, 388.2, 246.0)">,</text><text xml:space="preserve" font-family="ArialMT" font-size="30.0" fill="#FFFFFF" transform="matrix(1.00, 0.00, -0.00, -1.00, 396.5, 246.0)"> </text><text xml:space="preserve" font-family="ArialMT" font-size="30.0" fill="#FFFFFF" transform="matrix(1.00, 0.00, -0.00, -1.00, 404.9, 246.0)">w</text><text xml:space="preserve" font-family="ArialMT" font-size="30.0" fill="#FFFFFF" transform="matrix(1.00, 0.00, -0.00, -1.00, 426.5, 246.0)">e</text><text xml:space="preserve" font-family="ArialMT" font-size="30.0" fill="#FFFFFF" transform="matrix(1.00, 0.00, -0.00, -1.00, 443.2, 246.0)"> </text><text xml:space="preserve" font-family="ArialMT" font-size="30.0" fill="#FFFFFF" transform="matrix(1.00, 0.00, -0.00, -1.00, 451.6, 246.0)">s</text><text xml:space="preserve" font-family="ArialMT" font-size="30.0" fill="#FFFFFF" transform="matrix(1.00, 0.00, -0.00, -1.00, 466.6, 246.0)">h</text><text xml:space="preserve" font-family="ArialMT" font-size="30.0" fill="#FFFFFF" transform="matrix(1.00, 0.00, -0.00, -1.00, 483.3, 246.0)">o</text><text xml:space="preserve" font-family="ArialMT" font-size="30.0" fill="#FFFFFF" transform="matrix(1.00, 0.00, -0.00, -1.00, 499.9, 246.0)">u</text><text xml:space="preserve" font-family="ArialMT" font-size="30.0" fill="#FFFFFF" transform="matrix(1.00, 0.00, -0.00, -1.00, 516.6, 246.0)">l</text><text xml:space="preserve" font-family="ArialMT" font-size="30.0" fill="#FFFFFF" transform="matrix(1.00, 0.00, -0.00, -1.00, 523.3, 246.0)">d</text><text xml:space="preserve" font-family="ArialMT" font-size="30.0" fill="#FFFFFF" transform="matrix(1.00, 0.00, -0.00, -1.00, 540.0, 246.0)"> </text><text xml:space="preserve" font-family="ArialMT" font-size="30.0" fill="#FFFFFF" transform="matrix(1.00, 0.00, -0.00, -1.00, 548.3, 246.0)">b</text><text xml:space="preserve" font-family="ArialMT" font-size="30.0" fill="#FFFFFF" transform="matrix(1.00, 0.00, -0.00, -1.00, 565.0, 246.0)">e</text><text xml:space="preserve" font-family="ArialMT" font-size="30.0" fill="#FFFFFF" transform="matrix(1.00, 0.00, -0.00, -1.00, 581.7, 246.0)"> </text><text xml:space="preserve" font-family="ArialMT" font-size="30.0" fill="#FFFFFF" transform="matrix(1.00, 0.00, -0.00, -1.00, 73.0, 212.0)">a</text><text xml:space="preserve" font-family="ArialMT" font-size="30.0" fill="#FFFFFF" transform="matrix(1.00, 0.00, -0.00, -1.00, 89.7, 212.0)">b</text><text xml:space="preserve" font-family="ArialMT" font-size="30.0" fill="#FFFFFF" transform="matrix(1.00, 0.00, -0.00, -1.00, 106.4, 212.0)">l</text><text xml:space="preserve" font-family="ArialMT" font-size="30.0" fill="#FFFFFF" transform="matrix(1.00, 0.00, -0.00, -1.00, 113.1, 212.0)">e</text><text xml:space="preserve" font-family="ArialMT" font-size="30.0" fill="#FFFFFF" transform="matrix(1.00, 0.00, -0.00, -1.00, 129.7, 212.0)"> </text><text xml:space="preserve" font-family="ArialMT" font-size="30.0" fill="#FFFFFF" transform="matrix(1.00, 0.00, -0.00, -1.00, 138.1, 212.0)">t</text><text xml:space="preserve" font-family="ArialMT" font-size="30.0" fill="#FFFFFF" transform="matrix(1.00, 0.00, -0.00, -1.00, 146.4, 212.0)">o</text><text xml:space="preserve" font-family="ArialMT" font-size="30.0" fill="#FFFFFF" transform="matrix(1.00, 0.00, -0.00, -1.00, 163.1, 212.0)"> </text><text xml:space="preserve" font-family="LucidaGrande" font-size="23.4" fill="#6EA0B0" transform="matrix(1.00, 0.00, -0.00, -1.00, 74.9, 174.5)">●</text><text xml:space="preserve" font-family="ArialMT" font-size="26.0" fill="#FFFFFF" transform="matrix(1.00, 0.00, -0.00, -1.00, 96.0, 174.0)">A</text><text xml:space="preserve" font-family="ArialMT" font-size="26.0" fill="#FFFFFF" transform="matrix(1.00, 0.00, -0.00, -1.00, 113.3, 174.0)">c</text><text xml:space="preserve" font-family="ArialMT" font-size="26.0" fill="#FFFFFF" transform="matrix(1.00, 0.00, -0.00, -1.00, 126.3, 174.0)">c</text><text xml:space="preserve" font-family="ArialMT" font-size="26.0" fill="#FFFFFF" transform="matrix(1.00, 0.00, -0.00, -1.00, 139.3, 174.0)">u</text><text xml:space="preserve" font-family="ArialMT" font-size="26.0" fill="#FFFFFF" transform="matrix(1.00, 0.00, -0.00, -1.00, 153.8, 174.0)">r</text><text xml:space="preserve" font-family="ArialMT" font-size="26.0" fill="#FFFFFF" transform="matrix(1.00, 0.00, -0.00, -1.00, 162.5, 174.0)">a</text><text xml:space="preserve" font-family="ArialMT" font-size="26.0" fill="#FFFFFF" transform="matrix(1.00, 0.00, -0.00, -1.00, 176.9, 174.0)">t</text><text xml:space="preserve" font-family="ArialMT" font-size="26.0" fill="#FFFFFF" transform="matrix(1.00, 0.00, -0.00, -1.00, 184.1, 174.0)">e</text><text xml:space="preserve" font-family="ArialMT" font-size="26.0" fill="#FFFFFF" transform="matrix(1.00, 0.00, -0.00, -1.00, 198.6, 174.0)">l</text><text xml:space="preserve" font-family="ArialMT" font-size="26.0" fill="#FFFFFF" transform="matrix(1.00, 0.00, -0.00, -1.00, 204.4, 174.0)">y</text><text xml:space="preserve" font-family="ArialMT" font-size="26.0" fill="#FFFFFF" transform="matrix(1.00, 0.00, -0.00, -1.00, 217.4, 174.0)"> </text><text xml:space="preserve" font-family="ArialMT" font-size="26.0" fill="#FFFFFF" transform="matrix(1.00, 0.00, -0.00, -1.00, 224.6, 174.0)">p</text><text xml:space="preserve" font-family="ArialMT" font-size="26.0" fill="#FFFFFF" transform="matrix(1.00, 0.00, -0.00, -1.00, 239.1, 174.0)">r</text><text xml:space="preserve" font-family="ArialMT" font-size="26.0" fill="#FFFFFF" transform="matrix(1.00, 0.00, -0.00, -1.00, 247.7, 174.0)">e</text><text xml:space="preserve" font-family="ArialMT" font-size="26.0" fill="#FFFFFF" transform="matrix(1.00, 0.00, -0.00, -1.00, 262.2, 174.0)">d</text><text xml:space="preserve" font-family="ArialMT" font-size="26.0" fill="#FFFFFF" transform="matrix(1.00, 0.00, -0.00, -1.00, 276.7, 174.0)">i</text><text xml:space="preserve" font-family="ArialMT" font-size="26.0" fill="#FFFFFF" transform="matrix(1.00, 0.00, -0.00, -1.00, 282.4, 174.0)">c</text><text xml:space="preserve" font-family="ArialMT" font-size="26.0" fill="#FFFFFF" transform="matrix(1.00, 0.00, -0.00, -1.00, 295.4, 174.0)">t</text><text xml:space="preserve" font-family="ArialMT" font-size="26.0" fill="#FFFFFF" transform="matrix(1.00, 0.00, -0.00, -1.00, 302.7, 174.0)"> </text><text xml:space="preserve" font-family="ArialMT" font-size="26.0" fill="#FFFFFF" transform="matrix(1.00, 0.00, -0.00, -1.00, 309.9, 174.0)">o</text><text xml:space="preserve" font-family="ArialMT" font-size="26.0" fill="#FFFFFF" transform="matrix(1.00, 0.00, -0.00, -1.00, 324.4, 174.0)">u</text><text xml:space="preserve" font-family="ArialMT" font-size="26.0" fill="#FFFFFF" transform="matrix(1.00, 0.00, -0.00, -1.00, 338.8, 174.0)">t</text><text xml:space="preserve" font-family="ArialMT" font-size="26.0" fill="#FFFFFF" transform="matrix(1.00, 0.00, -0.00, -1.00, 346.0, 174.0)">c</text><text xml:space="preserve" font-family="ArialMT" font-size="26.0" fill="#FFFFFF" transform="matrix(1.00, 0.00, -0.00, -1.00, 359.0, 174.0)">o</text><text xml:space="preserve" font-family="ArialMT" font-size="26.0" fill="#FFFFFF" transform="matrix(1.00, 0.00, -0.00, -1.00, 373.5, 174.0)">m</text><text xml:space="preserve" font-family="ArialMT" font-size="26.0" fill="#FFFFFF" transform="matrix(1.00, 0.00, -0.00, -1.00, 395.2, 174.0)">e</text><text xml:space="preserve" font-family="ArialMT" font-size="26.0" fill="#FFFFFF" transform="matrix(1.00, 0.00, -0.00, -1.00, 409.6, 174.0)">s</text><text xml:space="preserve" font-family="LucidaGrande" font-size="23.4" fill="#6EA0B0" transform="matrix(1.00, 0.00, -0.00, -1.00, 74.9, 137.3)">●</text><text xml:space="preserve" font-family="ArialMT" font-size="26.0" fill="#FFFFFF" transform="matrix(1.00, 0.00, -0.00, -1.00, 96.0, 137.0)">A</text><text xml:space="preserve" font-family="ArialMT" font-size="26.0" fill="#FFFFFF" transform="matrix(1.00, 0.00, -0.00, -1.00, 113.3, 137.0)">c</text><text xml:space="preserve" font-family="ArialMT" font-size="26.0" fill="#FFFFFF" transform="matrix(1.00, 0.00, -0.00, -1.00, 126.3, 137.0)">c</text><text xml:space="preserve" font-family="ArialMT" font-size="26.0" fill="#FFFFFF" transform="matrix(1.00, 0.00, -0.00, -1.00, 139.3, 137.0)">u</text><text xml:space="preserve" font-family="ArialMT" font-size="26.0" fill="#FFFFFF" transform="matrix(1.00, 0.00, -0.00, -1.00, 153.8, 137.0)">r</text><text xml:space="preserve" font-family="ArialMT" font-size="26.0" fill="#FFFFFF" transform="matrix(1.00, 0.00, -0.00, -1.00, 162.5, 137.0)">a</text><text xml:space="preserve" font-family="ArialMT" font-size="26.0" fill="#FFFFFF" transform="matrix(1.00, 0.00, -0.00, -1.00, 176.9, 137.0)">t</text><text xml:space="preserve" font-family="ArialMT" font-size="26.0" fill="#FFFFFF" transform="matrix(1.00, 0.00, -0.00, -1.00, 184.1, 137.0)">e</text><text xml:space="preserve" font-family="ArialMT" font-size="26.0" fill="#FFFFFF" transform="matrix(1.00, 0.00, -0.00, -1.00, 198.6, 137.0)">l</text><text xml:space="preserve" font-family="ArialMT" font-size="26.0" fill="#FFFFFF" transform="matrix(1.00, 0.00, -0.00, -1.00, 204.4, 137.0)">y</text><text xml:space="preserve" font-family="ArialMT" font-size="26.0" fill="#FFFFFF" transform="matrix(1.00, 0.00, -0.00, -1.00, 217.4, 137.0)"> </text><text xml:space="preserve" font-family="ArialMT" font-size="26.0" fill="#FFFFFF" transform="matrix(1.00, 0.00, -0.00, -1.00, 224.6, 137.0)">p</text><text xml:space="preserve" font-family="ArialMT" font-size="26.0" fill="#FFFFFF" transform="matrix(1.00, 0.00, -0.00, -1.00, 239.1, 137.0)">r</text><text xml:space="preserve" font-family="ArialMT" font-size="26.0" fill="#FFFFFF" transform="matrix(1.00, 0.00, -0.00, -1.00, 247.7, 137.0)">e</text><text xml:space="preserve" font-family="ArialMT" font-size="26.0" fill="#FFFFFF" transform="matrix(1.00, 0.00, -0.00, -1.00, 262.2, 137.0)">d</text><text xml:space="preserve" font-family="ArialMT" font-size="26.0" fill="#FFFFFF" transform="matrix(1.00, 0.00, -0.00, -1.00, 276.7, 137.0)">i</text><text xml:space="preserve" font-family="ArialMT" font-size="26.0" fill="#FFFFFF" transform="matrix(1.00, 0.00, -0.00, -1.00, 282.4, 137.0)">c</text><text xml:space="preserve" font-family="ArialMT" font-size="26.0" fill="#FFFFFF" transform="matrix(1.00, 0.00, -0.00, -1.00, 295.4, 137.0)">t</text><text xml:space="preserve" font-family="ArialMT" font-size="26.0" fill="#FFFFFF" transform="matrix(1.00, 0.00, -0.00, -1.00, 302.7, 137.0)"> </text><text xml:space="preserve" font-family="ArialMT" font-size="26.0" fill="#FFFFFF" transform="matrix(1.00, 0.00, -0.00, -1.00, 309.9, 137.0)">t</text><text xml:space="preserve" font-family="ArialMT" font-size="26.0" fill="#FFFFFF" transform="matrix(1.00, 0.00, -0.00, -1.00, 317.1, 137.0)">h</text><text xml:space="preserve" font-family="ArialMT" font-size="26.0" fill="#FFFFFF" transform="matrix(1.00, 0.00, -0.00, -1.00, 331.6, 137.0)">e</text><text xml:space="preserve" font-family="ArialMT" font-size="26.0" fill="#FFFFFF" transform="matrix(1.00, 0.00, -0.00, -1.00, 346.0, 137.0)"> </text><text xml:space="preserve" font-family="ArialMT" font-size="26.0" fill="#FFFFFF" transform="matrix(1.00, 0.00, -0.00, -1.00, 353.3, 137.0)">e</text><text xml:space="preserve" font-family="ArialMT" font-size="26.0" fill="#FFFFFF" transform="matrix(1.00, 0.00, -0.00, -1.00, 367.7, 137.0)">f</text><text xml:space="preserve" font-family="ArialMT" font-size="26.0" fill="#FFFFFF" transform="matrix(1.00, 0.00, -0.00, -1.00, 374.5, 137.0)">f</text><text xml:space="preserve" font-family="ArialMT" font-size="26.0" fill="#FFFFFF" transform="matrix(1.00, 0.00, -0.00, -1.00, 381.7, 137.0)">e</text><text xml:space="preserve" font-family="ArialMT" font-size="26.0" fill="#FFFFFF" transform="matrix(1.00, 0.00, -0.00, -1.00, 396.2, 137.0)">c</text><text xml:space="preserve" font-family="ArialMT" font-size="26.0" fill="#FFFFFF" transform="matrix(1.00, 0.00, -0.00, -1.00, 409.2, 137.0)">t</text><text xml:space="preserve" font-family="ArialMT" font-size="26.0" fill="#FFFFFF" transform="matrix(1.00, 0.00, -0.00, -1.00, 416.4, 137.0)"> </text><text xml:space="preserve" font-family="ArialMT" font-size="26.0" fill="#FFFFFF" transform="matrix(1.00, 0.00, -0.00, -1.00, 423.6, 137.0)">o</text><text xml:space="preserve" font-family="ArialMT" font-size="26.0" fill="#FFFFFF" transform="matrix(1.00, 0.00, -0.00, -1.00, 438.1, 137.0)">f</text><text xml:space="preserve" font-family="ArialMT" font-size="26.0" fill="#FFFFFF" transform="matrix(1.00, 0.00, -0.00, -1.00, 445.3, 137.0)"> </text><text xml:space="preserve" font-family="ArialMT" font-size="26.0" fill="#FFFFFF" transform="matrix(1.00, 0.00, -0.00, -1.00, 452.5, 137.0)">i</text><text xml:space="preserve" font-family="ArialMT" font-size="26.0" fill="#FFFFFF" transform="matrix(1.00, 0.00, -0.00, -1.00, 458.3, 137.0)">n</text><text xml:space="preserve" font-family="ArialMT" font-size="26.0" fill="#FFFFFF" transform="matrix(1.00, 0.00, -0.00, -1.00, 472.7, 137.0)">t</text><text xml:space="preserve" font-family="ArialMT" font-size="26.0" fill="#FFFFFF" transform="matrix(1.00, 0.00, -0.00, -1.00, 480.0, 137.0)">e</text><text xml:space="preserve" font-family="ArialMT" font-size="26.0" fill="#FFFFFF" transform="matrix(1.00, 0.00, -0.00, -1.00, 494.4, 137.0)">r</text><text xml:space="preserve" font-family="ArialMT" font-size="26.0" fill="#FFFFFF" transform="matrix(1.00, 0.00, -0.00, -1.00, 503.1, 137.0)">v</text><text xml:space="preserve" font-family="ArialMT" font-size="26.0" fill="#FFFFFF" transform="matrix(1.00, 0.00, -0.00, -1.00, 516.1, 137.0)">e</text><text xml:space="preserve" font-family="ArialMT" font-size="26.0" fill="#FFFFFF" transform="matrix(1.00, 0.00, -0.00, -1.00, 530.5, 137.0)">n</text><text xml:space="preserve" font-family="ArialMT" font-size="26.0" fill="#FFFFFF" transform="matrix(1.00, 0.00, -0.00, -1.00, 545.0, 137.0)">t</text><text xml:space="preserve" font-family="ArialMT" font-size="26.0" fill="#FFFFFF" transform="matrix(1.00, 0.00, -0.00, -1.00, 552.2, 137.0)">i</text><text xml:space="preserve" font-family="ArialMT" font-size="26.0" fill="#FFFFFF" transform="matrix(1.00, 0.00, -0.00, -1.00, 558.0, 137.0)">o</text><text xml:space="preserve" font-family="ArialMT" font-size="26.0" fill="#FFFFFF" transform="matrix(1.00, 0.00, -0.00, -1.00, 572.5, 137.0)">n</text><text xml:space="preserve" font-family="ArialMT" font-size="26.0" fill="#FFFFFF" transform="matrix(1.00, 0.00, -0.00, -1.00, 586.9, 137.0)">s</text><text xml:space="preserve" font-family="LucidaGrande" font-size="23.4" fill="#6EA0B0" transform="matrix(1.00, 0.00, -0.00, -1.00, 74.9, 100.0)">●</text><text xml:space="preserve" font-family="ArialMT" font-size="26.0" fill="#FFFFFF" transform="matrix(1.00, 0.00, -0.00, -1.00, 96.0, 100.0)">A</text><text xml:space="preserve" font-family="ArialMT" font-size="26.0" fill="#FFFFFF" transform="matrix(1.00, 0.00, -0.00, -1.00, 113.3, 100.0)">c</text><text xml:space="preserve" font-family="ArialMT" font-size="26.0" fill="#FFFFFF" transform="matrix(1.00, 0.00, -0.00, -1.00, 126.3, 100.0)">c</text><text xml:space="preserve" font-family="ArialMT" font-size="26.0" fill="#FFFFFF" transform="matrix(1.00, 0.00, -0.00, -1.00, 139.3, 100.0)">u</text><text xml:space="preserve" font-family="ArialMT" font-size="26.0" fill="#FFFFFF" transform="matrix(1.00, 0.00, -0.00, -1.00, 153.8, 100.0)">r</text><text xml:space="preserve" font-family="ArialMT" font-size="26.0" fill="#FFFFFF" transform="matrix(1.00, 0.00, -0.00, -1.00, 162.5, 100.0)">a</text><text xml:space="preserve" font-family="ArialMT" font-size="26.0" fill="#FFFFFF" transform="matrix(1.00, 0.00, -0.00, -1.00, 176.9, 100.0)">t</text><text xml:space="preserve" font-family="ArialMT" font-size="26.0" fill="#FFFFFF" transform="matrix(1.00, 0.00, -0.00, -1.00, 184.1, 100.0)">e</text><text xml:space="preserve" font-family="ArialMT" font-size="26.0" fill="#FFFFFF" transform="matrix(1.00, 0.00, -0.00, -1.00, 198.6, 100.0)">l</text><text xml:space="preserve" font-family="ArialMT" font-size="26.0" fill="#FFFFFF" transform="matrix(1.00, 0.00, -0.00, -1.00, 204.4, 100.0)">y</text><text xml:space="preserve" font-family="ArialMT" font-size="26.0" fill="#FFFFFF" transform="matrix(1.00, 0.00, -0.00, -1.00, 217.4, 100.0)"> </text><text xml:space="preserve" font-family="ArialMT" font-size="26.0" fill="#FFFFFF" transform="matrix(1.00, 0.00, -0.00, -1.00, 224.6, 100.0)">p</text><text xml:space="preserve" font-family="ArialMT" font-size="26.0" fill="#FFFFFF" transform="matrix(1.00, 0.00, -0.00, -1.00, 239.1, 100.0)">r</text><text xml:space="preserve" font-family="ArialMT" font-size="26.0" fill="#FFFFFF" transform="matrix(1.00, 0.00, -0.00, -1.00, 247.7, 100.0)">e</text><text xml:space="preserve" font-family="ArialMT" font-size="26.0" fill="#FFFFFF" transform="matrix(1.00, 0.00, -0.00, -1.00, 262.2, 100.0)">d</text><text xml:space="preserve" font-family="ArialMT" font-size="26.0" fill="#FFFFFF" transform="matrix(1.00, 0.00, -0.00, -1.00, 276.7, 100.0)">i</text><text xml:space="preserve" font-family="ArialMT" font-size="26.0" fill="#FFFFFF" transform="matrix(1.00, 0.00, -0.00, -1.00, 282.4, 100.0)">c</text><text xml:space="preserve" font-family="ArialMT" font-size="26.0" fill="#FFFFFF" transform="matrix(1.00, 0.00, -0.00, -1.00, 295.4, 100.0)">t</text><text xml:space="preserve" font-family="ArialMT" font-size="26.0" fill="#FFFFFF" transform="matrix(1.00, 0.00, -0.00, -1.00, 302.7, 100.0)"> </text><text xml:space="preserve" font-family="ArialMT" font-size="26.0" fill="#FFFFFF" transform="matrix(1.00, 0.00, -0.00, -1.00, 309.9, 100.0)">h</text><text xml:space="preserve" font-family="ArialMT" font-size="26.0" fill="#FFFFFF" transform="matrix(1.00, 0.00, -0.00, -1.00, 324.4, 100.0)">o</text><text xml:space="preserve" font-family="ArialMT" font-size="26.0" fill="#FFFFFF" transform="matrix(1.00, 0.00, -0.00, -1.00, 338.8, 100.0)">w</text><text xml:space="preserve" font-family="ArialMT" font-size="26.0" fill="#FFFFFF" transform="matrix(1.00, 0.00, -0.00, -1.00, 357.6, 100.0)"> </text><text xml:space="preserve" font-family="ArialMT" font-size="26.0" fill="#FFFFFF" transform="matrix(1.00, 0.00, -0.00, -1.00, 364.8, 100.0)">m</text><text xml:space="preserve" font-family="ArialMT" font-size="26.0" fill="#FFFFFF" transform="matrix(1.00, 0.00, -0.00, -1.00, 386.5, 100.0)">u</text><text xml:space="preserve" font-family="ArialMT" font-size="26.0" fill="#FFFFFF" transform="matrix(1.00, 0.00, -0.00, -1.00, 400.9, 100.0)">c</text><text xml:space="preserve" font-family="ArialMT" font-size="26.0" fill="#FFFFFF" transform="matrix(1.00, 0.00, -0.00, -1.00, 413.9, 100.0)">h</text><text xml:space="preserve" font-family="ArialMT" font-size="26.0" fill="#FFFFFF" transform="matrix(1.00, 0.00, -0.00, -1.00, 428.4, 100.0)"> </text><text xml:space="preserve" font-family="ArialMT" font-size="26.0" fill="#FFFFFF" transform="matrix(1.00, 0.00, -0.00, -1.00, 435.6, 100.0)">m</text><text xml:space="preserve" font-family="ArialMT" font-size="26.0" fill="#FFFFFF" transform="matrix(1.00, 0.00, -0.00, -1.00, 457.3, 100.0)">o</text><text xml:space="preserve" font-family="ArialMT" font-size="26.0" fill="#FFFFFF" transform="matrix(1.00, 0.00, -0.00, -1.00, 471.7, 100.0)">n</text><text xml:space="preserve" font-family="ArialMT" font-size="26.0" fill="#FFFFFF" transform="matrix(1.00, 0.00, -0.00, -1.00, 486.2, 100.0)">e</text><text xml:space="preserve" font-family="ArialMT" font-size="26.0" fill="#FFFFFF" transform="matrix(1.00, 0.00, -0.00, -1.00, 500.7, 100.0)">y</text><text xml:space="preserve" font-family="ArialMT" font-size="26.0" fill="#FFFFFF" transform="matrix(1.00, 0.00, -0.00, -1.00, 513.7, 100.0)"> </text><text xml:space="preserve" font-family="ArialMT" font-size="26.0" fill="#FFFFFF" transform="matrix(1.00, 0.00, -0.00, -1.00, 520.9, 100.0)">w</text><text xml:space="preserve" font-family="ArialMT" font-size="26.0" fill="#FFFFFF" transform="matrix(1.00, 0.00, -0.00, -1.00, 539.7, 100.0)">e</text><text xml:space="preserve" font-family="ArialMT" font-size="26.0" fill="#FFFFFF" transform="matrix(1.00, 0.00, -0.00, -1.00, 554.1, 100.0)">’</text><text xml:space="preserve" font-family="ArialMT" font-size="26.0" fill="#FFFFFF" transform="matrix(1.00, 0.00, -0.00, -1.00, 559.9, 100.0)">r</text><text xml:space="preserve" font-family="ArialMT" font-size="26.0" fill="#FFFFFF" transform="matrix(1.00, 0.00, -0.00, -1.00, 568.6, 100.0)">e</text><text xml:space="preserve" font-family="ArialMT" font-size="26.0" fill="#FFFFFF" transform="matrix(1.00, 0.00, -0.00, -1.00, 583.0, 100.0)"> </text><text xml:space="preserve" font-family="ArialMT" font-size="26.0" fill="#FFFFFF" transform="matrix(1.00, 0.00, -0.00, -1.00, 96.0, 69.0)">g</text><text xml:space="preserve" font-family="ArialMT" font-size="26.0" fill="#FFFFFF" transform="matrix(1.00, 0.00, -0.00, -1.00, 110.5, 69.0)">o</text><text xml:space="preserve" font-family="ArialMT" font-size="26.0" fill="#FFFFFF" transform="matrix(1.00, 0.00, -0.00, -1.00, 124.9, 69.0)">i</text><text xml:space="preserve" font-family="ArialMT" font-size="26.0" fill="#FFFFFF" transform="matrix(1.00, 0.00, -0.00, -1.00, 130.7, 69.0)">n</text><text xml:space="preserve" font-family="ArialMT" font-size="26.0" fill="#FFFFFF" transform="matrix(1.00, 0.00, -0.00, -1.00, 145.2, 69.0)">g</text><text xml:space="preserve" font-family="ArialMT" font-size="26.0" fill="#FFFFFF" transform="matrix(1.00, 0.00, -0.00, -1.00, 159.6, 69.0)"> </text><text xml:space="preserve" font-family="ArialMT" font-size="26.0" fill="#FFFFFF" transform="matrix(1.00, 0.00, -0.00, -1.00, 166.9, 69.0)">t</text><text xml:space="preserve" font-family="ArialMT" font-size="26.0" fill="#FFFFFF" transform="matrix(1.00, 0.00, -0.00, -1.00, 174.1, 69.0)">o</text><text xml:space="preserve" font-family="ArialMT" font-size="26.0" fill="#FFFFFF" transform="matrix(1.00, 0.00, -0.00, -1.00, 188.5, 69.0)"> </text><text xml:space="preserve" font-family="ArialMT" font-size="26.0" fill="#FFFFFF" transform="matrix(1.00, 0.00, -0.00, -1.00, 195.8, 69.0)">m</text><text xml:space="preserve" font-family="ArialMT" font-size="26.0" fill="#FFFFFF" transform="matrix(1.00, 0.00, -0.00, -1.00, 217.4, 69.0)">a</text><text xml:space="preserve" font-family="ArialMT" font-size="26.0" fill="#FFFFFF" transform="matrix(1.00, 0.00, -0.00, -1.00, 231.9, 69.0)">k</text><text xml:space="preserve" font-family="ArialMT" font-size="26.0" fill="#FFFFFF" transform="matrix(1.00, 0.00, -0.00, -1.00, 244.9, 69.0)">e</text><text xml:space="preserve" font-family="ArialMT" font-size="26.0" fill="#FFFFFF" transform="matrix(1.00, 0.00, -0.00, -1.00, 259.4, 69.0)"> </text><text xml:space="preserve" font-family="ArialMT" font-size="26.0" fill="#FFFFFF" transform="matrix(1.00, 0.00, -0.00, -1.00, 266.6, 69.0)">d</text><text xml:space="preserve" font-family="ArialMT" font-size="26.0" fill="#FFFFFF" transform="matrix(1.00, 0.00, -0.00, -1.00, 281.0, 69.0)">o</text><text xml:space="preserve" font-family="ArialMT" font-size="26.0" fill="#FFFFFF" transform="matrix(1.00, 0.00, -0.00, -1.00, 295.5, 69.0)">i</text><text xml:space="preserve" font-family="ArialMT" font-size="26.0" fill="#FFFFFF" transform="matrix(1.00, 0.00, -0.00, -1.00, 301.3, 69.0)">n</text><text xml:space="preserve" font-family="ArialMT" font-size="26.0" fill="#FFFFFF" transform="matrix(1.00, 0.00, -0.00, -1.00, 315.7, 69.0)">g</text><text xml:space="preserve" font-family="ArialMT" font-size="26.0" fill="#FFFFFF" transform="matrix(1.00, 0.00, -0.00, -1.00, 330.2, 69.0)"> </text><text xml:space="preserve" font-family="ArialMT" font-size="26.0" fill="#FFFFFF" transform="matrix(1.00, 0.00, -0.00, -1.00, 337.4, 69.0)">t</text><text xml:space="preserve" font-family="ArialMT" font-size="26.0" fill="#FFFFFF" transform="matrix(1.00, 0.00, -0.00, -1.00, 344.6, 69.0)">h</text><text xml:space="preserve" font-family="ArialMT" font-size="26.0" fill="#FFFFFF" transform="matrix(1.00, 0.00, -0.00, -1.00, 359.1, 69.0)">e</text><text xml:space="preserve" font-family="ArialMT" font-size="26.0" fill="#FFFFFF" transform="matrix(1.00, 0.00, -0.00, -1.00, 373.6, 69.0)"> </text><text xml:space="preserve" font-family="ArialMT" font-size="26.0" fill="#FFFFFF" transform="matrix(1.00, 0.00, -0.00, -1.00, 380.8, 69.0)">a</text><text xml:space="preserve" font-family="ArialMT" font-size="26.0" fill="#FFFFFF" transform="matrix(1.00, 0.00, -0.00, -1.00, 395.3, 69.0)">b</text><text xml:space="preserve" font-family="ArialMT" font-size="26.0" fill="#FFFFFF" transform="matrix(1.00, 0.00, -0.00, -1.00, 409.7, 69.0)">o</text><text xml:space="preserve" font-family="ArialMT" font-size="26.0" fill="#FFFFFF" transform="matrix(1.00, 0.00, -0.00, -1.00, 424.2, 69.0)">v</text><text xml:space="preserve" font-family="ArialMT" font-size="26.0" fill="#FFFFFF" transform="matrix(1.00, 0.00, -0.00, -1.00, 437.2, 69.0)">e</text></g></svg>