<?xml version="1.0" encoding="UTF-8" standalone="no"?><svg xmlns="http://www.w3.org/2000/svg" xmlns:xlink="http://www.w3.org/1999/xlink" clip-rule="evenodd" stroke-miterlimit="4.00" viewBox="0 0 720 405"><desc>SVG generated by Keynote</desc><defs></defs><g transform="matrix(1.00, 0.00, -0.00, -1.00, 0.0, 405.0)"><path d="M 0.0 405.0 L 720.0 405.0 L 720.0 0.0 L 0.0 0.0 Z M 0.0 405.0 " fill="#3B3B3B"></path><image xlink:href="../../9EA3EA7E-376A-4B6F-86D4-F7DEFFC5E922/assets/9642FC9EA6ADF033B4D25C2A4D99E1C3.png" width="728.00" height="133.00" transform="matrix(1.00, 0.00, -0.00, -1.00, -4.0, 131.9)" opacity="0.35"></image><path d="M 0.0 24.4 L 0.0 -0.4 L 720.0 -0.4 L 720.0 124.4 C 402.5 11.3 281.2 16.9 0.0 24.4 Z M 0.0 24.4 " fill="#7A7A7A" fill-opacity="0.45"></path><image xlink:href="../../9EA3EA7E-376A-4B6F-86D4-F7DEFFC5E922/assets/50C0E26D66851E2E73A8BFFB502226A3.png" width="152.00" height="413.00" transform="matrix(1.00, 0.00, -0.00, -1.00, 568.0, 409.0)" opacity="0.45"></image><path d="M 720.0 404.2 L 720.0 0.0 L 591.3 0.2 C 672.9 70.6 732.6 242.8 576.0 405.0 L 720.0 404.2 Z M 720.0 404.2 " fill="#595959" fill-opacity="0.40"></path><text xml:space="preserve" font-family="HelveticaNeue" font-size="46.0" fill="#FFFFFF" transform="matrix(1.00, 0.00, -0.00, -1.00, 40.0, 337.0)">L</text><text xml:space="preserve" font-family="HelveticaNeue" font-size="46.0" fill="#FFFFFF" transform="matrix(1.00, 0.00, -0.00, -1.00, 65.6, 337.0)">e</text><text xml:space="preserve" font-family="HelveticaNeue" font-size="46.0" fill="#FFFFFF" transform="matrix(1.00, 0.00, -0.00, -1.00, 90.3, 337.0)">a</text><text xml:space="preserve" font-family="HelveticaNeue" font-size="46.0" fill="#FFFFFF" transform="matrix(1.00, 0.00, -0.00, -1.00, 115.0, 337.0)">r</text><text xml:space="preserve" font-family="HelveticaNeue" font-size="46.0" fill="#FFFFFF" transform="matrix(1.00, 0.00, -0.00, -1.00, 131.1, 337.0)">n</text><text xml:space="preserve" font-family="HelveticaNeue" font-size="46.0" fill="#FFFFFF" transform="matrix(1.00, 0.00, -0.00, -1.00, 156.7, 337.0)"> </text><text xml:space="preserve" font-family="HelveticaNeue" font-size="46.0" fill="#FFFFFF" transform="matrix(1.00, 0.00, -0.00, -1.00, 169.5, 337.0)">t</text><text xml:space="preserve" font-family="HelveticaNeue" font-size="46.0" fill="#FFFFFF" transform="matrix(1.00, 0.00, -0.00, -1.00, 184.0, 337.0)">o</text><text xml:space="preserve" font-family="HelveticaNeue" font-size="46.0" fill="#FFFFFF" transform="matrix(1.00, 0.00, -0.00, -1.00, 210.4, 337.0)"> </text><text xml:space="preserve" font-family="HelveticaNeue" font-size="46.0" fill="#FFFFFF" transform="matrix(1.00, 0.00, -0.00, -1.00, 223.2, 337.0)">p</text><text xml:space="preserve" font-family="HelveticaNeue" font-size="46.0" fill="#FFFFFF" transform="matrix(1.00, 0.00, -0.00, -1.00, 250.5, 337.0)">r</text><text xml:space="preserve" font-family="HelveticaNeue" font-size="46.0" fill="#FFFFFF" transform="matrix(1.00, 0.00, -0.00, -1.00, 264.9, 337.0)">o</text><text xml:space="preserve" font-family="HelveticaNeue" font-size="46.0" fill="#FFFFFF" transform="matrix(1.00, 0.00, -0.00, -1.00, 291.3, 337.0)">g</text><text xml:space="preserve" font-family="HelveticaNeue" font-size="46.0" fill="#FFFFFF" transform="matrix(1.00, 0.00, -0.00, -1.00, 317.7, 337.0)">r</text><text xml:space="preserve" font-family="HelveticaNeue" font-size="46.0" fill="#FFFFFF" transform="matrix(1.00, 0.00, -0.00, -1.00, 333.1, 337.0)">a</text><text xml:space="preserve" font-family="HelveticaNeue" font-size="46.0" fill="#FFFFFF" transform="matrix(1.00, 0.00, -0.00, -1.00, 357.8, 337.0)">m</text><image xlink:href="../../BE3DF76D-F210-4A7B-B1E2-13D7F4DC745C/assets/7B37F12EF3D33C3461BD243F5C8F25A3.png" width="151.00" height="63.00" transform="matrix(1.00, 0.00, -0.00, -1.00, 37.0, 151.0)"></image><image xlink:href="../../BE3DF76D-F210-4A7B-B1E2-13D7F4DC745C/assets/D2BC5F750F4076E38B608A8B6EDD778B.png" width="90.00" height="66.00" transform="matrix(0.99, 0.00, -0.00, -1.00, 61.0, 283.0)"></image><image xlink:href="../../BE3DF76D-F210-4A7B-B1E2-13D7F4DC745C/assets/6A0A46E98312183662C1F2016E9881FD.png" width="83.00" height="80.00" transform="matrix(1.00, 0.00, -0.00, -1.00, 359.0, 321.0)"></image><image xlink:href="../../BE3DF76D-F210-4A7B-B1E2-13D7F4DC745C/assets/BB649BD3730465FAF64047589D0A6617.png" width="162.00" height="62.00" transform="matrix(1.00, 0.00, -0.00, -1.00, 361.0, 206.0)"></image><image xlink:href="../../BE3DF76D-F210-4A7B-B1E2-13D7F4DC745C/assets/BD10E3F61956DBEC2E34F018F568AB5F.png" width="81.00" height="89.00" transform="matrix(1.01, 0.00, -0.00, -1.00, 222.0, 250.0)"></image><image xlink:href="../../BE3DF76D-F210-4A7B-B1E2-13D7F4DC745C/assets/AF18D1B93283CFEBBCE8FBDE23BE54E6.png" width="132.00" height="68.00" transform="matrix(1.00, 0.00, -0.00, -1.00, 240.0, 103.0)"></image><image xlink:href="../../BE3DF76D-F210-4A7B-B1E2-13D7F4DC745C/assets/6FA2EFA96F993B374F91022986B100C1.png" width="144.00" height="58.00" transform="matrix(1.00, 0.00, -0.00, -1.00, 482.0, 281.0)"></image><image xlink:href="../../BE3DF76D-F210-4A7B-B1E2-13D7F4DC745C/assets/6A636CDACEBC23DCCE46328045EC87D2.png" width="52.00" height="53.00" transform="matrix(1.40, 0.00, -0.00, -1.40, 424.0, 125.0)"></image><image xlink:href="../../BE3DF76D-F210-4A7B-B1E2-13D7F4DC745C/assets/16EAF8A826036ADA7F2497777F1ACCC5.png" width="78.00" height="60.00" transform="matrix(1.00, 0.00, -0.00, -1.00, 544.0, 160.0)"></image></g></svg>