<?xml version="1.0" encoding="UTF-8" standalone="no"?><svg xmlns="http://www.w3.org/2000/svg" xmlns:xlink="http://www.w3.org/1999/xlink" clip-rule="evenodd" stroke-miterlimit="4.00" viewBox="0 0 720 405"><desc>SVG generated by Keynote</desc><defs></defs><g transform="matrix(1.00, 0.00, -0.00, -1.00, 0.0, 405.0)"><path d="M 0.0 405.0 L 720.0 405.0 L 720.0 0.0 L 0.0 0.0 Z M 0.0 405.0 " fill="#3B3B3B"></path><image xlink:href="../../9EA3EA7E-376A-4B6F-86D4-F7DEFFC5E922/assets/9642FC9EA6ADF033B4D25C2A4D99E1C3.png" width="728.00" height="133.00" transform="matrix(1.00, 0.00, -0.00, -1.00, -4.0, 131.9)" opacity="0.35"></image><path d="M 0.0 24.4 L 0.0 -0.4 L 720.0 -0.4 L 720.0 124.4 C 402.5 11.3 281.2 16.9 0.0 24.4 Z M 0.0 24.4 " fill="#7A7A7A" fill-opacity="0.45"></path><image xlink:href="../../9EA3EA7E-376A-4B6F-86D4-F7DEFFC5E922/assets/50C0E26D66851E2E73A8BFFB502226A3.png" width="152.00" height="413.00" transform="matrix(1.00, 0.00, -0.00, -1.00, 568.0, 409.0)" opacity="0.45"></image><path d="M 720.0 404.2 L 720.0 0.0 L 591.3 0.2 C 672.9 70.6 732.6 242.8 576.0 405.0 L 720.0 404.2 Z M 720.0 404.2 " fill="#595959" fill-opacity="0.40"></path><text xml:space="preserve" font-family="HelveticaNeue" font-size="40.6" fill="#FFFFFF" transform="matrix(1.00, 0.00, -0.00, -1.00, 40.0, 340.0)">U</text><text xml:space="preserve" font-family="HelveticaNeue" font-size="40.6" fill="#FFFFFF" transform="matrix(1.00, 0.00, -0.00, -1.00, 69.3, 340.0)">s</text><text xml:space="preserve" font-family="HelveticaNeue" font-size="40.6" fill="#FFFFFF" transform="matrix(1.00, 0.00, -0.00, -1.00, 89.6, 340.0)">e</text><text xml:space="preserve" font-family="HelveticaNeue" font-size="40.6" fill="#FFFFFF" transform="matrix(1.00, 0.00, -0.00, -1.00, 111.4, 340.0)"> </text><text xml:space="preserve" font-family="HelveticaNeue" font-size="40.6" fill="#FFFFFF" transform="matrix(1.00, 0.00, -0.00, -1.00, 122.7, 340.0)">g</text><text xml:space="preserve" font-family="HelveticaNeue" font-size="40.6" fill="#FFFFFF" transform="matrix(1.00, 0.00, -0.00, -1.00, 146.0, 340.0)">o</text><text xml:space="preserve" font-family="HelveticaNeue" font-size="40.6" fill="#FFFFFF" transform="matrix(1.00, 0.00, -0.00, -1.00, 169.3, 340.0)">o</text><text xml:space="preserve" font-family="HelveticaNeue" font-size="40.6" fill="#FFFFFF" transform="matrix(1.00, 0.00, -0.00, -1.00, 192.6, 340.0)">d</text><text xml:space="preserve" font-family="HelveticaNeue" font-size="40.6" fill="#FFFFFF" transform="matrix(1.00, 0.00, -0.00, -1.00, 216.6, 340.0)"> </text><text xml:space="preserve" font-family="HelveticaNeue" font-size="40.6" fill="#FFFFFF" transform="matrix(1.00, 0.00, -0.00, -1.00, 227.9, 340.0)">d</text><text xml:space="preserve" font-family="HelveticaNeue" font-size="40.6" fill="#FFFFFF" transform="matrix(1.00, 0.00, -0.00, -1.00, 252.0, 340.0)">a</text><text xml:space="preserve" font-family="HelveticaNeue" font-size="40.6" fill="#FFFFFF" transform="matrix(1.00, 0.00, -0.00, -1.00, 273.8, 340.0)">t</text><text xml:space="preserve" font-family="HelveticaNeue" font-size="40.6" fill="#FFFFFF" transform="matrix(1.00, 0.00, -0.00, -1.00, 286.6, 340.0)">a</text><text xml:space="preserve" font-family="HelveticaNeue" font-size="40.6" fill="#FFFFFF" transform="matrix(1.00, 0.00, -0.00, -1.00, 308.4, 340.0)"> </text><text xml:space="preserve" font-family="HelveticaNeue" font-size="40.6" fill="#FFFFFF" transform="matrix(1.00, 0.00, -0.00, -1.00, 319.7, 340.0)">s</text><text xml:space="preserve" font-family="HelveticaNeue" font-size="40.6" fill="#FFFFFF" transform="matrix(1.00, 0.00, -0.00, -1.00, 340.0, 340.0)">c</text><text xml:space="preserve" font-family="HelveticaNeue" font-size="40.6" fill="#FFFFFF" transform="matrix(1.00, 0.00, -0.00, -1.00, 361.8, 340.0)">i</text><text xml:space="preserve" font-family="HelveticaNeue" font-size="40.6" fill="#FFFFFF" transform="matrix(1.00, 0.00, -0.00, -1.00, 370.8, 340.0)">e</text><text xml:space="preserve" font-family="HelveticaNeue" font-size="40.6" fill="#FFFFFF" transform="matrix(1.00, 0.00, -0.00, -1.00, 392.6, 340.0)">n</text><text xml:space="preserve" font-family="HelveticaNeue" font-size="40.6" fill="#FFFFFF" transform="matrix(1.00, 0.00, -0.00, -1.00, 415.1, 340.0)">c</text><text xml:space="preserve" font-family="HelveticaNeue" font-size="40.6" fill="#FFFFFF" transform="matrix(1.00, 0.00, -0.00, -1.00, 436.9, 340.0)">e</text><text xml:space="preserve" font-family="HelveticaNeue" font-size="40.6" fill="#FFFFFF" transform="matrix(1.00, 0.00, -0.00, -1.00, 458.7, 340.0)"> </text><text xml:space="preserve" font-family="HelveticaNeue" font-size="40.6" fill="#FFFFFF" transform="matrix(1.00, 0.00, -0.00, -1.00, 470.0, 340.0)">p</text><text xml:space="preserve" font-family="HelveticaNeue" font-size="40.6" fill="#FFFFFF" transform="matrix(1.00, 0.00, -0.00, -1.00, 494.1, 340.0)">r</text><text xml:space="preserve" font-family="HelveticaNeue" font-size="40.6" fill="#FFFFFF" transform="matrix(1.00, 0.00, -0.00, -1.00, 507.6, 340.0)">a</text><text xml:space="preserve" font-family="HelveticaNeue" font-size="40.6" fill="#FFFFFF" transform="matrix(1.00, 0.00, -0.00, -1.00, 529.4, 340.0)">c</text><text xml:space="preserve" font-family="HelveticaNeue" font-size="40.6" fill="#FFFFFF" transform="matrix(1.00, 0.00, -0.00, -1.00, 551.2, 340.0)">t</text><text xml:space="preserve" font-family="HelveticaNeue" font-size="40.6" fill="#FFFFFF" transform="matrix(1.00, 0.00, -0.00, -1.00, 564.0, 340.0)">i</text><text xml:space="preserve" font-family="HelveticaNeue" font-size="40.6" fill="#FFFFFF" transform="matrix(1.00, 0.00, -0.00, -1.00, 573.0, 340.0)">c</text><text xml:space="preserve" font-family="HelveticaNeue" font-size="40.6" fill="#FFFFFF" transform="matrix(1.00, 0.00, -0.00, -1.00, 594.8, 340.0)">e</text><g><clipPath id="clip-36"><path d="M -77.0 311.0 L 511.0 311.0 L 511.0 43.0 L -77.0 43.0 Z M -77.3 310.5 "></path></clipPath><g clip-path="url(#clip-36)"><image xlink:href="../../E8ED12FD-C44A-4F35-8854-FD52E3F4DEED/assets/9BAEE5856ECA5FE4DE8139C6EE469DD6.png" width="353.00" height="266.00" transform="matrix(1.00, 0.00, -0.00, -1.00, 40.0, 310.0)"></image></g></g><image xlink:href="../../E8ED12FD-C44A-4F35-8854-FD52E3F4DEED/assets/0ECBE890B4892ECD7B7A2216764C5C90.jpeg" width="147.00" height="188.00" transform="matrix(0.99, 0.00, -0.00, -0.99, 467.0, 273.0)"></image></g></svg>