<?xml version="1.0" encoding="UTF-8" standalone="no"?><svg xmlns="http://www.w3.org/2000/svg" xmlns:xlink="http://www.w3.org/1999/xlink" clip-rule="evenodd" stroke-miterlimit="4.00" viewBox="0 0 720 405"><desc>SVG generated by Keynote</desc><defs></defs><g transform="matrix(1.00, 0.00, -0.00, -1.00, 0.0, 405.0)"><path d="M 0.0 405.0 L 720.0 405.0 L 720.0 0.0 L 0.0 0.0 Z M 0.0 405.0 " fill="#3B3B3B"></path><image xlink:href="../../9EA3EA7E-376A-4B6F-86D4-F7DEFFC5E922/assets/9642FC9EA6ADF033B4D25C2A4D99E1C3.png" width="728.00" height="133.00" transform="matrix(1.00, 0.00, -0.00, -1.00, -4.0, 131.9)" opacity="0.35"></image><path d="M 0.0 24.4 L 0.0 -0.4 L 720.0 -0.4 L 720.0 124.4 C 402.5 11.3 281.2 16.9 0.0 24.4 Z M 0.0 24.4 " fill="#7A7A7A" fill-opacity="0.45"></path><image xlink:href="../../9EA3EA7E-376A-4B6F-86D4-F7DEFFC5E922/assets/50C0E26D66851E2E73A8BFFB502226A3.png" width="152.00" height="413.00" transform="matrix(1.00, 0.00, -0.00, -1.00, 568.0, 409.0)" opacity="0.45"></image><path d="M 720.0 404.2 L 720.0 0.0 L 591.3 0.2 C 672.9 70.6 732.6 242.8 576.0 405.0 L 720.0 404.2 Z M 720.0 404.2 " fill="#595959" fill-opacity="0.40"></path><text xml:space="preserve" font-family="HelveticaNeue" font-size="46.0" fill="#FFFFFF" transform="matrix(1.00, 0.00, -0.00, -1.00, 40.0, 337.0)">W</text><text xml:space="preserve" font-family="HelveticaNeue" font-size="46.0" fill="#FFFFFF" transform="matrix(1.00, 0.00, -0.00, -1.00, 82.6, 337.0)">h</text><text xml:space="preserve" font-family="HelveticaNeue" font-size="46.0" fill="#FFFFFF" transform="matrix(1.00, 0.00, -0.00, -1.00, 108.2, 337.0)">e</text><text xml:space="preserve" font-family="HelveticaNeue" font-size="46.0" fill="#FFFFFF" transform="matrix(1.00, 0.00, -0.00, -1.00, 132.9, 337.0)">r</text><text xml:space="preserve" font-family="HelveticaNeue" font-size="46.0" fill="#FFFFFF" transform="matrix(1.00, 0.00, -0.00, -1.00, 147.4, 337.0)">e</text><text xml:space="preserve" font-family="HelveticaNeue" font-size="46.0" fill="#FFFFFF" transform="matrix(1.00, 0.00, -0.00, -1.00, 172.1, 337.0)">’</text><text xml:space="preserve" font-family="HelveticaNeue" font-size="46.0" fill="#FFFFFF" transform="matrix(1.00, 0.00, -0.00, -1.00, 181.4, 337.0)">s</text><text xml:space="preserve" font-family="HelveticaNeue" font-size="46.0" fill="#FFFFFF" transform="matrix(1.00, 0.00, -0.00, -1.00, 204.4, 337.0)"> </text><text xml:space="preserve" font-family="HelveticaNeue" font-size="46.0" fill="#FFFFFF" transform="matrix(1.00, 0.00, -0.00, -1.00, 217.2, 337.0)">t</text><text xml:space="preserve" font-family="HelveticaNeue" font-size="46.0" fill="#FFFFFF" transform="matrix(1.00, 0.00, -0.00, -1.00, 231.7, 337.0)">h</text><text xml:space="preserve" font-family="HelveticaNeue" font-size="46.0" fill="#FFFFFF" transform="matrix(1.00, 0.00, -0.00, -1.00, 257.3, 337.0)">e</text><text xml:space="preserve" font-family="HelveticaNeue" font-size="46.0" fill="#FFFFFF" transform="matrix(1.00, 0.00, -0.00, -1.00, 282.0, 337.0)"> </text><text xml:space="preserve" font-family="HelveticaNeue" font-size="46.0" fill="#FFFFFF" transform="matrix(1.00, 0.00, -0.00, -1.00, 294.8, 337.0)">d</text><text xml:space="preserve" font-family="HelveticaNeue" font-size="46.0" fill="#FFFFFF" transform="matrix(1.00, 0.00, -0.00, -1.00, 322.1, 337.0)">a</text><text xml:space="preserve" font-family="HelveticaNeue" font-size="46.0" fill="#FFFFFF" transform="matrix(1.00, 0.00, -0.00, -1.00, 346.8, 337.0)">t</text><text xml:space="preserve" font-family="HelveticaNeue" font-size="46.0" fill="#FFFFFF" transform="matrix(1.00, 0.00, -0.00, -1.00, 361.3, 337.0)">a</text><text xml:space="preserve" font-family="HelveticaNeue" font-size="46.0" fill="#FFFFFF" transform="matrix(1.00, 0.00, -0.00, -1.00, 386.0, 337.0)">?</text><text xml:space="preserve" font-family="AppleSymbols" font-size="24.0" fill="#6EA0B0" transform="matrix(1.00, 0.00, -0.00, -1.00, 42.5, 285.4)">⦿</text><text xml:space="preserve" font-family="ArialMT" font-size="30.0" fill="#FFFFFF" transform="matrix(1.00, 0.00, -0.00, -1.00, 73.0, 280.0)">O</text><text xml:space="preserve" font-family="ArialMT" font-size="30.0" fill="#FFFFFF" transform="matrix(1.00, 0.00, -0.00, -1.00, 96.3, 280.0)">b</text><text xml:space="preserve" font-family="ArialMT" font-size="30.0" fill="#FFFFFF" transform="matrix(1.00, 0.00, -0.00, -1.00, 113.0, 280.0)">s</text><text xml:space="preserve" font-family="ArialMT" font-size="30.0" fill="#FFFFFF" transform="matrix(1.00, 0.00, -0.00, -1.00, 128.0, 280.0)">e</text><text xml:space="preserve" font-family="ArialMT" font-size="30.0" fill="#FFFFFF" transform="matrix(1.00, 0.00, -0.00, -1.00, 144.7, 280.0)">r</text><text xml:space="preserve" font-family="ArialMT" font-size="30.0" fill="#FFFFFF" transform="matrix(1.00, 0.00, -0.00, -1.00, 154.7, 280.0)">v</text><text xml:space="preserve" font-family="ArialMT" font-size="30.0" fill="#FFFFFF" transform="matrix(1.00, 0.00, -0.00, -1.00, 169.7, 280.0)">a</text><text xml:space="preserve" font-family="ArialMT" font-size="30.0" fill="#FFFFFF" transform="matrix(1.00, 0.00, -0.00, -1.00, 186.4, 280.0)">t</text><text xml:space="preserve" font-family="ArialMT" font-size="30.0" fill="#FFFFFF" transform="matrix(1.00, 0.00, -0.00, -1.00, 194.7, 280.0)">i</text><text xml:space="preserve" font-family="ArialMT" font-size="30.0" fill="#FFFFFF" transform="matrix(1.00, 0.00, -0.00, -1.00, 201.4, 280.0)">o</text><text xml:space="preserve" font-family="ArialMT" font-size="30.0" fill="#FFFFFF" transform="matrix(1.00, 0.00, -0.00, -1.00, 218.1, 280.0)">n</text><text xml:space="preserve" font-family="ArialMT" font-size="30.0" fill="#FFFFFF" transform="matrix(1.00, 0.00, -0.00, -1.00, 234.8, 280.0)">a</text><text xml:space="preserve" font-family="ArialMT" font-size="30.0" fill="#FFFFFF" transform="matrix(1.00, 0.00, -0.00, -1.00, 251.5, 280.0)">l</text><text xml:space="preserve" font-family="ArialMT" font-size="30.0" fill="#FFFFFF" transform="matrix(1.00, 0.00, -0.00, -1.00, 258.1, 280.0)"> </text><text xml:space="preserve" font-family="ArialMT" font-size="30.0" fill="#FFFFFF" transform="matrix(1.00, 0.00, -0.00, -1.00, 266.5, 280.0)">d</text><text xml:space="preserve" font-family="ArialMT" font-size="30.0" fill="#FFFFFF" transform="matrix(1.00, 0.00, -0.00, -1.00, 283.2, 280.0)">a</text><text xml:space="preserve" font-family="ArialMT" font-size="30.0" fill="#FFFFFF" transform="matrix(1.00, 0.00, -0.00, -1.00, 299.8, 280.0)">t</text><text xml:space="preserve" font-family="ArialMT" font-size="30.0" fill="#FFFFFF" transform="matrix(1.00, 0.00, -0.00, -1.00, 308.2, 280.0)">a</text><text xml:space="preserve" font-family="ArialMT" font-size="30.0" fill="#FFFFFF" transform="matrix(1.00, 0.00, -0.00, -1.00, 324.9, 280.0)"> </text><text xml:space="preserve" font-family="LucidaGrande" font-size="23.4" fill="#6EA0B0" transform="matrix(1.00, 0.00, -0.00, -1.00, 74.9, 242.5)">●</text><text xml:space="preserve" font-family="ArialMT" font-size="26.0" fill="#FFFFFF" transform="matrix(1.00, 0.00, -0.00, -1.00, 96.0, 242.0)">W</text><text xml:space="preserve" font-family="ArialMT" font-size="26.0" fill="#FFFFFF" transform="matrix(1.00, 0.00, -0.00, -1.00, 120.1, 242.0)">e</text><text xml:space="preserve" font-family="ArialMT" font-size="26.0" fill="#FFFFFF" transform="matrix(1.00, 0.00, -0.00, -1.00, 134.5, 242.0)">l</text><text xml:space="preserve" font-family="ArialMT" font-size="26.0" fill="#FFFFFF" transform="matrix(1.00, 0.00, -0.00, -1.00, 140.3, 242.0)">l</text><text xml:space="preserve" font-family="ArialMT" font-size="26.0" fill="#FFFFFF" transform="matrix(1.00, 0.00, -0.00, -1.00, 146.1, 242.0)">n</text><text xml:space="preserve" font-family="ArialMT" font-size="26.0" fill="#FFFFFF" transform="matrix(1.00, 0.00, -0.00, -1.00, 160.6, 242.0)">e</text><text xml:space="preserve" font-family="ArialMT" font-size="26.0" fill="#FFFFFF" transform="matrix(1.00, 0.00, -0.00, -1.00, 175.0, 242.0)">s</text><text xml:space="preserve" font-family="ArialMT" font-size="26.0" fill="#FFFFFF" transform="matrix(1.00, 0.00, -0.00, -1.00, 188.0, 242.0)">s</text><text xml:space="preserve" font-family="ArialMT" font-size="26.0" fill="#FFFFFF" transform="matrix(1.00, 0.00, -0.00, -1.00, 201.0, 242.0)"> </text><text xml:space="preserve" font-family="ArialMT" font-size="26.0" fill="#FFFFFF" transform="matrix(1.00, 0.00, -0.00, -1.00, 208.2, 242.0)">s</text><text xml:space="preserve" font-family="ArialMT" font-size="26.0" fill="#FFFFFF" transform="matrix(1.00, 0.00, -0.00, -1.00, 221.2, 242.0)">y</text><text xml:space="preserve" font-family="ArialMT" font-size="26.0" fill="#FFFFFF" transform="matrix(1.00, 0.00, -0.00, -1.00, 234.2, 242.0)">s</text><text xml:space="preserve" font-family="ArialMT" font-size="26.0" fill="#FFFFFF" transform="matrix(1.00, 0.00, -0.00, -1.00, 247.2, 242.0)">t</text><text xml:space="preserve" font-family="ArialMT" font-size="26.0" fill="#FFFFFF" transform="matrix(1.00, 0.00, -0.00, -1.00, 254.5, 242.0)">e</text><text xml:space="preserve" font-family="ArialMT" font-size="26.0" fill="#FFFFFF" transform="matrix(1.00, 0.00, -0.00, -1.00, 268.9, 242.0)">m</text><text xml:space="preserve" font-family="ArialMT" font-size="26.0" fill="#FFFFFF" transform="matrix(1.00, 0.00, -0.00, -1.00, 290.6, 242.0)">s</text><text xml:space="preserve" font-family="ArialMT" font-size="26.0" fill="#FFFFFF" transform="matrix(1.00, 0.00, -0.00, -1.00, 303.6, 242.0)"> </text><text xml:space="preserve" font-family="LucidaGrande" font-size="23.4" fill="#6EA0B0" transform="matrix(1.00, 0.00, -0.00, -1.00, 74.9, 130.8)">●</text><text xml:space="preserve" font-family="ArialMT" font-size="26.0" fill="#FFFFFF" transform="matrix(1.00, 0.00, -0.00, -1.00, 96.0, 130.0)">S</text><text xml:space="preserve" font-family="ArialMT" font-size="26.0" fill="#FFFFFF" transform="matrix(1.00, 0.00, -0.00, -1.00, 113.3, 130.0)">e</text><text xml:space="preserve" font-family="ArialMT" font-size="26.0" fill="#FFFFFF" transform="matrix(1.00, 0.00, -0.00, -1.00, 127.8, 130.0)">a</text><text xml:space="preserve" font-family="ArialMT" font-size="26.0" fill="#FFFFFF" transform="matrix(1.00, 0.00, -0.00, -1.00, 142.3, 130.0)">r</text><text xml:space="preserve" font-family="ArialMT" font-size="26.0" fill="#FFFFFF" transform="matrix(1.00, 0.00, -0.00, -1.00, 150.9, 130.0)">c</text><text xml:space="preserve" font-family="ArialMT" font-size="26.0" fill="#FFFFFF" transform="matrix(1.00, 0.00, -0.00, -1.00, 163.9, 130.0)">h</text><text xml:space="preserve" font-family="ArialMT" font-size="26.0" fill="#FFFFFF" transform="matrix(1.00, 0.00, -0.00, -1.00, 178.4, 130.0)"> </text><text xml:space="preserve" font-family="ArialMT" font-size="26.0" fill="#FFFFFF" transform="matrix(1.00, 0.00, -0.00, -1.00, 185.6, 130.0)">h</text><text xml:space="preserve" font-family="ArialMT" font-size="26.0" fill="#FFFFFF" transform="matrix(1.00, 0.00, -0.00, -1.00, 200.1, 130.0)">i</text><text xml:space="preserve" font-family="ArialMT" font-size="26.0" fill="#FFFFFF" transform="matrix(1.00, 0.00, -0.00, -1.00, 205.9, 130.0)">s</text><text xml:space="preserve" font-family="ArialMT" font-size="26.0" fill="#FFFFFF" transform="matrix(1.00, 0.00, -0.00, -1.00, 218.9, 130.0)">t</text><text xml:space="preserve" font-family="ArialMT" font-size="26.0" fill="#FFFFFF" transform="matrix(1.00, 0.00, -0.00, -1.00, 226.1, 130.0)">o</text><text xml:space="preserve" font-family="ArialMT" font-size="26.0" fill="#FFFFFF" transform="matrix(1.00, 0.00, -0.00, -1.00, 240.5, 130.0)">r</text><text xml:space="preserve" font-family="ArialMT" font-size="26.0" fill="#FFFFFF" transform="matrix(1.00, 0.00, -0.00, -1.00, 249.2, 130.0)">y</text><image xlink:href="CD61FABDEF647CA459B3C5555DBC7982.png" width="91.00" height="26.00" transform="matrix(1.00, 0.00, -0.00, -1.00, 100.0, 213.0)"></image><image xlink:href="D1A74313128B8441B384EA4C2E18C3C0.png" width="75.00" height="42.00" transform="matrix(0.99, 0.00, -0.00, -1.00, 222.0, 221.0)"></image><image xlink:href="AD959C7A2343F38F9E06137D0C482FD0.png" width="101.00" height="31.00" transform="matrix(0.99, 0.00, -0.00, -1.03, 100.0, 114.0)"></image><image xlink:href="6283936969EF3576E5FAC03D239BDE56.png" width="75.00" height="35.00" transform="matrix(0.99, 0.00, -0.00, -1.00, 222.0, 114.0)"></image></g></svg>