<?xml version="1.0" encoding="UTF-8" standalone="no"?><svg xmlns="http://www.w3.org/2000/svg" xmlns:xlink="http://www.w3.org/1999/xlink" clip-rule="evenodd" stroke-miterlimit="4.00" viewBox="0 0 720 405"><desc>SVG generated by Keynote</desc><defs></defs><g transform="matrix(1.00, 0.00, -0.00, -1.00, 0.0, 405.0)"><path d="M 0.0 405.0 L 720.0 405.0 L 720.0 0.0 L 0.0 0.0 Z M 0.0 405.0 " fill="#3B3B3B"></path><image xlink:href="../../9EA3EA7E-376A-4B6F-86D4-F7DEFFC5E922/assets/9642FC9EA6ADF033B4D25C2A4D99E1C3.png" width="728.00" height="133.00" transform="matrix(1.00, 0.00, -0.00, -1.00, -4.0, 131.9)" opacity="0.35"></image><path d="M 0.0 24.4 L 0.0 -0.4 L 720.0 -0.4 L 720.0 124.4 C 402.5 11.3 281.2 16.9 0.0 24.4 Z M 0.0 24.4 " fill="#7A7A7A" fill-opacity="0.45"></path><image xlink:href="../../9EA3EA7E-376A-4B6F-86D4-F7DEFFC5E922/assets/50C0E26D66851E2E73A8BFFB502226A3.png" width="152.00" height="413.00" transform="matrix(1.00, 0.00, -0.00, -1.00, 568.0, 409.0)" opacity="0.45"></image><path d="M 720.0 404.2 L 720.0 0.0 L 591.3 0.2 C 672.9 70.6 732.6 242.8 576.0 405.0 L 720.0 404.2 Z M 720.0 404.2 " fill="#595959" fill-opacity="0.40"></path><image xlink:href="../../696725CE-588D-4C1B-9004-D2B22C97CBDF/assets/8B7C6610421CE7E441B4EEC2C8EF0B77.png" width="388.00" height="347.00" transform="matrix(1.00, 0.00, -0.00, -1.00, 22.0, 383.0)"></image><text xml:space="preserve" font-family="ArialMT" font-size="18.0" fill="#FFFFFF" transform="matrix(1.00, 0.00, -0.00, -1.00, 443.0, 325.0)">P</text><text xml:space="preserve" font-family="ArialMT" font-size="18.0" fill="#FFFFFF" transform="matrix(1.00, 0.00, -0.00, -1.00, 455.0, 325.0)">h</text><text xml:space="preserve" font-family="ArialMT" font-size="18.0" fill="#FFFFFF" transform="matrix(1.00, 0.00, -0.00, -1.00, 465.0, 325.0)">a</text><text xml:space="preserve" font-family="ArialMT" font-size="18.0" fill="#FFFFFF" transform="matrix(1.00, 0.00, -0.00, -1.00, 475.0, 325.0)">r</text><text xml:space="preserve" font-family="ArialMT" font-size="18.0" fill="#FFFFFF" transform="matrix(1.00, 0.00, -0.00, -1.00, 481.0, 325.0)">m</text><text xml:space="preserve" font-family="ArialMT" font-size="18.0" fill="#FFFFFF" transform="matrix(1.00, 0.00, -0.00, -1.00, 496.0, 325.0)">a</text><text xml:space="preserve" font-family="ArialMT" font-size="18.0" fill="#FFFFFF" transform="matrix(1.00, 0.00, -0.00, -1.00, 506.0, 325.0)"> </text><text xml:space="preserve" font-family="ArialMT" font-size="18.0" fill="#FFFFFF" transform="matrix(1.00, 0.00, -0.00, -1.00, 511.0, 325.0)">r</text><text xml:space="preserve" font-family="ArialMT" font-size="18.0" fill="#FFFFFF" transform="matrix(1.00, 0.00, -0.00, -1.00, 517.0, 325.0)">e</text><text xml:space="preserve" font-family="ArialMT" font-size="18.0" fill="#FFFFFF" transform="matrix(1.00, 0.00, -0.00, -1.00, 527.0, 325.0)">p</text><text xml:space="preserve" font-family="ArialMT" font-size="18.0" fill="#FFFFFF" transform="matrix(1.00, 0.00, -0.00, -1.00, 537.1, 325.0)">o</text><text xml:space="preserve" font-family="ArialMT" font-size="18.0" fill="#FFFFFF" transform="matrix(1.00, 0.00, -0.00, -1.00, 547.1, 325.0)">r</text><text xml:space="preserve" font-family="ArialMT" font-size="18.0" fill="#FFFFFF" transform="matrix(1.00, 0.00, -0.00, -1.00, 553.1, 325.0)">t</text><text xml:space="preserve" font-family="ArialMT" font-size="18.0" fill="#FFFFFF" transform="matrix(1.00, 0.00, -0.00, -1.00, 558.1, 325.0)">:</text><text xml:space="preserve" font-family="ArialMT" font-size="18.0" fill="#FFFFFF" transform="matrix(1.00, 0.00, -0.00, -1.00, 563.0, 325.0)"> </text><text xml:space="preserve" font-family="ArialMT" font-size="18.0" fill="#FFFFFF" transform="matrix(1.00, 0.00, -0.00, -1.00, 443.0, 283.0)">8</text><text xml:space="preserve" font-family="ArialMT" font-size="18.0" fill="#FFFFFF" transform="matrix(1.00, 0.00, -0.00, -1.00, 453.0, 283.0)">9</text><text xml:space="preserve" font-family="ArialMT" font-size="18.0" fill="#FFFFFF" transform="matrix(1.00, 0.00, -0.00, -1.00, 463.0, 283.0)">%</text><text xml:space="preserve" font-family="ArialMT" font-size="18.0" fill="#FFFFFF" transform="matrix(1.00, 0.00, -0.00, -1.00, 479.0, 283.0)"> </text><text xml:space="preserve" font-family="ArialMT" font-size="18.0" fill="#FFFFFF" transform="matrix(1.00, 0.00, -0.00, -1.00, 484.0, 283.0)">o</text><text xml:space="preserve" font-family="ArialMT" font-size="18.0" fill="#FFFFFF" transform="matrix(1.00, 0.00, -0.00, -1.00, 494.0, 283.0)">f</text><text xml:space="preserve" font-family="ArialMT" font-size="18.0" fill="#FFFFFF" transform="matrix(1.00, 0.00, -0.00, -1.00, 499.0, 283.0)"> </text><text xml:space="preserve" font-family="ArialMT" font-size="18.0" fill="#FFFFFF" transform="matrix(1.00, 0.00, -0.00, -1.00, 504.0, 283.0)">r</text><text xml:space="preserve" font-family="ArialMT" font-size="18.0" fill="#FFFFFF" transform="matrix(1.00, 0.00, -0.00, -1.00, 510.0, 283.0)">e</text><text xml:space="preserve" font-family="ArialMT" font-size="18.0" fill="#FFFFFF" transform="matrix(1.00, 0.00, -0.00, -1.00, 520.1, 283.0)">s</text><text xml:space="preserve" font-family="ArialMT" font-size="18.0" fill="#FFFFFF" transform="matrix(1.00, 0.00, -0.00, -1.00, 529.1, 283.0)">e</text><text xml:space="preserve" font-family="ArialMT" font-size="18.0" fill="#FFFFFF" transform="matrix(1.00, 0.00, -0.00, -1.00, 539.1, 283.0)">a</text><text xml:space="preserve" font-family="ArialMT" font-size="18.0" fill="#FFFFFF" transform="matrix(1.00, 0.00, -0.00, -1.00, 549.1, 283.0)">r</text><text xml:space="preserve" font-family="ArialMT" font-size="18.0" fill="#FFFFFF" transform="matrix(1.00, 0.00, -0.00, -1.00, 555.1, 283.0)">c</text><text xml:space="preserve" font-family="ArialMT" font-size="18.0" fill="#FFFFFF" transform="matrix(1.00, 0.00, -0.00, -1.00, 564.1, 283.0)">h</text><text xml:space="preserve" font-family="ArialMT" font-size="18.0" fill="#FFFFFF" transform="matrix(1.00, 0.00, -0.00, -1.00, 574.1, 283.0)"> </text><text xml:space="preserve" font-family="ArialMT" font-size="18.0" fill="#FFFFFF" transform="matrix(1.00, 0.00, -0.00, -1.00, 579.1, 283.0)">f</text><text xml:space="preserve" font-family="ArialMT" font-size="18.0" fill="#FFFFFF" transform="matrix(1.00, 0.00, -0.00, -1.00, 584.1, 283.0)">i</text><text xml:space="preserve" font-family="ArialMT" font-size="18.0" fill="#FFFFFF" transform="matrix(1.00, 0.00, -0.00, -1.00, 588.1, 283.0)">n</text><text xml:space="preserve" font-family="ArialMT" font-size="18.0" fill="#FFFFFF" transform="matrix(1.00, 0.00, -0.00, -1.00, 598.1, 283.0)">d</text><text xml:space="preserve" font-family="ArialMT" font-size="18.0" fill="#FFFFFF" transform="matrix(1.00, 0.00, -0.00, -1.00, 608.1, 283.0)">i</text><text xml:space="preserve" font-family="ArialMT" font-size="18.0" fill="#FFFFFF" transform="matrix(1.00, 0.00, -0.00, -1.00, 612.1, 283.0)">n</text><text xml:space="preserve" font-family="ArialMT" font-size="18.0" fill="#FFFFFF" transform="matrix(1.00, 0.00, -0.00, -1.00, 622.1, 283.0)">g</text><text xml:space="preserve" font-family="ArialMT" font-size="18.0" fill="#FFFFFF" transform="matrix(1.00, 0.00, -0.00, -1.00, 632.1, 283.0)">s</text><text xml:space="preserve" font-family="LucidaGrande" font-size="18.0" fill="#FFFFFF" transform="matrix(1.00, 0.00, -0.00, -1.00, 641.1, 283.0)"> </text><text xml:space="preserve" font-family="ArialMT" font-size="18.0" fill="#FFFFFF" transform="matrix(1.00, 0.00, -0.00, -1.00, 443.0, 262.0)">a</text><text xml:space="preserve" font-family="ArialMT" font-size="18.0" fill="#FFFFFF" transform="matrix(1.00, 0.00, -0.00, -1.00, 453.0, 262.0)">r</text><text xml:space="preserve" font-family="ArialMT" font-size="18.0" fill="#FFFFFF" transform="matrix(1.00, 0.00, -0.00, -1.00, 459.0, 262.0)">e</text><text xml:space="preserve" font-family="ArialMT" font-size="18.0" fill="#FFFFFF" transform="matrix(1.00, 0.00, -0.00, -1.00, 469.0, 262.0)"> </text><text xml:space="preserve" font-family="ArialMT" font-size="18.0" fill="#FFFFFF" transform="matrix(1.00, 0.00, -0.00, -1.00, 474.0, 262.0)">n</text><text xml:space="preserve" font-family="ArialMT" font-size="18.0" fill="#FFFFFF" transform="matrix(1.00, 0.00, -0.00, -1.00, 484.0, 262.0)">o</text><text xml:space="preserve" font-family="ArialMT" font-size="18.0" fill="#FFFFFF" transform="matrix(1.00, 0.00, -0.00, -1.00, 494.0, 262.0)">t</text><text xml:space="preserve" font-family="ArialMT" font-size="18.0" fill="#FFFFFF" transform="matrix(1.00, 0.00, -0.00, -1.00, 499.0, 262.0)"> </text><text xml:space="preserve" font-family="ArialMT" font-size="18.0" fill="#FFFFFF" transform="matrix(1.00, 0.00, -0.00, -1.00, 504.0, 262.0)">r</text><text xml:space="preserve" font-family="ArialMT" font-size="18.0" fill="#FFFFFF" transform="matrix(1.00, 0.00, -0.00, -1.00, 510.0, 262.0)">e</text><text xml:space="preserve" font-family="ArialMT" font-size="18.0" fill="#FFFFFF" transform="matrix(1.00, 0.00, -0.00, -1.00, 520.0, 262.0)">p</text><text xml:space="preserve" font-family="ArialMT" font-size="18.0" fill="#FFFFFF" transform="matrix(1.00, 0.00, -0.00, -1.00, 530.1, 262.0)">r</text><text xml:space="preserve" font-family="ArialMT" font-size="18.0" fill="#FFFFFF" transform="matrix(1.00, 0.00, -0.00, -1.00, 536.1, 262.0)">o</text><text xml:space="preserve" font-family="ArialMT" font-size="18.0" fill="#FFFFFF" transform="matrix(1.00, 0.00, -0.00, -1.00, 546.1, 262.0)">d</text><text xml:space="preserve" font-family="ArialMT" font-size="18.0" fill="#FFFFFF" transform="matrix(1.00, 0.00, -0.00, -1.00, 556.1, 262.0)">u</text><text xml:space="preserve" font-family="ArialMT" font-size="18.0" fill="#FFFFFF" transform="matrix(1.00, 0.00, -0.00, -1.00, 566.1, 262.0)">c</text><text xml:space="preserve" font-family="ArialMT" font-size="18.0" fill="#FFFFFF" transform="matrix(1.00, 0.00, -0.00, -1.00, 575.1, 262.0)">i</text><text xml:space="preserve" font-family="ArialMT" font-size="18.0" fill="#FFFFFF" transform="matrix(1.00, 0.00, -0.00, -1.00, 579.1, 262.0)">b</text><text xml:space="preserve" font-family="ArialMT" font-size="18.0" fill="#FFFFFF" transform="matrix(1.00, 0.00, -0.00, -1.00, 589.1, 262.0)">l</text><text xml:space="preserve" font-family="ArialMT" font-size="18.0" fill="#FFFFFF" transform="matrix(1.00, 0.00, -0.00, -1.00, 593.1, 262.0)">e</text><text xml:space="preserve" font-family="ArialMT" font-size="18.0" fill="#FFFFFF" transform="matrix(1.00, 0.00, -0.00, -1.00, 603.1, 262.0)"> </text><g><clipPath id="clip-26"><path d="M 472.7 258.2 L 498.7 258.2 L 498.7 261.6 L 472.7 261.6 Z M 472.7 258.2 "></path></clipPath><g clip-path="url(#clip-26)"><path d="M 34.6 85.1 L 59.6 85.1 " fill="none" stroke="#FFFFFF" stroke-width="1.32" stroke-miterlimit="0.00" transform="matrix(1.00, 0.00, 0.00, -1.00, 439.1, 345.0)"></path></g></g><text xml:space="preserve" font-family="ArialMT" font-size="18.0" fill="#FFFFFF" transform="matrix(1.00, 0.00, -0.00, -1.00, 443.0, 220.0)">T</text><text xml:space="preserve" font-family="ArialMT" font-size="18.0" fill="#FFFFFF" transform="matrix(1.00, 0.00, -0.00, -1.00, 454.0, 220.0)">h</text><text xml:space="preserve" font-family="ArialMT" font-size="18.0" fill="#FFFFFF" transform="matrix(1.00, 0.00, -0.00, -1.00, 464.0, 220.0)">i</text><text xml:space="preserve" font-family="ArialMT" font-size="18.0" fill="#FFFFFF" transform="matrix(1.00, 0.00, -0.00, -1.00, 468.0, 220.0)">s</text><text xml:space="preserve" font-family="ArialMT" font-size="18.0" fill="#FFFFFF" transform="matrix(1.00, 0.00, -0.00, -1.00, 477.0, 220.0)"> </text><text xml:space="preserve" font-family="ArialMT" font-size="18.0" fill="#FFFFFF" transform="matrix(1.00, 0.00, -0.00, -1.00, 482.0, 220.0)">h</text><text xml:space="preserve" font-family="ArialMT" font-size="18.0" fill="#FFFFFF" transform="matrix(1.00, 0.00, -0.00, -1.00, 492.0, 220.0)">a</text><text xml:space="preserve" font-family="ArialMT" font-size="18.0" fill="#FFFFFF" transform="matrix(1.00, 0.00, -0.00, -1.00, 502.0, 220.0)">s</text><text xml:space="preserve" font-family="ArialMT" font-size="18.0" fill="#FFFFFF" transform="matrix(1.00, 0.00, -0.00, -1.00, 511.0, 220.0)"> </text><text xml:space="preserve" font-family="ArialMT" font-size="18.0" fill="#FFFFFF" transform="matrix(1.00, 0.00, -0.00, -1.00, 516.0, 220.0)">h</text><text xml:space="preserve" font-family="ArialMT" font-size="18.0" fill="#FFFFFF" transform="matrix(1.00, 0.00, -0.00, -1.00, 526.0, 220.0)">u</text><text xml:space="preserve" font-family="ArialMT" font-size="18.0" fill="#FFFFFF" transform="matrix(1.00, 0.00, -0.00, -1.00, 536.1, 220.0)">g</text><text xml:space="preserve" font-family="ArialMT" font-size="18.0" fill="#FFFFFF" transform="matrix(1.00, 0.00, -0.00, -1.00, 546.1, 220.0)">e</text><text xml:space="preserve" font-family="ArialMT" font-size="18.0" fill="#FFFFFF" transform="matrix(1.00, 0.00, -0.00, -1.00, 556.1, 220.0)"> </text><text xml:space="preserve" font-family="ArialMT" font-size="18.0" fill="#FFFFFF" transform="matrix(1.00, 0.00, -0.00, -1.00, 561.1, 220.0)">i</text><text xml:space="preserve" font-family="ArialMT" font-size="18.0" fill="#FFFFFF" transform="matrix(1.00, 0.00, -0.00, -1.00, 565.1, 220.0)">m</text><text xml:space="preserve" font-family="ArialMT" font-size="18.0" fill="#FFFFFF" transform="matrix(1.00, 0.00, -0.00, -1.00, 580.1, 220.0)">p</text><text xml:space="preserve" font-family="ArialMT" font-size="18.0" fill="#FFFFFF" transform="matrix(1.00, 0.00, -0.00, -1.00, 590.1, 220.0)">l</text><text xml:space="preserve" font-family="ArialMT" font-size="18.0" fill="#FFFFFF" transform="matrix(1.00, 0.00, -0.00, -1.00, 594.1, 220.0)">i</text><text xml:space="preserve" font-family="ArialMT" font-size="18.0" fill="#FFFFFF" transform="matrix(1.00, 0.00, -0.00, -1.00, 598.1, 220.0)">c</text><text xml:space="preserve" font-family="ArialMT" font-size="18.0" fill="#FFFFFF" transform="matrix(1.00, 0.00, -0.00, -1.00, 607.1, 220.0)">a</text><text xml:space="preserve" font-family="ArialMT" font-size="18.0" fill="#FFFFFF" transform="matrix(1.00, 0.00, -0.00, -1.00, 617.1, 220.0)">t</text><text xml:space="preserve" font-family="ArialMT" font-size="18.0" fill="#FFFFFF" transform="matrix(1.00, 0.00, -0.00, -1.00, 622.1, 220.0)">i</text><text xml:space="preserve" font-family="ArialMT" font-size="18.0" fill="#FFFFFF" transform="matrix(1.00, 0.00, -0.00, -1.00, 626.1, 220.0)">o</text><text xml:space="preserve" font-family="ArialMT" font-size="18.0" fill="#FFFFFF" transform="matrix(1.00, 0.00, -0.00, -1.00, 636.1, 220.0)">n</text><text xml:space="preserve" font-family="ArialMT" font-size="18.0" fill="#FFFFFF" transform="matrix(1.00, 0.00, -0.00, -1.00, 646.1, 220.0)">s</text><text xml:space="preserve" font-family="ArialMT" font-size="18.0" fill="#FFFFFF" transform="matrix(1.00, 0.00, -0.00, -1.00, 655.1, 220.0)"> </text><text xml:space="preserve" font-family="LucidaGrande" font-size="18.0" fill="#FFFFFF" transform="matrix(1.00, 0.00, -0.00, -1.00, 660.1, 220.0)"> </text><text xml:space="preserve" font-family="ArialMT" font-size="18.0" fill="#FFFFFF" transform="matrix(1.00, 0.00, -0.00, -1.00, 443.0, 199.0)">f</text><text xml:space="preserve" font-family="ArialMT" font-size="18.0" fill="#FFFFFF" transform="matrix(1.00, 0.00, -0.00, -1.00, 448.0, 199.0)">o</text><text xml:space="preserve" font-family="ArialMT" font-size="18.0" fill="#FFFFFF" transform="matrix(1.00, 0.00, -0.00, -1.00, 458.0, 199.0)">r</text><text xml:space="preserve" font-family="ArialMT" font-size="18.0" fill="#FFFFFF" transform="matrix(1.00, 0.00, -0.00, -1.00, 464.0, 199.0)"> </text><text xml:space="preserve" font-family="ArialMT" font-size="18.0" fill="#FFFFFF" transform="matrix(1.00, 0.00, -0.00, -1.00, 469.0, 199.0)">b</text><text xml:space="preserve" font-family="ArialMT" font-size="18.0" fill="#FFFFFF" transform="matrix(1.00, 0.00, -0.00, -1.00, 479.0, 199.0)">i</text><text xml:space="preserve" font-family="ArialMT" font-size="18.0" fill="#FFFFFF" transform="matrix(1.00, 0.00, -0.00, -1.00, 483.0, 199.0)">o</text><text xml:space="preserve" font-family="ArialMT" font-size="18.0" fill="#FFFFFF" transform="matrix(1.00, 0.00, -0.00, -1.00, 493.0, 199.0)">t</text><text xml:space="preserve" font-family="ArialMT" font-size="18.0" fill="#FFFFFF" transform="matrix(1.00, 0.00, -0.00, -1.00, 498.0, 199.0)">e</text><text xml:space="preserve" font-family="ArialMT" font-size="18.0" fill="#FFFFFF" transform="matrix(1.00, 0.00, -0.00, -1.00, 508.0, 199.0)">c</text><text xml:space="preserve" font-family="ArialMT" font-size="18.0" fill="#FFFFFF" transform="matrix(1.00, 0.00, -0.00, -1.00, 517.0, 199.0)">h</text><text xml:space="preserve" font-family="ArialMT" font-size="18.0" fill="#FFFFFF" transform="matrix(1.00, 0.00, -0.00, -1.00, 527.1, 199.0)"> </text><text xml:space="preserve" font-family="ArialMT" font-size="18.0" fill="#FFFFFF" transform="matrix(1.00, 0.00, -0.00, -1.00, 532.1, 199.0)">a</text><text xml:space="preserve" font-family="ArialMT" font-size="18.0" fill="#FFFFFF" transform="matrix(1.00, 0.00, -0.00, -1.00, 542.1, 199.0)">n</text><text xml:space="preserve" font-family="ArialMT" font-size="18.0" fill="#FFFFFF" transform="matrix(1.00, 0.00, -0.00, -1.00, 552.1, 199.0)">d</text><text xml:space="preserve" font-family="ArialMT" font-size="18.0" fill="#FFFFFF" transform="matrix(1.00, 0.00, -0.00, -1.00, 562.1, 199.0)"> </text><text xml:space="preserve" font-family="ArialMT" font-size="18.0" fill="#FFFFFF" transform="matrix(1.00, 0.00, -0.00, -1.00, 567.1, 199.0)">p</text><text xml:space="preserve" font-family="ArialMT" font-size="18.0" fill="#FFFFFF" transform="matrix(1.00, 0.00, -0.00, -1.00, 577.1, 199.0)">h</text><text xml:space="preserve" font-family="ArialMT" font-size="18.0" fill="#FFFFFF" transform="matrix(1.00, 0.00, -0.00, -1.00, 587.1, 199.0)">a</text><text xml:space="preserve" font-family="ArialMT" font-size="18.0" fill="#FFFFFF" transform="matrix(1.00, 0.00, -0.00, -1.00, 597.1, 199.0)">r</text><text xml:space="preserve" font-family="ArialMT" font-size="18.0" fill="#FFFFFF" transform="matrix(1.00, 0.00, -0.00, -1.00, 603.1, 199.0)">m</text><text xml:space="preserve" font-family="ArialMT" font-size="18.0" fill="#FFFFFF" transform="matrix(1.00, 0.00, -0.00, -1.00, 618.1, 199.0)">a</text><text xml:space="preserve" font-family="ArialMT" font-size="18.0" fill="#FFFFFF" transform="matrix(1.00, 0.00, -0.00, -1.00, 628.1, 199.0)"> </text><text xml:space="preserve" font-family="LucidaGrande" font-size="18.0" fill="#FFFFFF" transform="matrix(1.00, 0.00, -0.00, -1.00, 633.1, 199.0)"> </text><text xml:space="preserve" font-family="ArialMT" font-size="18.0" fill="#FFFFFF" transform="matrix(1.00, 0.00, -0.00, -1.00, 443.0, 178.0)">d</text><text xml:space="preserve" font-family="ArialMT" font-size="18.0" fill="#FFFFFF" transform="matrix(1.00, 0.00, -0.00, -1.00, 453.0, 178.0)">e</text><text xml:space="preserve" font-family="ArialMT" font-size="18.0" fill="#FFFFFF" transform="matrix(1.00, 0.00, -0.00, -1.00, 463.0, 178.0)">v</text><text xml:space="preserve" font-family="ArialMT" font-size="18.0" fill="#FFFFFF" transform="matrix(1.00, 0.00, -0.00, -1.00, 472.0, 178.0)">e</text><text xml:space="preserve" font-family="ArialMT" font-size="18.0" fill="#FFFFFF" transform="matrix(1.00, 0.00, -0.00, -1.00, 482.0, 178.0)">l</text><text xml:space="preserve" font-family="ArialMT" font-size="18.0" fill="#FFFFFF" transform="matrix(1.00, 0.00, -0.00, -1.00, 486.0, 178.0)">o</text><text xml:space="preserve" font-family="ArialMT" font-size="18.0" fill="#FFFFFF" transform="matrix(1.00, 0.00, -0.00, -1.00, 496.1, 178.0)">p</text><text xml:space="preserve" font-family="ArialMT" font-size="18.0" fill="#FFFFFF" transform="matrix(1.00, 0.00, -0.00, -1.00, 506.1, 178.0)">m</text><text xml:space="preserve" font-family="ArialMT" font-size="18.0" fill="#FFFFFF" transform="matrix(1.00, 0.00, -0.00, -1.00, 521.1, 178.0)">e</text><text xml:space="preserve" font-family="ArialMT" font-size="18.0" fill="#FFFFFF" transform="matrix(1.00, 0.00, -0.00, -1.00, 531.1, 178.0)">n</text><text xml:space="preserve" font-family="ArialMT" font-size="18.0" fill="#FFFFFF" transform="matrix(1.00, 0.00, -0.00, -1.00, 541.1, 178.0)">t</text><text xml:space="preserve" font-family="ArialMT" font-size="18.0" fill="#FFFFFF" transform="matrix(1.00, 0.00, -0.00, -1.00, 546.1, 178.0)">,</text><text xml:space="preserve" font-family="ArialMT" font-size="18.0" fill="#FFFFFF" transform="matrix(1.00, 0.00, -0.00, -1.00, 551.1, 178.0)"> </text><text xml:space="preserve" font-family="ArialMT" font-size="18.0" fill="#FFFFFF" transform="matrix(1.00, 0.00, -0.00, -1.00, 556.1, 178.0)">r</text><text xml:space="preserve" font-family="ArialMT" font-size="18.0" fill="#FFFFFF" transform="matrix(1.00, 0.00, -0.00, -1.00, 562.1, 178.0)">i</text><text xml:space="preserve" font-family="ArialMT" font-size="18.0" fill="#FFFFFF" transform="matrix(1.00, 0.00, -0.00, -1.00, 566.1, 178.0)">g</text><text xml:space="preserve" font-family="ArialMT" font-size="18.0" fill="#FFFFFF" transform="matrix(1.00, 0.00, -0.00, -1.00, 576.1, 178.0)">h</text><text xml:space="preserve" font-family="ArialMT" font-size="18.0" fill="#FFFFFF" transform="matrix(1.00, 0.00, -0.00, -1.00, 586.1, 178.0)">t</text><text xml:space="preserve" font-family="ArialMT" font-size="18.0" fill="#FFFFFF" transform="matrix(1.00, 0.00, -0.00, -1.00, 591.1, 178.0)">?</text><text xml:space="preserve" font-family="ArialMT" font-size="18.0" fill="#FFFFFF" transform="matrix(1.00, 0.00, -0.00, -1.00, 601.1, 178.0)">!</text><text xml:space="preserve" font-family="ArialMT" font-size="18.0" fill="#FFFFFF" transform="matrix(1.00, 0.00, -0.00, -1.00, 606.1, 178.0)">!</text><text xml:space="preserve" font-family="ArialMT" font-size="12.0" fill="#FFFFFF" transform="matrix(1.00, 0.00, -0.00, -1.00, 323.0, 15.0)">I</text><text xml:space="preserve" font-family="ArialMT" font-size="12.0" fill="#FFFFFF" transform="matrix(1.00, 0.00, -0.00, -1.00, 326.3, 15.0)">o</text><text xml:space="preserve" font-family="ArialMT" font-size="12.0" fill="#FFFFFF" transform="matrix(1.00, 0.00, -0.00, -1.00, 333.0, 15.0)">a</text><text xml:space="preserve" font-family="ArialMT" font-size="12.0" fill="#FFFFFF" transform="matrix(1.00, 0.00, -0.00, -1.00, 339.7, 15.0)">n</text><text xml:space="preserve" font-family="ArialMT" font-size="12.0" fill="#FFFFFF" transform="matrix(1.00, 0.00, -0.00, -1.00, 346.4, 15.0)">n</text><text xml:space="preserve" font-family="ArialMT" font-size="12.0" fill="#FFFFFF" transform="matrix(1.00, 0.00, -0.00, -1.00, 353.0, 15.0)">i</text><text xml:space="preserve" font-family="ArialMT" font-size="12.0" fill="#FFFFFF" transform="matrix(1.00, 0.00, -0.00, -1.00, 355.7, 15.0)">d</text><text xml:space="preserve" font-family="ArialMT" font-size="12.0" fill="#FFFFFF" transform="matrix(1.00, 0.00, -0.00, -1.00, 362.4, 15.0)">i</text><text xml:space="preserve" font-family="ArialMT" font-size="12.0" fill="#FFFFFF" transform="matrix(1.00, 0.00, -0.00, -1.00, 365.0, 15.0)">s</text><text xml:space="preserve" font-family="ArialMT" font-size="12.0" fill="#FFFFFF" transform="matrix(1.00, 0.00, -0.00, -1.00, 371.0, 15.0)">,</text><text xml:space="preserve" font-family="ArialMT" font-size="12.0" fill="#FFFFFF" transform="matrix(1.00, 0.00, -0.00, -1.00, 374.4, 15.0)"> </text><text xml:space="preserve" font-family="ArialMT" font-size="12.0" fill="#FFFFFF" transform="matrix(1.00, 0.00, -0.00, -1.00, 377.7, 15.0)">2</text><text xml:space="preserve" font-family="ArialMT" font-size="12.0" fill="#FFFFFF" transform="matrix(1.00, 0.00, -0.00, -1.00, 384.4, 15.0)">0</text><text xml:space="preserve" font-family="ArialMT" font-size="12.0" fill="#FFFFFF" transform="matrix(1.00, 0.00, -0.00, -1.00, 391.1, 15.0)">0</text><text xml:space="preserve" font-family="ArialMT" font-size="12.0" fill="#FFFFFF" transform="matrix(1.00, 0.00, -0.00, -1.00, 397.7, 15.0)">5</text></g></svg>